<svg xmlns="http://www.w3.org/2000/svg" viewBox="0 0 2048 2048" width="2048px" height="2048px"><rect x="0" y="0" width="2048" height="2048" fill="#f5f5f5" /><g transform="translate(1024.0 1024.0)"><text x="0" y="6" font-family="Candara" font-size="20" text-anchor="middle" font-weight="bold">QN</text><path d="M 15.00,-299.62 A 300.00 300.00 0 1 1 -15.00,-299.62" fill="none" stroke="#6b6b6b" /><text x="0" y="-296.0" font-family="Candara" font-size="18" text-anchor="middle">0</text><path d="M 15.00,-269.58 A 270.00 270.00 0 1 1 -15.00,-269.58" fill="none" stroke="#6b6b6b" /><text x="0" y="-266.0" font-family="Candara" font-size="18" text-anchor="middle">10</text><path d="M 15.00,-239.53 A 240.00 240.00 0 1 1 -15.00,-239.53" fill="none" stroke="#6b6b6b" /><text x="0" y="-236.0" font-family="Candara" font-size="18" text-anchor="middle">20</text><path d="M 15.00,-209.46 A 210.00 210.00 0 1 1 -15.00,-209.46" fill="none" stroke="#6b6b6b" /><text x="0" y="-206.0" font-family="Candara" font-size="18" text-anchor="middle">30</text><path d="M 15.00,-179.37 A 180.00 180.00 0 1 1 -15.00,-179.37" fill="none" stroke="#6b6b6b" /><text x="0" y="-176.0" font-family="Candara" font-size="18" text-anchor="middle">40</text><path d="M 15.00,-149.25 A 150.00 150.00 0 1 1 -15.00,-149.25" fill="none" stroke="#6b6b6b" /><text x="0" y="-146.0" font-family="Candara" font-size="18" text-anchor="middle">50</text><path d="M 15.00,-119.06 A 120.00 120.00 0 1 1 -15.00,-119.06" fill="none" stroke="#6b6b6b" /><text x="0" y="-116.0" font-family="Candara" font-size="18" text-anchor="middle">60</text><path d="M 15.00,-88.74 A 90.00 90.00 0 1 1 -15.00,-88.74" fill="none" stroke="#6b6b6b" /><text x="0" y="-86.0" font-family="Candara" font-size="18" text-anchor="middle">70</text><path d="M 15.00,-58.09 A 60.00 60.00 0 1 1 -15.00,-58.09" fill="none" stroke="#6b6b6b" /><text x="0" y="-56.0" font-family="Candara" font-size="18" text-anchor="middle">80</text><path d="M 15.00,-25.98 A 30.00 30.00 0 1 1 -15.00,-25.98" fill="none" stroke="#6b6b6b" /><text x="0" y="-26.0" font-family="Candara" font-size="18" text-anchor="middle">90</text><path d="M 123.29,-699.21 L 125.03,-709.06 A 720.00 720.00 0 0 1 384.13,-608.97 L 378.79,-600.51 " fill="none" stroke="#6b6b6b" stroke-width="2" /><defs><path id="cat_EMS/PCB" d="M 126.76,-718.91 A 730.00 730.00 0 0 1 389.46,-617.43" /></defs><text font-family="Candara" font-size="24" font-weight="600" fill="#6b6b6b" text-anchor="middle"><textPath startOffset="50%" href="#cat_EMS/PCB">EMS/PCB</textPath></text><path d="M 411.50,-578.59 L 417.29,-586.74 A 720.00 720.00 0 0 1 99.51,713.09 L 98.12,703.19 " fill="none" stroke="#6b6b6b" stroke-width="2" /><defs><path id="cat_Electromechanics" d="M 423.09,-594.89 A 730.00 730.00 0 0 1 100.89,722.99" /></defs><text font-family="Candara" font-size="24" font-weight="600" fill="#6b6b6b" text-anchor="middle"><textPath startOffset="50%" href="#cat_Electromechanics">Electromechanics</textPath></text><path d="M 59.00,707.54 L 59.83,717.51 A 720.00 720.00 0 0 1 -460.10,553.81 L -453.71,546.12 " fill="none" stroke="#6b6b6b" stroke-width="2" /><defs><path id="cat_Metals and Non-Iron Casting" d="M 60.66,727.48 A 730.00 730.00 0 0 1 -466.49,561.50" /></defs><text font-family="Candara" font-size="24" font-weight="600" fill="#6b6b6b" text-anchor="middle"><textPath startOffset="50%" href="#cat_Metals and Non-Iron Casting">Metals and Non-Iron Casting</textPath></text><path d="M -483.29,520.13 L -490.09,527.45 A 720.00 720.00 0 0 1 -682.77,228.52 L -673.29,225.34 " fill="none" stroke="#6b6b6b" stroke-width="2" /><defs><path id="cat_Pressed Parts" d="M -496.90,534.78 A 730.00 730.00 0 0 1 -692.26,231.69" /></defs><text font-family="Candara" font-size="24" font-weight="600" fill="#6b6b6b" text-anchor="middle"><textPath startOffset="50%" href="#cat_Pressed Parts">Pressed Parts</textPath></text><path d="M -684.75,187.67 L -694.39,190.32 A 720.00 720.00 0 0 1 -125.03,-709.06 L -123.29,-699.21 " fill="none" stroke="#6b6b6b" stroke-width="2" /><defs><path id="cat_Turned and Hot Stamped" d="M -704.04,192.96 A 730.00 730.00 0 0 1 -126.76,-718.91" /></defs><text font-family="Candara" font-size="24" font-weight="600" fill="#6b6b6b" text-anchor="middle"><textPath startOffset="50%" href="#cat_Turned and Hot Stamped">Turned and Hot Stamped</textPath></text><g transform="rotate(-80)"><path d="M 299.92,-6.81 A 300.00 300.00 0 0 1 299.92,6.81 L 275.93,6.26 A 276.00 276.00 0 0 0 275.93,-6.26 Z" /><text x="330" y="5" font-family="Candara" font-size="18" alignment-baseline="middle">CircuitSmith Fabrications</text><line stroke="black" stroke-width="1" stroke-dasharray="5, 5" x1="529.0" y1="0" x2="600" y2="0" /><path d="M 326.00,0.00 L 322.05,2.94 L 320.47,7.61 L 316.45,4.76 L 311.53,4.70 L 313.00,0.00 L 311.53,-4.70 L 316.45,-4.76 L 320.47,-7.61 L 322.05,-2.94 Z" fill="none" stroke="#149cd0" stroke-width="1" /><circle cx="620" cy="0" r="12.439913538607843" fill="none" stroke="#149cd0" stroke-width="1" /><circle cx="660" cy="0" r="4.218145068056655" fill="#149cd0" stroke="#149cd0" stroke-width="1" /><path d="M 704.82,-15.99 A 705.00 705.00 0 0 1 704.82,15.99 L 689.82,15.65 A 690.00 690.00 0 0 0 689.82,-15.65 Z" fill="#f6f7f8" stroke="#6b6b6b" stroke-width="1" /></g><g transform="rotate(-76.82242990654206)"><path d="M 299.92,-6.81 A 300.00 300.00 0 0 1 299.92,6.81 L 224.94,5.10 A 225.00 225.00 0 0 0 224.94,-5.10 Z" /><text x="330" y="5" font-family="Candara" font-size="18" alignment-baseline="middle">TechTrak PCB Solutions</text><line stroke="black" stroke-width="1" stroke-dasharray="5, 5" x1="519.0" y1="0" x2="600" y2="0" /><circle cx="620" cy="0" r="10.088745444062589" fill="none" stroke="#149cd0" stroke-width="1" /><circle cx="660" cy="0" r="11.962277954602314" fill="#149cd0" stroke="#149cd0" stroke-width="1" /><path d="M 704.82,-15.99 A 705.00 705.00 0 0 1 704.82,15.99 L 689.82,15.65 A 690.00 690.00 0 0 0 689.82,-15.65 Z" fill="#f9fafa" stroke="#6b6b6b" stroke-width="1" /></g><g transform="rotate(-73.64485981308411)"><path d="M 299.92,-6.81 A 300.00 300.00 0 0 1 299.92,6.81 L 281.93,6.40 A 282.00 282.00 0 0 0 281.93,-6.40 Z" /><text x="330" y="5" font-family="Candara" font-size="18" alignment-baseline="middle">EverCore Electronic Assembly</text><line stroke="black" stroke-width="1" stroke-dasharray="5, 5" x1="563.0" y1="0" x2="600" y2="0" /><path d="M 326.00,0.00 L 322.05,2.94 L 320.47,7.61 L 316.45,4.76 L 311.53,4.70 L 313.00,0.00 L 311.53,-4.70 L 316.45,-4.76 L 320.47,-7.61 L 322.05,-2.94 Z" fill="#149cd0" stroke="#149cd0" stroke-width="1" /><circle cx="620" cy="0" r="7.233612652191996" fill="none" stroke="#149cd0" stroke-width="1" /><circle cx="660" cy="0" r="8.595887169456256" fill="#149cd0" stroke="#149cd0" stroke-width="1" /><path d="M 704.82,-15.99 A 705.00 705.00 0 0 1 704.82,15.99 L 689.82,15.65 A 690.00 690.00 0 0 0 689.82,-15.65 Z" fill="#f4f6f7" stroke="#6b6b6b" stroke-width="1" /></g><g transform="rotate(-70.46728971962617)"><path d="M 299.92,-6.81 A 300.00 300.00 0 0 1 299.92,6.81 L 266.93,6.06 A 267.00 267.00 0 0 0 266.93,-6.06 Z" /><text x="330" y="5" font-family="Candara" font-size="18" alignment-baseline="middle">PrimeWave EMS</text><line stroke="black" stroke-width="1" stroke-dasharray="5, 5" x1="464.0" y1="0" x2="600" y2="0" /><circle cx="620" cy="0" r="14.023462571383785" fill="none" stroke="#149cd0" stroke-width="1" /><circle cx="660" cy="0" r="6.9029988396041375" fill="#149cd0" stroke="#149cd0" stroke-width="1" /><path d="M 704.82,-15.99 A 705.00 705.00 0 0 1 704.82,15.99 L 689.82,15.65 A 690.00 690.00 0 0 0 689.82,-15.65 Z" fill="#566b81" stroke="#6b6b6b" stroke-width="1" /></g><g transform="rotate(-67.28971962616822)"><path d="M 299.92,-6.81 A 300.00 300.00 0 0 1 299.92,6.81 L 296.92,6.74 A 297.00 297.00 0 0 0 296.92,-6.74 Z" /><text x="330" y="5" font-family="Candara" font-size="18" alignment-baseline="middle">AeroLink Circuitry</text><line stroke="black" stroke-width="1" stroke-dasharray="5, 5" x1="474.0" y1="0" x2="600" y2="0" /><circle cx="620" cy="0" r="15.673869050585607" fill="none" stroke="#149cd0" stroke-width="1" /><circle cx="660" cy="0" r="12.295951388545193" fill="#149cd0" stroke="#149cd0" stroke-width="1" /><path d="M 704.82,-15.99 A 705.00 705.00 0 0 1 704.82,15.99 L 689.82,15.65 A 690.00 690.00 0 0 0 689.82,-15.65 Z" fill="#dce0e5" stroke="#6b6b6b" stroke-width="1" /></g><g transform="rotate(-64.11214953271028)"><path d="M 299.92,-6.81 A 300.00 300.00 0 0 1 299.92,6.81 L 272.93,6.19 A 273.00 273.00 0 0 0 272.93,-6.19 Z" /><text x="330" y="5" font-family="Candara" font-size="18" alignment-baseline="middle">MicroMasters Manufacturing</text><line stroke="black" stroke-width="1" stroke-dasharray="5, 5" x1="561.0" y1="0" x2="600" y2="0" /><circle cx="620" cy="0" r="9.54544932533077" fill="none" stroke="#149cd0" stroke-width="1" /><circle cx="660" cy="0" r="11.325726788891107" fill="#149cd0" stroke="#149cd0" stroke-width="1" /><path d="M 704.82,-15.99 A 705.00 705.00 0 0 1 704.82,15.99 L 689.82,15.65 A 690.00 690.00 0 0 0 689.82,-15.65 Z" fill="#aab5bf" stroke="#6b6b6b" stroke-width="1" /></g><g transform="rotate(-60.93457943925233)"><path d="M 299.92,-6.81 A 300.00 300.00 0 0 1 299.92,6.81 L 224.94,5.10 A 225.00 225.00 0 0 0 224.94,-5.10 Z" /><text x="330" y="5" font-family="Candara" font-size="18" alignment-baseline="middle">NovaFlex PCB Services</text><line stroke="black" stroke-width="1" stroke-dasharray="5, 5" x1="512.0" y1="0" x2="600" y2="0" /><circle cx="620" cy="0" r="3.9696112671210533" fill="none" stroke="#149cd0" stroke-width="1" /><circle cx="660" cy="0" r="15.378544725480163" fill="#149cd0" stroke="#149cd0" stroke-width="1" /><path d="M 704.82,-15.99 A 705.00 705.00 0 0 1 704.82,15.99 L 689.82,15.65 A 690.00 690.00 0 0 0 689.82,-15.65 Z" fill="#fcfdfd" stroke="#6b6b6b" stroke-width="1" /></g><g transform="rotate(-57.75700934579439)"><path d="M 299.92,-6.81 A 300.00 300.00 0 0 1 299.92,6.81 L 221.94,5.04 A 222.00 222.00 0 0 0 221.94,-5.04 Z" /><text x="330" y="5" font-family="Candara" font-size="18" alignment-baseline="middle">ProTechno Board Assembly</text><line stroke="black" stroke-width="1" stroke-dasharray="5, 5" x1="549.0" y1="0" x2="600" y2="0" /><circle cx="620" cy="0" r="15.634205160046887" fill="none" stroke="#149cd0" stroke-width="1" /><circle cx="660" cy="0" r="9.17777785701627" fill="#149cd0" stroke="#149cd0" stroke-width="1" /><path d="M 704.82,-15.99 A 705.00 705.00 0 0 1 704.82,15.99 L 689.82,15.65 A 690.00 690.00 0 0 0 689.82,-15.65 Z" fill="#dadee3" stroke="#6b6b6b" stroke-width="1" /></g><g transform="rotate(-54.57943925233644)"><path d="M 299.92,-6.81 A 300.00 300.00 0 0 1 299.92,6.81 L 299.92,6.81 A 300.00 300.00 0 0 0 299.92,-6.81 Z" /><text x="330" y="5" font-family="Candara" font-size="18" alignment-baseline="middle">ArcDynamics</text><line stroke="black" stroke-width="1" stroke-dasharray="5, 5" x1="439.0" y1="0" x2="600" y2="0" /><circle cx="620" cy="0" r="3.226142527493599" fill="none" stroke="#149cd0" stroke-width="1" /><circle cx="660" cy="0" r="12.130964167471019" fill="#149cd0" stroke="#149cd0" stroke-width="1" /><path d="M 704.82,-15.99 A 705.00 705.00 0 0 1 704.82,15.99 L 689.82,15.65 A 690.00 690.00 0 0 0 689.82,-15.65 Z" fill="#ffffff" stroke="#6b6b6b" stroke-width="1" /></g><g transform="rotate(-51.4018691588785)"><path d="M 299.92,-6.81 A 300.00 300.00 0 0 1 299.92,6.81 L 290.93,6.60 A 291.00 291.00 0 0 0 290.93,-6.60 Z" /><text x="330" y="5" font-family="Candara" font-size="18" alignment-baseline="middle">TorquePulse</text><line stroke="black" stroke-width="1" stroke-dasharray="5, 5" x1="435.0" y1="0" x2="600" y2="0" /><circle cx="620" cy="0" r="15.31174581011399" fill="none" stroke="#149cd0" stroke-width="1" /><circle cx="660" cy="0" r="12.41607857943931" fill="#149cd0" stroke="#149cd0" stroke-width="1" /><path d="M 704.82,-15.99 A 705.00 705.00 0 0 1 704.82,15.99 L 689.82,15.65 A 690.00 690.00 0 0 0 689.82,-15.65 Z" fill="#f7f8f9" stroke="#6b6b6b" stroke-width="1" /></g><g transform="rotate(-48.22429906542055)"><path d="M 299.92,-6.81 A 300.00 300.00 0 0 1 299.92,6.81 L 284.93,6.47 A 285.00 285.00 0 0 0 284.93,-6.47 Z" /><text x="330" y="5" font-family="Candara" font-size="18" alignment-baseline="middle">VoltEdge Systems</text><line stroke="black" stroke-width="1" stroke-dasharray="5, 5" x1="475.0" y1="0" x2="600" y2="0" /><circle cx="620" cy="0" r="14.835843181917147" fill="none" stroke="#149cd0" stroke-width="1" /><circle cx="660" cy="0" r="9.56952859617396" fill="#149cd0" stroke="#149cd0" stroke-width="1" /><path d="M 704.82,-15.99 A 705.00 705.00 0 0 1 704.82,15.99 L 689.82,15.65 A 690.00 690.00 0 0 0 689.82,-15.65 Z" fill="#f3f5f6" stroke="#6b6b6b" stroke-width="1" /></g><g transform="rotate(-45.04672897196261)"><path d="M 299.92,-6.81 A 300.00 300.00 0 0 1 299.92,6.81 L 299.92,6.81 A 300.00 300.00 0 0 0 299.92,-6.81 Z" /><text x="330" y="5" font-family="Candara" font-size="18" alignment-baseline="middle">ElectroCore Industries</text><line stroke="black" stroke-width="1" stroke-dasharray="5, 5" x1="507.0" y1="0" x2="600" y2="0" /><circle cx="620" cy="0" r="13.189845315240893" fill="none" stroke="#149cd0" stroke-width="1" /><circle cx="660" cy="0" r="13.404117231155501" fill="#149cd0" stroke="#149cd0" stroke-width="1" /><path d="M 704.82,-15.99 A 705.00 705.00 0 0 1 704.82,15.99 L 689.82,15.65 A 690.00 690.00 0 0 0 689.82,-15.65 Z" fill="#ffffff" stroke="#6b6b6b" stroke-width="1" /></g><g transform="rotate(-41.86915887850466)"><path d="M 299.92,-6.81 A 300.00 300.00 0 0 1 299.92,6.81 L 233.94,5.31 A 234.00 234.00 0 0 0 233.94,-5.31 Z" /><text x="330" y="5" font-family="Candara" font-size="18" alignment-baseline="middle">GearingX Solutions</text><line stroke="black" stroke-width="1" stroke-dasharray="5, 5" x1="484.0" y1="0" x2="600" y2="0" /><path d="M 312.34,2.83 L 315.17,5.66 L 318.00,2.83 L 320.83,5.66 L 323.66,2.83 L 320.83,0.00 L 323.66,-2.83 L 320.83,-5.66 L 318.00,-2.83 L 315.17,-5.66 L 312.34,-2.83 L 315.17,0.00 Z" fill="#9e2a29" stroke="#9e2a29" stroke-width="1" /><circle cx="620" cy="0" r="4.633546386936624" fill="none" stroke="#149cd0" stroke-width="1" /><circle cx="660" cy="0" r="9.303947015182324" fill="#149cd0" stroke="#149cd0" stroke-width="1" /><path d="M 704.82,-15.99 A 705.00 705.00 0 0 1 704.82,15.99 L 689.82,15.65 A 690.00 690.00 0 0 0 689.82,-15.65 Z" fill="#f2f4f5" stroke="#6b6b6b" stroke-width="1" /></g><g transform="rotate(-38.69158878504672)"><path d="M 299.92,-6.81 A 300.00 300.00 0 0 1 299.92,6.81 L 287.93,6.53 A 288.00 288.00 0 0 0 287.93,-6.53 Z" /><text x="330" y="5" font-family="Candara" font-size="18" alignment-baseline="middle">MechWave Innovations</text><line stroke="black" stroke-width="1" stroke-dasharray="5, 5" x1="520.0" y1="0" x2="600" y2="0" /><path d="M 326.00,0.00 L 322.05,2.94 L 320.47,7.61 L 316.45,4.76 L 311.53,4.70 L 313.00,0.00 L 311.53,-4.70 L 316.45,-4.76 L 320.47,-7.61 L 322.05,-2.94 Z" fill="#149cd0" stroke="#149cd0" stroke-width="1" /><circle cx="620" cy="0" r="9.147126707244935" fill="none" stroke="#149cd0" stroke-width="1" /><circle cx="660" cy="0" r="6.201839017896329" fill="#149cd0" stroke="#149cd0" stroke-width="1" /><path d="M 704.82,-15.99 A 705.00 705.00 0 0 1 704.82,15.99 L 689.82,15.65 A 690.00 690.00 0 0 0 689.82,-15.65 Z" fill="#f3f4f6" stroke="#6b6b6b" stroke-width="1" /></g><g transform="rotate(-35.514018691588774)"><path d="M 299.92,-6.81 A 300.00 300.00 0 0 1 299.92,6.81 L 242.94,5.51 A 243.00 243.00 0 0 0 242.94,-5.51 Z" /><text x="330" y="5" font-family="Candara" font-size="18" alignment-baseline="middle">PowerMates International</text><line stroke="black" stroke-width="1" stroke-dasharray="5, 5" x1="538.0" y1="0" x2="600" y2="0" /><circle cx="620" cy="0" r="10.192045349046229" fill="none" stroke="#149cd0" stroke-width="1" /><circle cx="660" cy="0" r="12.70257361206952" fill="#149cd0" stroke="#149cd0" stroke-width="1" /><path d="M 704.82,-15.99 A 705.00 705.00 0 0 1 704.82,15.99 L 689.82,15.65 A 690.00 690.00 0 0 0 689.82,-15.65 Z" fill="#fcfdfd" stroke="#6b6b6b" stroke-width="1" /></g><g transform="rotate(-32.33644859813083)"><path d="M 299.92,-6.81 A 300.00 300.00 0 0 1 299.92,6.81 L 221.94,5.04 A 222.00 222.00 0 0 0 221.94,-5.04 Z" /><text x="330" y="5" font-family="Candara" font-size="18" alignment-baseline="middle">NovaDrive Technologies</text><line stroke="black" stroke-width="1" stroke-dasharray="5, 5" x1="525.0" y1="0" x2="600" y2="0" /><circle cx="620" cy="0" r="14.089689438589962" fill="none" stroke="#149cd0" stroke-width="1" /><circle cx="660" cy="0" r="14.569421110011735" fill="#149cd0" stroke="#149cd0" stroke-width="1" /><path d="M 704.82,-15.99 A 705.00 705.00 0 0 1 704.82,15.99 L 689.82,15.65 A 690.00 690.00 0 0 0 689.82,-15.65 Z" fill="#e0e4e8" stroke="#6b6b6b" stroke-width="1" /></g><g transform="rotate(-29.158878504672884)"><path d="M 299.92,-6.81 A 300.00 300.00 0 0 1 299.92,6.81 L 299.92,6.81 A 300.00 300.00 0 0 0 299.92,-6.81 Z" /><text x="330" y="5" font-family="Candara" font-size="18" alignment-baseline="middle">AlloyLift Systems</text><line stroke="black" stroke-width="1" stroke-dasharray="5, 5" x1="469.0" y1="0" x2="600" y2="0" /><path d="M 326.00,0.00 L 322.05,2.94 L 320.47,7.61 L 316.45,4.76 L 311.53,4.70 L 313.00,0.00 L 311.53,-4.70 L 316.45,-4.76 L 320.47,-7.61 L 322.05,-2.94 Z" fill="#149cd0" stroke="#149cd0" stroke-width="1" /><circle cx="620" cy="0" r="15.622209818590989" fill="none" stroke="#149cd0" stroke-width="1" /><circle cx="660" cy="0" r="10.832672856536595" fill="#149cd0" stroke="#149cd0" stroke-width="1" /><path d="M 704.82,-15.99 A 705.00 705.00 0 0 1 704.82,15.99 L 689.82,15.65 A 690.00 690.00 0 0 0 689.82,-15.65 Z" fill="#ffffff" stroke="#6b6b6b" stroke-width="1" /></g><g transform="rotate(-25.98130841121494)"><path d="M 299.92,-6.81 A 300.00 300.00 0 0 1 299.92,6.81 L 299.92,6.81 A 300.00 300.00 0 0 0 299.92,-6.81 Z" /><text x="330" y="5" font-family="Candara" font-size="18" alignment-baseline="middle">EMF Fusion</text><line stroke="black" stroke-width="1" stroke-dasharray="5, 5" x1="428.0" y1="0" x2="600" y2="0" /><circle cx="620" cy="0" r="14.292504958505253" fill="none" stroke="#149cd0" stroke-width="1" /><circle cx="660" cy="0" r="8.593810857321794" fill="#149cd0" stroke="#149cd0" stroke-width="1" /><path d="M 704.82,-15.99 A 705.00 705.00 0 0 1 704.82,15.99 L 689.82,15.65 A 690.00 690.00 0 0 0 689.82,-15.65 Z" fill="#ffffff" stroke="#6b6b6b" stroke-width="1" /></g><g transform="rotate(-22.803738317756995)"><path d="M 299.92,-6.81 A 300.00 300.00 0 0 1 299.92,6.81 L 269.93,6.13 A 270.00 270.00 0 0 0 269.93,-6.13 Z" /><text x="330" y="5" font-family="Candara" font-size="18" alignment-baseline="middle">OmniMotion Tech</text><line stroke="black" stroke-width="1" stroke-dasharray="5, 5" x1="476.0" y1="0" x2="600" y2="0" /><path d="M 326.00,0.00 L 322.05,2.94 L 320.47,7.61 L 316.45,4.76 L 311.53,4.70 L 313.00,0.00 L 311.53,-4.70 L 316.45,-4.76 L 320.47,-7.61 L 322.05,-2.94 Z" fill="#149cd0" stroke="#149cd0" stroke-width="1" /><circle cx="620" cy="0" r="5.550881938783259" fill="none" stroke="#149cd0" stroke-width="1" /><circle cx="660" cy="0" r="15.136351291304974" fill="#149cd0" stroke="#149cd0" stroke-width="1" /><path d="M 704.82,-15.99 A 705.00 705.00 0 0 1 704.82,15.99 L 689.82,15.65 A 690.00 690.00 0 0 0 689.82,-15.65 Z" fill="#dadfe3" stroke="#6b6b6b" stroke-width="1" /></g><g transform="rotate(-19.62616822429905)"><path d="M 299.92,-6.81 A 300.00 300.00 0 0 1 299.92,6.81 L 299.92,6.81 A 300.00 300.00 0 0 0 299.92,-6.81 Z" /><text x="330" y="5" font-family="Candara" font-size="18" alignment-baseline="middle">ZenoGear Engineering</text><line stroke="black" stroke-width="1" stroke-dasharray="5, 5" x1="508.0" y1="0" x2="600" y2="0" /><path d="M 312.34,2.83 L 315.17,5.66 L 318.00,2.83 L 320.83,5.66 L 323.66,2.83 L 320.83,0.00 L 323.66,-2.83 L 320.83,-5.66 L 318.00,-2.83 L 315.17,-5.66 L 312.34,-2.83 L 315.17,0.00 Z" fill="#9e2a29" stroke="#9e2a29" stroke-width="1" /><circle cx="620" cy="0" r="7.705321721868941" fill="none" stroke="#149cd0" stroke-width="1" /><circle cx="660" cy="0" r="15.69432183064674" fill="#149cd0" stroke="#149cd0" stroke-width="1" /><path d="M 704.82,-15.99 A 705.00 705.00 0 0 1 704.82,15.99 L 689.82,15.65 A 690.00 690.00 0 0 0 689.82,-15.65 Z" fill="#ffffff" stroke="#6b6b6b" stroke-width="1" /></g><g transform="rotate(-16.448598130841106)"><path d="M 299.92,-6.81 A 300.00 300.00 0 0 1 299.92,6.81 L 137.96,3.13 A 138.00 138.00 0 0 0 137.96,-3.13 Z" /><text x="330" y="5" font-family="Candara" font-size="18" alignment-baseline="middle">AeroVolt Solutions</text><line stroke="black" stroke-width="1" stroke-dasharray="5, 5" x1="481.0" y1="0" x2="600" y2="0" /><circle cx="620" cy="0" r="13.632628032958994" fill="none" stroke="#149cd0" stroke-width="1" /><circle cx="660" cy="0" r="4.535017641949713" fill="#149cd0" stroke="#149cd0" stroke-width="1" /><path d="M 704.82,-15.99 A 705.00 705.00 0 0 1 704.82,15.99 L 689.82,15.65 A 690.00 690.00 0 0 0 689.82,-15.65 Z" fill="#f7f8f9" stroke="#6b6b6b" stroke-width="1" /></g><g transform="rotate(-13.27102803738316)"><path d="M 299.92,-6.81 A 300.00 300.00 0 0 1 299.92,6.81 L 299.92,6.81 A 300.00 300.00 0 0 0 299.92,-6.81 Z" /><text x="330" y="5" font-family="Candara" font-size="18" alignment-baseline="middle">OptimaTorque Industries</text><line stroke="black" stroke-width="1" stroke-dasharray="5, 5" x1="530.0" y1="0" x2="600" y2="0" /><circle cx="620" cy="0" r="14.681305127794461" fill="none" stroke="#149cd0" stroke-width="1" /><circle cx="660" cy="0" r="10.119009856935932" fill="#149cd0" stroke="#149cd0" stroke-width="1" /><path d="M 704.82,-15.99 A 705.00 705.00 0 0 1 704.82,15.99 L 689.82,15.65 A 690.00 690.00 0 0 0 689.82,-15.65 Z" fill="#ffffff" stroke="#6b6b6b" stroke-width="1" /></g><g transform="rotate(-10.093457943925216)"><path d="M 299.92,-6.81 A 300.00 300.00 0 0 1 299.92,6.81 L 296.92,6.74 A 297.00 297.00 0 0 0 296.92,-6.74 Z" /><text x="330" y="5" font-family="Candara" font-size="18" alignment-baseline="middle">TeraMoto Co.</text><line stroke="black" stroke-width="1" stroke-dasharray="5, 5" x1="443.0" y1="0" x2="600" y2="0" /><circle cx="620" cy="0" r="15.329472936431129" fill="none" stroke="#149cd0" stroke-width="1" /><circle cx="660" cy="0" r="3.9579802485749846" fill="#149cd0" stroke="#149cd0" stroke-width="1" /><path d="M 704.82,-15.99 A 705.00 705.00 0 0 1 704.82,15.99 L 689.82,15.65 A 690.00 690.00 0 0 0 689.82,-15.65 Z" fill="#f8f9fa" stroke="#6b6b6b" stroke-width="1" /></g><g transform="rotate(-6.915887850467272)"><path d="M 299.92,-6.81 A 300.00 300.00 0 0 1 299.92,6.81 L 299.92,6.81 A 300.00 300.00 0 0 0 299.92,-6.81 Z" /><text x="330" y="5" font-family="Candara" font-size="18" alignment-baseline="middle">MechXion</text><line stroke="black" stroke-width="1" stroke-dasharray="5, 5" x1="416.0" y1="0" x2="600" y2="0" /><circle cx="620" cy="0" r="15.898552607988469" fill="none" stroke="#149cd0" stroke-width="1" /><circle cx="660" cy="0" r="8.157363028596903" fill="#149cd0" stroke="#149cd0" stroke-width="1" /><path d="M 704.82,-15.99 A 705.00 705.00 0 0 1 704.82,15.99 L 689.82,15.65 A 690.00 690.00 0 0 0 689.82,-15.65 Z" fill="#ffffff" stroke="#6b6b6b" stroke-width="1" /></g><g transform="rotate(-3.7383177570093284)"><path d="M 299.92,-6.81 A 300.00 300.00 0 0 1 299.92,6.81 L 131.97,2.99 A 132.00 132.00 0 0 0 131.97,-2.99 Z" /><text x="330" y="5" font-family="Candara" font-size="18" alignment-baseline="middle">SonicVibe Mechanicals</text><line stroke="black" stroke-width="1" stroke-dasharray="5, 5" x1="512.0" y1="0" x2="600" y2="0" /><path d="M 326.00,0.00 L 322.05,2.94 L 320.47,7.61 L 316.45,4.76 L 311.53,4.70 L 313.00,0.00 L 311.53,-4.70 L 316.45,-4.76 L 320.47,-7.61 L 322.05,-2.94 Z" fill="none" stroke="#149cd0" stroke-width="1" /><circle cx="620" cy="0" r="10.759037048705888" fill="none" stroke="#149cd0" stroke-width="1" /><circle cx="660" cy="0" r="10.126582361296418" fill="#149cd0" stroke="#149cd0" stroke-width="1" /><path d="M 704.82,-15.99 A 705.00 705.00 0 0 1 704.82,15.99 L 689.82,15.65 A 690.00 690.00 0 0 0 689.82,-15.65 Z" fill="#f4f5f7" stroke="#6b6b6b" stroke-width="1" /></g><g transform="rotate(-0.5607476635513846)"><path d="M 299.92,-6.81 A 300.00 300.00 0 0 1 299.92,6.81 L 299.92,6.81 A 300.00 300.00 0 0 0 299.92,-6.81 Z" /><text x="330" y="5" font-family="Candara" font-size="18" alignment-baseline="middle">DynamoWorks</text><line stroke="black" stroke-width="1" stroke-dasharray="5, 5" x1="453.0" y1="0" x2="600" y2="0" /><path d="M 326.00,0.00 L 322.05,2.94 L 320.47,7.61 L 316.45,4.76 L 311.53,4.70 L 313.00,0.00 L 311.53,-4.70 L 316.45,-4.76 L 320.47,-7.61 L 322.05,-2.94 Z" fill="none" stroke="#149cd0" stroke-width="1" /><circle cx="620" cy="0" r="5.167617664110528" fill="none" stroke="#149cd0" stroke-width="1" /><circle cx="660" cy="0" r="5.811099417706617" fill="#149cd0" stroke="#149cd0" stroke-width="1" /><path d="M 704.82,-15.99 A 705.00 705.00 0 0 1 704.82,15.99 L 689.82,15.65 A 690.00 690.00 0 0 0 689.82,-15.65 Z" fill="#ffffff" stroke="#6b6b6b" stroke-width="1" /></g><g transform="rotate(2.616822429906559)"><path d="M 299.92,-6.81 A 300.00 300.00 0 0 1 299.92,6.81 L 275.93,6.26 A 276.00 276.00 0 0 0 275.93,-6.26 Z" /><text x="330" y="5" font-family="Candara" font-size="18" alignment-baseline="middle">ElectroLink Global</text><line stroke="black" stroke-width="1" stroke-dasharray="5, 5" x1="476.0" y1="0" x2="600" y2="0" /><circle cx="620" cy="0" r="11.380873859694482" fill="none" stroke="#149cd0" stroke-width="1" /><circle cx="660" cy="0" r="12.700998346113483" fill="#149cd0" stroke="#149cd0" stroke-width="1" /><path d="M 704.82,-15.99 A 705.00 705.00 0 0 1 704.82,15.99 L 689.82,15.65 A 690.00 690.00 0 0 0 689.82,-15.65 Z" fill="#fdfdfd" stroke="#6b6b6b" stroke-width="1" /></g><g transform="rotate(5.794392523364503)"><path d="M 299.92,-6.81 A 300.00 300.00 0 0 1 299.92,6.81 L 293.92,6.67 A 294.00 294.00 0 0 0 293.92,-6.67 Z" /><text x="330" y="5" font-family="Candara" font-size="18" alignment-baseline="middle">SurgeTech Manufacturing</text><line stroke="black" stroke-width="1" stroke-dasharray="5, 5" x1="537.0" y1="0" x2="600" y2="0" /><path d="M 326.00,0.00 L 322.05,2.94 L 320.47,7.61 L 316.45,4.76 L 311.53,4.70 L 313.00,0.00 L 311.53,-4.70 L 316.45,-4.76 L 320.47,-7.61 L 322.05,-2.94 Z" fill="#149cd0" stroke="#149cd0" stroke-width="1" /><circle cx="620" cy="0" r="10.533737969116617" fill="none" stroke="#149cd0" stroke-width="1" /><circle cx="660" cy="0" r="15.884482318397724" fill="#149cd0" stroke="#149cd0" stroke-width="1" /><path d="M 704.82,-15.99 A 705.00 705.00 0 0 1 704.82,15.99 L 689.82,15.65 A 690.00 690.00 0 0 0 689.82,-15.65 Z" fill="#f2f4f5" stroke="#6b6b6b" stroke-width="1" /></g><g transform="rotate(8.971962616822447)"><path d="M 299.92,-6.81 A 300.00 300.00 0 0 1 299.92,6.81 L 272.93,6.19 A 273.00 273.00 0 0 0 272.93,-6.19 Z" /><text x="330" y="5" font-family="Candara" font-size="18" alignment-baseline="middle">Axilift Automation</text><line stroke="black" stroke-width="1" stroke-dasharray="5, 5" x1="479.0" y1="0" x2="600" y2="0" /><path d="M 326.00,0.00 L 322.05,2.94 L 320.47,7.61 L 316.45,4.76 L 311.53,4.70 L 313.00,0.00 L 311.53,-4.70 L 316.45,-4.76 L 320.47,-7.61 L 322.05,-2.94 Z" fill="#149cd0" stroke="#149cd0" stroke-width="1" /><circle cx="620" cy="0" r="12.002585618641943" fill="none" stroke="#149cd0" stroke-width="1" /><circle cx="660" cy="0" r="15.27245740517526" fill="#149cd0" stroke="#149cd0" stroke-width="1" /><path d="M 704.82,-15.99 A 705.00 705.00 0 0 1 704.82,15.99 L 689.82,15.65 A 690.00 690.00 0 0 0 689.82,-15.65 Z" fill="#dee2e6" stroke="#6b6b6b" stroke-width="1" /></g><g transform="rotate(12.14953271028039)"><path d="M 299.92,-6.81 A 300.00 300.00 0 0 1 299.92,6.81 L 299.92,6.81 A 300.00 300.00 0 0 0 299.92,-6.81 Z" /><text x="330" y="5" font-family="Candara" font-size="18" alignment-baseline="middle">ApexCircuit Dynamics</text><line stroke="black" stroke-width="1" stroke-dasharray="5, 5" x1="505.0" y1="0" x2="600" y2="0" /><circle cx="620" cy="0" r="13.305501824244176" fill="none" stroke="#149cd0" stroke-width="1" /><circle cx="660" cy="0" r="6.18529330870119" fill="#149cd0" stroke="#149cd0" stroke-width="1" /><path d="M 704.82,-15.99 A 705.00 705.00 0 0 1 704.82,15.99 L 689.82,15.65 A 690.00 690.00 0 0 0 689.82,-15.65 Z" fill="#ffffff" stroke="#6b6b6b" stroke-width="1" /></g><g transform="rotate(15.327102803738335)"><path d="M 299.92,-6.81 A 300.00 300.00 0 0 1 299.92,6.81 L 281.93,6.40 A 282.00 282.00 0 0 0 281.93,-6.40 Z" /><text x="330" y="5" font-family="Candara" font-size="18" alignment-baseline="middle">GearNova Engineering</text><line stroke="black" stroke-width="1" stroke-dasharray="5, 5" x1="510.0" y1="0" x2="600" y2="0" /><path d="M 326.00,0.00 L 322.05,2.94 L 320.47,7.61 L 316.45,4.76 L 311.53,4.70 L 313.00,0.00 L 311.53,-4.70 L 316.45,-4.76 L 320.47,-7.61 L 322.05,-2.94 Z" fill="none" stroke="#149cd0" stroke-width="1" /><circle cx="620" cy="0" r="15.86957153580449" fill="none" stroke="#149cd0" stroke-width="1" /><circle cx="660" cy="0" r="15.573056564882155" fill="#149cd0" stroke="#149cd0" stroke-width="1" /><path d="M 704.82,-15.99 A 705.00 705.00 0 0 1 704.82,15.99 L 689.82,15.65 A 690.00 690.00 0 0 0 689.82,-15.65 Z" fill="#aab4bf" stroke="#6b6b6b" stroke-width="1" /></g><g transform="rotate(18.50467289719628)"><path d="M 299.92,-6.81 A 300.00 300.00 0 0 1 299.92,6.81 L 218.94,4.97 A 219.00 219.00 0 0 0 218.94,-4.97 Z" /><text x="330" y="5" font-family="Candara" font-size="18" alignment-baseline="middle">MagnaFlow Tech</text><line stroke="black" stroke-width="1" stroke-dasharray="5, 5" x1="470.0" y1="0" x2="600" y2="0" /><path d="M 312.34,2.83 L 315.17,5.66 L 318.00,2.83 L 320.83,5.66 L 323.66,2.83 L 320.83,0.00 L 323.66,-2.83 L 320.83,-5.66 L 318.00,-2.83 L 315.17,-5.66 L 312.34,-2.83 L 315.17,0.00 Z" fill="#9e2a29" stroke="#9e2a29" stroke-width="1" /><circle cx="620" cy="0" r="3.660101613243149" fill="none" stroke="#149cd0" stroke-width="1" /><circle cx="660" cy="0" r="14.863292507028373" fill="#149cd0" stroke="#149cd0" stroke-width="1" /><path d="M 704.82,-15.99 A 705.00 705.00 0 0 1 704.82,15.99 L 689.82,15.65 A 690.00 690.00 0 0 0 689.82,-15.65 Z" fill="#f3f4f6" stroke="#6b6b6b" stroke-width="1" /></g><g transform="rotate(21.682242990654224)"><path d="M 299.92,-6.81 A 300.00 300.00 0 0 1 299.92,6.81 L 269.93,6.13 A 270.00 270.00 0 0 0 269.93,-6.13 Z" /><text x="330" y="5" font-family="Candara" font-size="18" alignment-baseline="middle">VectorVoltage</text><line stroke="black" stroke-width="1" stroke-dasharray="5, 5" x1="447.0" y1="0" x2="600" y2="0" /><path d="M 326.00,0.00 L 322.05,2.94 L 320.47,7.61 L 316.45,4.76 L 311.53,4.70 L 313.00,0.00 L 311.53,-4.70 L 316.45,-4.76 L 320.47,-7.61 L 322.05,-2.94 Z" fill="#149cd0" stroke="#149cd0" stroke-width="1" /><circle cx="620" cy="0" r="12.714992138129562" fill="none" stroke="#149cd0" stroke-width="1" /><circle cx="660" cy="0" r="15.199011680434884" fill="#149cd0" stroke="#149cd0" stroke-width="1" /><path d="M 704.82,-15.99 A 705.00 705.00 0 0 1 704.82,15.99 L 689.82,15.65 A 690.00 690.00 0 0 0 689.82,-15.65 Z" fill="#f9fafb" stroke="#6b6b6b" stroke-width="1" /></g><g transform="rotate(24.85981308411217)"><path d="M 299.92,-6.81 A 300.00 300.00 0 0 1 299.92,6.81 L 227.94,5.17 A 228.00 228.00 0 0 0 227.94,-5.17 Z" /><text x="330" y="5" font-family="Candara" font-size="18" alignment-baseline="middle">TektonDrive Systems</text><line stroke="black" stroke-width="1" stroke-dasharray="5, 5" x1="500.0" y1="0" x2="600" y2="0" /><path d="M 326.00,0.00 L 322.05,2.94 L 320.47,7.61 L 316.45,4.76 L 311.53,4.70 L 313.00,0.00 L 311.53,-4.70 L 316.45,-4.76 L 320.47,-7.61 L 322.05,-2.94 Z" fill="none" stroke="#149cd0" stroke-width="1" /><circle cx="620" cy="0" r="3.5033209707047126" fill="none" stroke="#149cd0" stroke-width="1" /><circle cx="660" cy="0" r="9.87085748224016" fill="#149cd0" stroke="#149cd0" stroke-width="1" /><path d="M 704.82,-15.99 A 705.00 705.00 0 0 1 704.82,15.99 L 689.82,15.65 A 690.00 690.00 0 0 0 689.82,-15.65 Z" fill="#f8f8f9" stroke="#6b6b6b" stroke-width="1" /></g><g transform="rotate(28.037383177570113)"><path d="M 299.92,-6.81 A 300.00 300.00 0 0 1 299.92,6.81 L 290.93,6.60 A 291.00 291.00 0 0 0 290.93,-6.60 Z" /><text x="330" y="5" font-family="Candara" font-size="18" alignment-baseline="middle">FissionMotion</text><line stroke="black" stroke-width="1" stroke-dasharray="5, 5" x1="448.0" y1="0" x2="600" y2="0" /><circle cx="620" cy="0" r="10.085231670042111" fill="none" stroke="#149cd0" stroke-width="1" /><circle cx="660" cy="0" r="14.15029720924752" fill="#149cd0" stroke="#149cd0" stroke-width="1" /><path d="M 704.82,-15.99 A 705.00 705.00 0 0 1 704.82,15.99 L 689.82,15.65 A 690.00 690.00 0 0 0 689.82,-15.65 Z" fill="#fbfcfc" stroke="#6b6b6b" stroke-width="1" /></g><g transform="rotate(31.214953271028058)"><path d="M 299.92,-6.81 A 300.00 300.00 0 0 1 299.92,6.81 L 287.93,6.53 A 288.00 288.00 0 0 0 287.93,-6.53 Z" /><text x="330" y="5" font-family="Candara" font-size="18" alignment-baseline="middle">GravityGear Solutions</text><line stroke="black" stroke-width="1" stroke-dasharray="5, 5" x1="503.0" y1="0" x2="600" y2="0" /><path d="M 326.00,0.00 L 322.05,2.94 L 320.47,7.61 L 316.45,4.76 L 311.53,4.70 L 313.00,0.00 L 311.53,-4.70 L 316.45,-4.76 L 320.47,-7.61 L 322.05,-2.94 Z" fill="#149cd0" stroke="#149cd0" stroke-width="1" /><circle cx="620" cy="0" r="15.389636823818364" fill="none" stroke="#149cd0" stroke-width="1" /><circle cx="660" cy="0" r="9.007203700764935" fill="#149cd0" stroke="#149cd0" stroke-width="1" /><path d="M 704.82,-15.99 A 705.00 705.00 0 0 1 704.82,15.99 L 689.82,15.65 A 690.00 690.00 0 0 0 689.82,-15.65 Z" fill="#eef0f2" stroke="#6b6b6b" stroke-width="1" /></g><g transform="rotate(34.392523364486)"><path d="M 299.92,-6.81 A 300.00 300.00 0 0 1 299.92,6.81 L 299.92,6.81 A 300.00 300.00 0 0 0 299.92,-6.81 Z" /><text x="330" y="5" font-family="Candara" font-size="18" alignment-baseline="middle">HelixSpark Mechanics</text><line stroke="black" stroke-width="1" stroke-dasharray="5, 5" x1="506.0" y1="0" x2="600" y2="0" /><circle cx="620" cy="0" r="13.909907686764932" fill="none" stroke="#149cd0" stroke-width="1" /><circle cx="660" cy="0" r="6.105325049869163" fill="#149cd0" stroke="#149cd0" stroke-width="1" /><path d="M 704.82,-15.99 A 705.00 705.00 0 0 1 704.82,15.99 L 689.82,15.65 A 690.00 690.00 0 0 0 689.82,-15.65 Z" fill="#ffffff" stroke="#6b6b6b" stroke-width="1" /></g><g transform="rotate(37.57009345794395)"><path d="M 299.92,-6.81 A 300.00 300.00 0 0 1 299.92,6.81 L 227.94,5.17 A 228.00 228.00 0 0 0 227.94,-5.17 Z" /><text x="330" y="5" font-family="Candara" font-size="18" alignment-baseline="middle">EquinoxTorque</text><line stroke="black" stroke-width="1" stroke-dasharray="5, 5" x1="456.0" y1="0" x2="600" y2="0" /><path d="M 326.00,0.00 L 322.05,2.94 L 320.47,7.61 L 316.45,4.76 L 311.53,4.70 L 313.00,0.00 L 311.53,-4.70 L 316.45,-4.76 L 320.47,-7.61 L 322.05,-2.94 Z" fill="none" stroke="#149cd0" stroke-width="1" /><circle cx="620" cy="0" r="4.7213722279725046" fill="none" stroke="#149cd0" stroke-width="1" /><circle cx="660" cy="0" r="7.197293468196628" fill="#149cd0" stroke="#149cd0" stroke-width="1" /><path d="M 704.82,-15.99 A 705.00 705.00 0 0 1 704.82,15.99 L 689.82,15.65 A 690.00 690.00 0 0 0 689.82,-15.65 Z" fill="#f0f2f4" stroke="#6b6b6b" stroke-width="1" /></g><g transform="rotate(40.74766355140189)"><path d="M 299.92,-6.81 A 300.00 300.00 0 0 1 299.92,6.81 L 299.92,6.81 A 300.00 300.00 0 0 0 299.92,-6.81 Z" /><text x="330" y="5" font-family="Candara" font-size="18" alignment-baseline="middle">ProtoDrive Industries</text><line stroke="black" stroke-width="1" stroke-dasharray="5, 5" x1="502.0" y1="0" x2="600" y2="0" /><circle cx="620" cy="0" r="8.251316644389796" fill="none" stroke="#149cd0" stroke-width="1" /><circle cx="660" cy="0" r="8.550803339339327" fill="#149cd0" stroke="#149cd0" stroke-width="1" /><path d="M 704.82,-15.99 A 705.00 705.00 0 0 1 704.82,15.99 L 689.82,15.65 A 690.00 690.00 0 0 0 689.82,-15.65 Z" fill="#ffffff" stroke="#6b6b6b" stroke-width="1" /></g><g transform="rotate(43.92523364485984)"><path d="M 299.92,-6.81 A 300.00 300.00 0 0 1 299.92,6.81 L 215.94,4.90 A 216.00 216.00 0 0 0 215.94,-4.90 Z" /><text x="330" y="5" font-family="Candara" font-size="18" alignment-baseline="middle">AeroNexus Tech</text><line stroke="black" stroke-width="1" stroke-dasharray="5, 5" x1="464.0" y1="0" x2="600" y2="0" /><path d="M 326.00,0.00 L 322.05,2.94 L 320.47,7.61 L 316.45,4.76 L 311.53,4.70 L 313.00,0.00 L 311.53,-4.70 L 316.45,-4.76 L 320.47,-7.61 L 322.05,-2.94 Z" fill="#149cd0" stroke="#149cd0" stroke-width="1" /><circle cx="620" cy="0" r="15.008746119950626" fill="none" stroke="#149cd0" stroke-width="1" /><circle cx="660" cy="0" r="7.653275327837548" fill="#149cd0" stroke="#149cd0" stroke-width="1" /><path d="M 704.82,-15.99 A 705.00 705.00 0 0 1 704.82,15.99 L 689.82,15.65 A 690.00 690.00 0 0 0 689.82,-15.65 Z" fill="#6d7f92" stroke="#6b6b6b" stroke-width="1" /></g><g transform="rotate(47.10280373831778)"><path d="M 299.92,-6.81 A 300.00 300.00 0 0 1 299.92,6.81 L 116.97,2.65 A 117.00 117.00 0 0 0 116.97,-2.65 Z" /><text x="330" y="5" font-family="Candara" font-size="18" alignment-baseline="middle">Electronova Solutions</text><line stroke="black" stroke-width="1" stroke-dasharray="5, 5" x1="505.0" y1="0" x2="600" y2="0" /><circle cx="620" cy="0" r="5.699220931180043" fill="none" stroke="#149cd0" stroke-width="1" /><circle cx="660" cy="0" r="13.351577173037668" fill="#149cd0" stroke="#149cd0" stroke-width="1" /><path d="M 704.82,-15.99 A 705.00 705.00 0 0 1 704.82,15.99 L 689.82,15.65 A 690.00 690.00 0 0 0 689.82,-15.65 Z" fill="#f8f9fa" stroke="#6b6b6b" stroke-width="1" /></g><g transform="rotate(50.28037383177573)"><path d="M 299.92,-6.81 A 300.00 300.00 0 0 1 299.92,6.81 L 236.94,5.38 A 237.00 237.00 0 0 0 236.94,-5.38 Z" /><text x="330" y="5" font-family="Candara" font-size="18" alignment-baseline="middle">GearCore Global</text><line stroke="black" stroke-width="1" stroke-dasharray="5, 5" x1="462.0" y1="0" x2="600" y2="0" /><path d="M 326.00,0.00 L 322.05,2.94 L 320.47,7.61 L 316.45,4.76 L 311.53,4.70 L 313.00,0.00 L 311.53,-4.70 L 316.45,-4.76 L 320.47,-7.61 L 322.05,-2.94 Z" fill="none" stroke="#149cd0" stroke-width="1" /><circle cx="620" cy="0" r="9.366207741077" fill="none" stroke="#149cd0" stroke-width="1" /><circle cx="660" cy="0" r="13.920964404946496" fill="#149cd0" stroke="#149cd0" stroke-width="1" /><path d="M 704.82,-15.99 A 705.00 705.00 0 0 1 704.82,15.99 L 689.82,15.65 A 690.00 690.00 0 0 0 689.82,-15.65 Z" fill="#fbfbfc" stroke="#6b6b6b" stroke-width="1" /></g><g transform="rotate(53.45794392523367)"><path d="M 299.92,-6.81 A 300.00 300.00 0 0 1 299.92,6.81 L 236.94,5.38 A 237.00 237.00 0 0 0 236.94,-5.38 Z" /><text x="330" y="5" font-family="Candara" font-size="18" alignment-baseline="middle">InnoMotion Systems</text><line stroke="black" stroke-width="1" stroke-dasharray="5, 5" x1="497.0" y1="0" x2="600" y2="0" /><circle cx="620" cy="0" r="9.561719503231123" fill="none" stroke="#149cd0" stroke-width="1" /><circle cx="660" cy="0" r="7.25564418612481" fill="#149cd0" stroke="#149cd0" stroke-width="1" /><path d="M 704.82,-15.99 A 705.00 705.00 0 0 1 704.82,15.99 L 689.82,15.65 A 690.00 690.00 0 0 0 689.82,-15.65 Z" fill="#f1f3f4" stroke="#6b6b6b" stroke-width="1" /></g><g transform="rotate(56.635514018691616)"><path d="M 299.92,-6.81 A 300.00 300.00 0 0 1 299.92,6.81 L 245.94,5.58 A 246.00 246.00 0 0 0 245.94,-5.58 Z" /><text x="330" y="5" font-family="Candara" font-size="18" alignment-baseline="middle">ElectroQuantum</text><line stroke="black" stroke-width="1" stroke-dasharray="5, 5" x1="464.0" y1="0" x2="600" y2="0" /><path d="M 326.00,0.00 L 322.05,2.94 L 320.47,7.61 L 316.45,4.76 L 311.53,4.70 L 313.00,0.00 L 311.53,-4.70 L 316.45,-4.76 L 320.47,-7.61 L 322.05,-2.94 Z" fill="none" stroke="#149cd0" stroke-width="1" /><circle cx="620" cy="0" r="10.06212881761074" fill="none" stroke="#149cd0" stroke-width="1" /><circle cx="660" cy="0" r="7.536359646446238" fill="#149cd0" stroke="#149cd0" stroke-width="1" /><path d="M 704.82,-15.99 A 705.00 705.00 0 0 1 704.82,15.99 L 689.82,15.65 A 690.00 690.00 0 0 0 689.82,-15.65 Z" fill="#f6f7f8" stroke="#6b6b6b" stroke-width="1" /></g><g transform="rotate(59.81308411214956)"><path d="M 299.92,-6.81 A 300.00 300.00 0 0 1 299.92,6.81 L 230.94,5.24 A 231.00 231.00 0 0 0 230.94,-5.24 Z" /><text x="330" y="5" font-family="Candara" font-size="18" alignment-baseline="middle">TorqueForge Dynamics</text><line stroke="black" stroke-width="1" stroke-dasharray="5, 5" x1="516.0" y1="0" x2="600" y2="0" /><circle cx="620" cy="0" r="10.898713268639181" fill="none" stroke="#149cd0" stroke-width="1" /><circle cx="660" cy="0" r="15.370023818333474" fill="#149cd0" stroke="#149cd0" stroke-width="1" /><path d="M 704.82,-15.99 A 705.00 705.00 0 0 1 704.82,15.99 L 689.82,15.65 A 690.00 690.00 0 0 0 689.82,-15.65 Z" fill="#f6f7f8" stroke="#6b6b6b" stroke-width="1" /></g><g transform="rotate(62.990654205607505)"><path d="M 299.92,-6.81 A 300.00 300.00 0 0 1 299.92,6.81 L 299.92,6.81 A 300.00 300.00 0 0 0 299.92,-6.81 Z" /><text x="330" y="5" font-family="Candara" font-size="18" alignment-baseline="middle">Vibranix Innovations</text><line stroke="black" stroke-width="1" stroke-dasharray="5, 5" x1="497.0" y1="0" x2="600" y2="0" /><path d="M 326.00,0.00 L 322.05,2.94 L 320.47,7.61 L 316.45,4.76 L 311.53,4.70 L 313.00,0.00 L 311.53,-4.70 L 316.45,-4.76 L 320.47,-7.61 L 322.05,-2.94 Z" fill="none" stroke="#149cd0" stroke-width="1" /><circle cx="620" cy="0" r="14.090901702430662" fill="none" stroke="#149cd0" stroke-width="1" /><circle cx="660" cy="0" r="12.345712974331427" fill="#149cd0" stroke="#149cd0" stroke-width="1" /><path d="M 704.82,-15.99 A 705.00 705.00 0 0 1 704.82,15.99 L 689.82,15.65 A 690.00 690.00 0 0 0 689.82,-15.65 Z" fill="#ffffff" stroke="#6b6b6b" stroke-width="1" /></g><g transform="rotate(66.16822429906544)"><path d="M 299.92,-6.81 A 300.00 300.00 0 0 1 299.92,6.81 L 299.92,6.81 A 300.00 300.00 0 0 0 299.92,-6.81 Z" /><text x="330" y="5" font-family="Candara" font-size="18" alignment-baseline="middle">ApexDrive Mechanicals</text><line stroke="black" stroke-width="1" stroke-dasharray="5, 5" x1="517.0" y1="0" x2="600" y2="0" /><circle cx="620" cy="0" r="5.228655397071158" fill="none" stroke="#149cd0" stroke-width="1" /><circle cx="660" cy="0" r="4.275984365776406" fill="#149cd0" stroke="#149cd0" stroke-width="1" /><path d="M 704.82,-15.99 A 705.00 705.00 0 0 1 704.82,15.99 L 689.82,15.65 A 690.00 690.00 0 0 0 689.82,-15.65 Z" fill="#ffffff" stroke="#6b6b6b" stroke-width="1" /></g><g transform="rotate(69.34579439252339)"><path d="M 299.92,-6.81 A 300.00 300.00 0 0 1 299.92,6.81 L 299.92,6.81 A 300.00 300.00 0 0 0 299.92,-6.81 Z" /><text x="330" y="5" font-family="Candara" font-size="18" alignment-baseline="middle">KinetiFlow</text><line stroke="black" stroke-width="1" stroke-dasharray="5, 5" x1="421.0" y1="0" x2="600" y2="0" /><circle cx="620" cy="0" r="5.837581111576568" fill="none" stroke="#149cd0" stroke-width="1" /><circle cx="660" cy="0" r="11.533914404821758" fill="#149cd0" stroke="#149cd0" stroke-width="1" /><path d="M 704.82,-15.99 A 705.00 705.00 0 0 1 704.82,15.99 L 689.82,15.65 A 690.00 690.00 0 0 0 689.82,-15.65 Z" fill="#ffffff" stroke="#6b6b6b" stroke-width="1" /></g><g transform="rotate(72.52336448598133)"><path d="M 299.92,-6.81 A 300.00 300.00 0 0 1 299.92,6.81 L 218.94,4.97 A 219.00 219.00 0 0 0 218.94,-4.97 Z" /><text x="330" y="5" font-family="Candara" font-size="18" alignment-baseline="middle">MechNova Solutions</text><line stroke="black" stroke-width="1" stroke-dasharray="5, 5" x1="497.0" y1="0" x2="600" y2="0" /><circle cx="620" cy="0" r="16.0" fill="none" stroke="#149cd0" stroke-width="1" /><circle cx="660" cy="0" r="13.978096635578485" fill="#149cd0" stroke="#149cd0" stroke-width="1" /><path d="M 704.82,-15.99 A 705.00 705.00 0 0 1 704.82,15.99 L 689.82,15.65 A 690.00 690.00 0 0 0 689.82,-15.65 Z" fill="#f2f3f5" stroke="#6b6b6b" stroke-width="1" /></g><g transform="rotate(75.70093457943928)"><path d="M 299.92,-6.81 A 300.00 300.00 0 0 1 299.92,6.81 L 299.92,6.81 A 300.00 300.00 0 0 0 299.92,-6.81 Z" /><text x="330" y="5" font-family="Candara" font-size="18" alignment-baseline="middle">BioCircuitry Tech</text><line stroke="black" stroke-width="1" stroke-dasharray="5, 5" x1="467.0" y1="0" x2="600" y2="0" /><path d="M 326.00,0.00 L 322.05,2.94 L 320.47,7.61 L 316.45,4.76 L 311.53,4.70 L 313.00,0.00 L 311.53,-4.70 L 316.45,-4.76 L 320.47,-7.61 L 322.05,-2.94 Z" fill="none" stroke="#149cd0" stroke-width="1" /><circle cx="620" cy="0" r="11.707575676566993" fill="none" stroke="#149cd0" stroke-width="1" /><circle cx="660" cy="0" r="13.469908092703527" fill="#149cd0" stroke="#149cd0" stroke-width="1" /><path d="M 704.82,-15.99 A 705.00 705.00 0 0 1 704.82,15.99 L 689.82,15.65 A 690.00 690.00 0 0 0 689.82,-15.65 Z" fill="#ffffff" stroke="#6b6b6b" stroke-width="1" /></g><g transform="rotate(78.87850467289722)"><path d="M 299.92,-6.81 A 300.00 300.00 0 0 1 299.92,6.81 L 266.93,6.06 A 267.00 267.00 0 0 0 266.93,-6.06 Z" /><text x="330" y="5" font-family="Candara" font-size="18" alignment-baseline="middle">ArcLight Mechanicals</text><line stroke="black" stroke-width="1" stroke-dasharray="5, 5" x1="502.0" y1="0" x2="600" y2="0" /><circle cx="620" cy="0" r="11.178216246510384" fill="none" stroke="#149cd0" stroke-width="1" /><circle cx="660" cy="0" r="9.318451984652585" fill="#149cd0" stroke="#149cd0" stroke-width="1" /><path d="M 704.82,-15.99 A 705.00 705.00 0 0 1 704.82,15.99 L 689.82,15.65 A 690.00 690.00 0 0 0 689.82,-15.65 Z" fill="#f3f5f6" stroke="#6b6b6b" stroke-width="1" /></g><g transform="rotate(82.05607476635517)"><path d="M 299.92,-6.81 A 300.00 300.00 0 0 1 299.92,6.81 L 299.92,6.81 A 300.00 300.00 0 0 0 299.92,-6.81 Z" /><text x="330" y="5" font-family="Candara" font-size="18" alignment-baseline="middle">PowerStride Systems</text><line stroke="black" stroke-width="1" stroke-dasharray="5, 5" x1="500.0" y1="0" x2="600" y2="0" /><path d="M 326.00,0.00 L 322.05,2.94 L 320.47,7.61 L 316.45,4.76 L 311.53,4.70 L 313.00,0.00 L 311.53,-4.70 L 316.45,-4.76 L 320.47,-7.61 L 322.05,-2.94 Z" fill="none" stroke="#149cd0" stroke-width="1" /><circle cx="620" cy="0" r="11.17611494550903" fill="none" stroke="#149cd0" stroke-width="1" /><circle cx="660" cy="0" r="13.9154568781781" fill="#149cd0" stroke="#149cd0" stroke-width="1" /><path d="M 704.82,-15.99 A 705.00 705.00 0 0 1 704.82,15.99 L 689.82,15.65 A 690.00 690.00 0 0 0 689.82,-15.65 Z" fill="#ffffff" stroke="#6b6b6b" stroke-width="1" /></g><g transform="rotate(85.23364485981311)"><path d="M 299.92,-6.81 A 300.00 300.00 0 0 1 299.92,6.81 L 263.93,5.99 A 264.00 264.00 0 0 0 263.93,-5.99 Z" /><text x="330" y="5" font-family="Candara" font-size="18" alignment-baseline="middle">AlloyMeld Foundry</text><line stroke="black" stroke-width="1" stroke-dasharray="5, 5" x1="482.0" y1="0" x2="600" y2="0" /><circle cx="620" cy="0" r="9.10487302563305" fill="none" stroke="#149cd0" stroke-width="1" /><circle cx="660" cy="0" r="13.818548629458576" fill="#149cd0" stroke="#149cd0" stroke-width="1" /><path d="M 704.82,-15.99 A 705.00 705.00 0 0 1 704.82,15.99 L 689.82,15.65 A 690.00 690.00 0 0 0 689.82,-15.65 Z" fill="#f6f7f8" stroke="#6b6b6b" stroke-width="1" /></g><g transform="rotate(88.41121495327106)"><path d="M 299.92,-6.81 A 300.00 300.00 0 0 1 299.92,6.81 L 296.92,6.74 A 297.00 297.00 0 0 0 296.92,-6.74 Z" /><text x="330" y="5" font-family="Candara" font-size="18" alignment-baseline="middle">TerraCast Metals</text><line stroke="black" stroke-width="1" stroke-dasharray="5, 5" x1="467.0" y1="0" x2="600" y2="0" /><circle cx="620" cy="0" r="5.040870437602288" fill="none" stroke="#149cd0" stroke-width="1" /><circle cx="660" cy="0" r="15.465698579525911" fill="#149cd0" stroke="#149cd0" stroke-width="1" /><path d="M 704.82,-15.99 A 705.00 705.00 0 0 1 704.82,15.99 L 689.82,15.65 A 690.00 690.00 0 0 0 689.82,-15.65 Z" fill="#e3e6ea" stroke="#6b6b6b" stroke-width="1" /></g><g transform="rotate(91.588785046729)"><path d="M 299.92,-6.81 A 300.00 300.00 0 0 1 299.92,6.81 L 251.94,5.72 A 252.00 252.00 0 0 0 251.94,-5.72 Z" /><text x="330" y="5" text-anchor="end" font-family="Candara" font-size="18" transform="rotate(180, 330, 0)">CopperEdge Casting</text><line stroke="black" stroke-width="1" stroke-dasharray="5, 5" x1="494.0" y1="0" x2="600" y2="0" /><path d="M 326.00,0.00 L 322.05,2.94 L 320.47,7.61 L 316.45,4.76 L 311.53,4.70 L 313.00,0.00 L 311.53,-4.70 L 316.45,-4.76 L 320.47,-7.61 L 322.05,-2.94 Z" fill="none" stroke="#149cd0" stroke-width="1" /><circle cx="620" cy="0" r="14.892324215380988" fill="none" stroke="#149cd0" stroke-width="1" /><circle cx="660" cy="0" r="10.99891883494178" fill="#149cd0" stroke="#149cd0" stroke-width="1" /><path d="M 704.82,-15.99 A 705.00 705.00 0 0 1 704.82,15.99 L 689.82,15.65 A 690.00 690.00 0 0 0 689.82,-15.65 Z" fill="#dde1e5" stroke="#6b6b6b" stroke-width="1" /></g><g transform="rotate(94.76635514018695)"><path d="M 299.92,-6.81 A 300.00 300.00 0 0 1 299.92,6.81 L 218.94,4.97 A 219.00 219.00 0 0 0 218.94,-4.97 Z" /><text x="330" y="5" text-anchor="end" font-family="Candara" font-size="18" transform="rotate(180, 330, 0)">MeridianAlloy Foundry</text><line stroke="black" stroke-width="1" stroke-dasharray="5, 5" x1="511.0" y1="0" x2="600" y2="0" /><path d="M 326.00,0.00 L 322.05,2.94 L 320.47,7.61 L 316.45,4.76 L 311.53,4.70 L 313.00,0.00 L 311.53,-4.70 L 316.45,-4.76 L 320.47,-7.61 L 322.05,-2.94 Z" fill="none" stroke="#149cd0" stroke-width="1" /><circle cx="620" cy="0" r="7.224101930175257" fill="none" stroke="#149cd0" stroke-width="1" /><circle cx="660" cy="0" r="7.073341277280185" fill="#149cd0" stroke="#149cd0" stroke-width="1" /><path d="M 704.82,-15.99 A 705.00 705.00 0 0 1 704.82,15.99 L 689.82,15.65 A 690.00 690.00 0 0 0 689.82,-15.65 Z" fill="#f9f9fa" stroke="#6b6b6b" stroke-width="1" /></g><g transform="rotate(97.94392523364489)"><path d="M 299.92,-6.81 A 300.00 300.00 0 0 1 299.92,6.81 L 215.94,4.90 A 216.00 216.00 0 0 0 215.94,-4.90 Z" /><text x="330" y="5" text-anchor="end" font-family="Candara" font-size="18" transform="rotate(180, 330, 0)">BrassWorks Innovations</text><line stroke="black" stroke-width="1" stroke-dasharray="5, 5" x1="526.0" y1="0" x2="600" y2="0" /><path d="M 326.00,0.00 L 322.05,2.94 L 320.47,7.61 L 316.45,4.76 L 311.53,4.70 L 313.00,0.00 L 311.53,-4.70 L 316.45,-4.76 L 320.47,-7.61 L 322.05,-2.94 Z" fill="none" stroke="#149cd0" stroke-width="1" /><circle cx="620" cy="0" r="6.8270742785732805" fill="none" stroke="#149cd0" stroke-width="1" /><circle cx="660" cy="0" r="16.0" fill="#149cd0" stroke="#149cd0" stroke-width="1" /><path d="M 704.82,-15.99 A 705.00 705.00 0 0 1 704.82,15.99 L 689.82,15.65 A 690.00 690.00 0 0 0 689.82,-15.65 Z" fill="#f4f5f7" stroke="#6b6b6b" stroke-width="1" /></g><g transform="rotate(101.12149532710283)"><path d="M 299.92,-6.81 A 300.00 300.00 0 0 1 299.92,6.81 L 245.94,5.58 A 246.00 246.00 0 0 0 245.94,-5.58 Z" /><text x="330" y="5" text-anchor="end" font-family="Candara" font-size="18" transform="rotate(180, 330, 0)">AluFusion Foundry</text><line stroke="black" stroke-width="1" stroke-dasharray="5, 5" x1="483.0" y1="0" x2="600" y2="0" /><circle cx="620" cy="0" r="10.830598725822414" fill="none" stroke="#149cd0" stroke-width="1" /><circle cx="660" cy="0" r="11.90177396257106" fill="#149cd0" stroke="#149cd0" stroke-width="1" /><path d="M 704.82,-15.99 A 705.00 705.00 0 0 1 704.82,15.99 L 689.82,15.65 A 690.00 690.00 0 0 0 689.82,-15.65 Z" fill="#f0f1f3" stroke="#6b6b6b" stroke-width="1" /></g><g transform="rotate(104.29906542056078)"><path d="M 299.92,-6.81 A 300.00 300.00 0 0 1 299.92,6.81 L 299.92,6.81 A 300.00 300.00 0 0 0 299.92,-6.81 Z" /><text x="330" y="5" text-anchor="end" font-family="Candara" font-size="18" transform="rotate(180, 330, 0)">Galvanex Casting</text><line stroke="black" stroke-width="1" stroke-dasharray="5, 5" x1="471.0" y1="0" x2="600" y2="0" /><path d="M 312.34,2.83 L 315.17,5.66 L 318.00,2.83 L 320.83,5.66 L 323.66,2.83 L 320.83,0.00 L 323.66,-2.83 L 320.83,-5.66 L 318.00,-2.83 L 315.17,-5.66 L 312.34,-2.83 L 315.17,0.00 Z" fill="#9e2a29" stroke="#9e2a29" stroke-width="1" /><circle cx="620" cy="0" r="13.639674119569326" fill="none" stroke="#149cd0" stroke-width="1" /><circle cx="660" cy="0" r="12.628794735540124" fill="#149cd0" stroke="#149cd0" stroke-width="1" /><path d="M 704.82,-15.99 A 705.00 705.00 0 0 1 704.82,15.99 L 689.82,15.65 A 690.00 690.00 0 0 0 689.82,-15.65 Z" fill="#ffffff" stroke="#6b6b6b" stroke-width="1" /></g><g transform="rotate(107.47663551401872)"><path d="M 299.92,-6.81 A 300.00 300.00 0 0 1 299.92,6.81 L 227.94,5.17 A 228.00 228.00 0 0 0 227.94,-5.17 Z" /><text x="330" y="5" text-anchor="end" font-family="Candara" font-size="18" transform="rotate(180, 330, 0)">CobaltFlow Foundry</text><line stroke="black" stroke-width="1" stroke-dasharray="5, 5" x1="493.0" y1="0" x2="600" y2="0" /><path d="M 326.00,0.00 L 322.05,2.94 L 320.47,7.61 L 316.45,4.76 L 311.53,4.70 L 313.00,0.00 L 311.53,-4.70 L 316.45,-4.76 L 320.47,-7.61 L 322.05,-2.94 Z" fill="#149cd0" stroke="#149cd0" stroke-width="1" /><circle cx="620" cy="0" r="8.306250532801116" fill="none" stroke="#149cd0" stroke-width="1" /><circle cx="660" cy="0" r="11.939992883637748" fill="#149cd0" stroke="#149cd0" stroke-width="1" /><path d="M 704.82,-15.99 A 705.00 705.00 0 0 1 704.82,15.99 L 689.82,15.65 A 690.00 690.00 0 0 0 689.82,-15.65 Z" fill="#f7f8f9" stroke="#6b6b6b" stroke-width="1" /></g><g transform="rotate(110.65420560747667)"><path d="M 299.92,-6.81 A 300.00 300.00 0 0 1 299.92,6.81 L 257.93,5.85 A 258.00 258.00 0 0 0 257.93,-5.85 Z" /><text x="330" y="5" text-anchor="end" font-family="Candara" font-size="18" transform="rotate(180, 330, 0)">Argo Casting Solutions</text><line stroke="black" stroke-width="1" stroke-dasharray="5, 5" x1="513.0" y1="0" x2="600" y2="0" /><path d="M 326.00,0.00 L 322.05,2.94 L 320.47,7.61 L 316.45,4.76 L 311.53,4.70 L 313.00,0.00 L 311.53,-4.70 L 316.45,-4.76 L 320.47,-7.61 L 322.05,-2.94 Z" fill="none" stroke="#149cd0" stroke-width="1" /><circle cx="620" cy="0" r="5.455359305975087" fill="none" stroke="#149cd0" stroke-width="1" /><circle cx="660" cy="0" r="14.961430786608059" fill="#149cd0" stroke="#149cd0" stroke-width="1" /><path d="M 704.82,-15.99 A 705.00 705.00 0 0 1 704.82,15.99 L 689.82,15.65 A 690.00 690.00 0 0 0 689.82,-15.65 Z" fill="#fdfdfd" stroke="#6b6b6b" stroke-width="1" /></g><g transform="rotate(113.83177570093461)"><path d="M 299.92,-6.81 A 300.00 300.00 0 0 1 299.92,6.81 L 290.93,6.60 A 291.00 291.00 0 0 0 290.93,-6.60 Z" /><text x="330" y="5" text-anchor="end" font-family="Candara" font-size="18" transform="rotate(180, 330, 0)">MeltCore Non-Ferrous</text><line stroke="black" stroke-width="1" stroke-dasharray="5, 5" x1="508.0" y1="0" x2="600" y2="0" /><circle cx="620" cy="0" r="10.949062852460655" fill="none" stroke="#149cd0" stroke-width="1" /><circle cx="660" cy="0" r="4.761699998586538" fill="#149cd0" stroke="#149cd0" stroke-width="1" /><path d="M 704.82,-15.99 A 705.00 705.00 0 0 1 704.82,15.99 L 689.82,15.65 A 690.00 690.00 0 0 0 689.82,-15.65 Z" fill="#f2f3f5" stroke="#6b6b6b" stroke-width="1" /></g><g transform="rotate(117.00934579439256)"><path d="M 299.92,-6.81 A 300.00 300.00 0 0 1 299.92,6.81 L 299.92,6.81 A 300.00 300.00 0 0 0 299.92,-6.81 Z" /><text x="330" y="5" text-anchor="end" font-family="Candara" font-size="18" transform="rotate(180, 330, 0)">NovaAlloy Foundry</text><line stroke="black" stroke-width="1" stroke-dasharray="5, 5" x1="484.0" y1="0" x2="600" y2="0" /><path d="M 326.00,0.00 L 322.05,2.94 L 320.47,7.61 L 316.45,4.76 L 311.53,4.70 L 313.00,0.00 L 311.53,-4.70 L 316.45,-4.76 L 320.47,-7.61 L 322.05,-2.94 Z" fill="none" stroke="#149cd0" stroke-width="1" /><circle cx="620" cy="0" r="15.53845034120325" fill="none" stroke="#149cd0" stroke-width="1" /><circle cx="660" cy="0" r="12.060683797779893" fill="#149cd0" stroke="#149cd0" stroke-width="1" /><path d="M 704.82,-15.99 A 705.00 705.00 0 0 1 704.82,15.99 L 689.82,15.65 A 690.00 690.00 0 0 0 689.82,-15.65 Z" fill="#ffffff" stroke="#6b6b6b" stroke-width="1" /></g><g transform="rotate(120.1869158878505)"><path d="M 299.92,-6.81 A 300.00 300.00 0 0 1 299.92,6.81 L 299.92,6.81 A 300.00 300.00 0 0 0 299.92,-6.81 Z" /><text x="330" y="5" text-anchor="end" font-family="Candara" font-size="18" transform="rotate(180, 330, 0)">ElectraCast Solutions</text><line stroke="black" stroke-width="1" stroke-dasharray="5, 5" x1="499.0" y1="0" x2="600" y2="0" /><path d="M 326.00,0.00 L 322.05,2.94 L 320.47,7.61 L 316.45,4.76 L 311.53,4.70 L 313.00,0.00 L 311.53,-4.70 L 316.45,-4.76 L 320.47,-7.61 L 322.05,-2.94 Z" fill="none" stroke="#149cd0" stroke-width="1" /><circle cx="620" cy="0" r="13.77453905821694" fill="none" stroke="#149cd0" stroke-width="1" /><circle cx="660" cy="0" r="7.559894587908661" fill="#149cd0" stroke="#149cd0" stroke-width="1" /><path d="M 704.82,-15.99 A 705.00 705.00 0 0 1 704.82,15.99 L 689.82,15.65 A 690.00 690.00 0 0 0 689.82,-15.65 Z" fill="#ffffff" stroke="#6b6b6b" stroke-width="1" /></g><g transform="rotate(123.36448598130845)"><path d="M 299.92,-6.81 A 300.00 300.00 0 0 1 299.92,6.81 L 272.93,6.19 A 273.00 273.00 0 0 0 272.93,-6.19 Z" /><text x="330" y="5" text-anchor="end" font-family="Candara" font-size="18" transform="rotate(180, 330, 0)">ValiantMetals Foundry</text><line stroke="black" stroke-width="1" stroke-dasharray="5, 5" x1="510.0" y1="0" x2="600" y2="0" /><circle cx="620" cy="0" r="9.062186730500034" fill="none" stroke="#149cd0" stroke-width="1" /><circle cx="660" cy="0" r="14.760692254307466" fill="#149cd0" stroke="#149cd0" stroke-width="1" /><path d="M 704.82,-15.99 A 705.00 705.00 0 0 1 704.82,15.99 L 689.82,15.65 A 690.00 690.00 0 0 0 689.82,-15.65 Z" fill="#fcfdfd" stroke="#6b6b6b" stroke-width="1" /></g><g transform="rotate(126.54205607476639)"><path d="M 299.92,-6.81 A 300.00 300.00 0 0 1 299.92,6.81 L 299.92,6.81 A 300.00 300.00 0 0 0 299.92,-6.81 Z" /><text x="330" y="5" text-anchor="end" font-family="Candara" font-size="18" transform="rotate(180, 330, 0)">Zenith Alloy Industries</text><line stroke="black" stroke-width="1" stroke-dasharray="5, 5" x1="509.0" y1="0" x2="600" y2="0" /><path d="M 326.00,0.00 L 322.05,2.94 L 320.47,7.61 L 316.45,4.76 L 311.53,4.70 L 313.00,0.00 L 311.53,-4.70 L 316.45,-4.76 L 320.47,-7.61 L 322.05,-2.94 Z" fill="none" stroke="#149cd0" stroke-width="1" /><circle cx="620" cy="0" r="14.962040615279864" fill="none" stroke="#149cd0" stroke-width="1" /><circle cx="660" cy="0" r="12.022848542040476" fill="#149cd0" stroke="#149cd0" stroke-width="1" /><path d="M 704.82,-15.99 A 705.00 705.00 0 0 1 704.82,15.99 L 689.82,15.65 A 690.00 690.00 0 0 0 689.82,-15.65 Z" fill="#ffffff" stroke="#6b6b6b" stroke-width="1" /></g><g transform="rotate(129.71962616822432)"><path d="M 299.92,-6.81 A 300.00 300.00 0 0 1 299.92,6.81 L 299.92,6.81 A 300.00 300.00 0 0 0 299.92,-6.81 Z" /><text x="330" y="5" text-anchor="end" font-family="Candara" font-size="18" transform="rotate(180, 330, 0)">MoltenMidas Casting</text><line stroke="black" stroke-width="1" stroke-dasharray="5, 5" x1="501.0" y1="0" x2="600" y2="0" /><circle cx="620" cy="0" r="14.20391154428879" fill="none" stroke="#149cd0" stroke-width="1" /><circle cx="660" cy="0" r="8.674948656863497" fill="#149cd0" stroke="#149cd0" stroke-width="1" /><path d="M 704.82,-15.99 A 705.00 705.00 0 0 1 704.82,15.99 L 689.82,15.65 A 690.00 690.00 0 0 0 689.82,-15.65 Z" fill="#ffffff" stroke="#6b6b6b" stroke-width="1" /></g><g transform="rotate(132.89719626168227)"><path d="M 299.92,-6.81 A 300.00 300.00 0 0 1 299.92,6.81 L 245.94,5.58 A 246.00 246.00 0 0 0 245.94,-5.58 Z" /><text x="330" y="5" text-anchor="end" font-family="Candara" font-size="18" transform="rotate(180, 330, 0)">PressTek Industries</text><line stroke="black" stroke-width="1" stroke-dasharray="5, 5" x1="488.0" y1="0" x2="600" y2="0" /><path d="M 312.34,2.83 L 315.17,5.66 L 318.00,2.83 L 320.83,5.66 L 323.66,2.83 L 320.83,0.00 L 323.66,-2.83 L 320.83,-5.66 L 318.00,-2.83 L 315.17,-5.66 L 312.34,-2.83 L 315.17,0.00 Z" fill="#9e2a29" stroke="#9e2a29" stroke-width="1" /><circle cx="620" cy="0" r="3.6860274967385265" fill="none" stroke="#149cd0" stroke-width="1" /><circle cx="660" cy="0" r="14.607314840665572" fill="#149cd0" stroke="#149cd0" stroke-width="1" /><path d="M 704.82,-15.99 A 705.00 705.00 0 0 1 704.82,15.99 L 689.82,15.65 A 690.00 690.00 0 0 0 689.82,-15.65 Z" fill="#f3f5f6" stroke="#6b6b6b" stroke-width="1" /></g><g transform="rotate(136.0747663551402)"><path d="M 299.92,-6.81 A 300.00 300.00 0 0 1 299.92,6.81 L 287.93,6.53 A 288.00 288.00 0 0 0 287.93,-6.53 Z" /><text x="330" y="5" text-anchor="end" font-family="Candara" font-size="18" transform="rotate(180, 330, 0)">MetalForm Solutions</text><line stroke="black" stroke-width="1" stroke-dasharray="5, 5" x1="498.0" y1="0" x2="600" y2="0" /><circle cx="620" cy="0" r="4.83010248226915" fill="none" stroke="#149cd0" stroke-width="1" /><circle cx="660" cy="0" r="4.895228891211241" fill="#149cd0" stroke="#149cd0" stroke-width="1" /><path d="M 704.82,-15.99 A 705.00 705.00 0 0 1 704.82,15.99 L 689.82,15.65 A 690.00 690.00 0 0 0 689.82,-15.65 Z" fill="#f5f6f7" stroke="#6b6b6b" stroke-width="1" /></g><g transform="rotate(139.25233644859816)"><path d="M 299.92,-6.81 A 300.00 300.00 0 0 1 299.92,6.81 L 257.93,5.85 A 258.00 258.00 0 0 0 257.93,-5.85 Z" /><text x="330" y="5" text-anchor="end" font-family="Candara" font-size="18" transform="rotate(180, 330, 0)">PressEdge Manufacturing</text><line stroke="black" stroke-width="1" stroke-dasharray="5, 5" x1="536.0" y1="0" x2="600" y2="0" /><path d="M 326.00,0.00 L 322.05,2.94 L 320.47,7.61 L 316.45,4.76 L 311.53,4.70 L 313.00,0.00 L 311.53,-4.70 L 316.45,-4.76 L 320.47,-7.61 L 322.05,-2.94 Z" fill="none" stroke="#149cd0" stroke-width="1" /><circle cx="620" cy="0" r="3.826317553615673" fill="none" stroke="#149cd0" stroke-width="1" /><circle cx="660" cy="0" r="14.604556525781955" fill="#149cd0" stroke="#149cd0" stroke-width="1" /><path d="M 704.82,-15.99 A 705.00 705.00 0 0 1 704.82,15.99 L 689.82,15.65 A 690.00 690.00 0 0 0 689.82,-15.65 Z" fill="#f1f2f4" stroke="#6b6b6b" stroke-width="1" /></g><g transform="rotate(142.4299065420561)"><path d="M 299.92,-6.81 A 300.00 300.00 0 0 1 299.92,6.81 L 281.93,6.40 A 282.00 282.00 0 0 0 281.93,-6.40 Z" /><text x="330" y="5" text-anchor="end" font-family="Candara" font-size="18" transform="rotate(180, 330, 0)">StampaPress Innovations</text><line stroke="black" stroke-width="1" stroke-dasharray="5, 5" x1="534.0" y1="0" x2="600" y2="0" /><path d="M 326.00,0.00 L 322.05,2.94 L 320.47,7.61 L 316.45,4.76 L 311.53,4.70 L 313.00,0.00 L 311.53,-4.70 L 316.45,-4.76 L 320.47,-7.61 L 322.05,-2.94 Z" fill="#149cd0" stroke="#149cd0" stroke-width="1" /><circle cx="620" cy="0" r="13.48076906090423" fill="none" stroke="#149cd0" stroke-width="1" /><circle cx="660" cy="0" r="15.489143074563492" fill="#149cd0" stroke="#149cd0" stroke-width="1" /><path d="M 704.82,-15.99 A 705.00 705.00 0 0 1 704.82,15.99 L 689.82,15.65 A 690.00 690.00 0 0 0 689.82,-15.65 Z" fill="#f9f9fa" stroke="#6b6b6b" stroke-width="1" /></g><g transform="rotate(145.60747663551405)"><path d="M 299.92,-6.81 A 300.00 300.00 0 0 1 299.92,6.81 L 281.93,6.40 A 282.00 282.00 0 0 0 281.93,-6.40 Z" /><text x="330" y="5" text-anchor="end" font-family="Candara" font-size="18" transform="rotate(180, 330, 0)">PressForm Tech</text><line stroke="black" stroke-width="1" stroke-dasharray="5, 5" x1="461.0" y1="0" x2="600" y2="0" /><circle cx="620" cy="0" r="12.63190082922951" fill="none" stroke="#149cd0" stroke-width="1" /><circle cx="660" cy="0" r="13.046757243062848" fill="#149cd0" stroke="#149cd0" stroke-width="1" /><path d="M 704.82,-15.99 A 705.00 705.00 0 0 1 704.82,15.99 L 689.82,15.65 A 690.00 690.00 0 0 0 689.82,-15.65 Z" fill="#7b8b9c" stroke="#6b6b6b" stroke-width="1" /></g><g transform="rotate(148.785046728972)"><path d="M 299.92,-6.81 A 300.00 300.00 0 0 1 299.92,6.81 L 266.93,6.06 A 267.00 267.00 0 0 0 266.93,-6.06 Z" /><text x="330" y="5" text-anchor="end" font-family="Candara" font-size="18" transform="rotate(180, 330, 0)">MetroPress Engineering</text><line stroke="black" stroke-width="1" stroke-dasharray="5, 5" x1="522.0" y1="0" x2="600" y2="0" /><circle cx="620" cy="0" r="10.303016271708849" fill="none" stroke="#149cd0" stroke-width="1" /><circle cx="660" cy="0" r="6.101160633340635" fill="#149cd0" stroke="#149cd0" stroke-width="1" /><path d="M 704.82,-15.99 A 705.00 705.00 0 0 1 704.82,15.99 L 689.82,15.65 A 690.00 690.00 0 0 0 689.82,-15.65 Z" fill="#f4f5f7" stroke="#6b6b6b" stroke-width="1" /></g><g transform="rotate(151.96261682242994)"><path d="M 299.92,-6.81 A 300.00 300.00 0 0 1 299.92,6.81 L 263.93,5.99 A 264.00 264.00 0 0 0 263.93,-5.99 Z" /><text x="330" y="5" text-anchor="end" font-family="Candara" font-size="18" transform="rotate(180, 330, 0)">OmniStamp Solutions</text><line stroke="black" stroke-width="1" stroke-dasharray="5, 5" x1="505.0" y1="0" x2="600" y2="0" /><circle cx="620" cy="0" r="7.783291113296751" fill="none" stroke="#149cd0" stroke-width="1" /><circle cx="660" cy="0" r="13.890845504055417" fill="#149cd0" stroke="#149cd0" stroke-width="1" /><path d="M 704.82,-15.99 A 705.00 705.00 0 0 1 704.82,15.99 L 689.82,15.65 A 690.00 690.00 0 0 0 689.82,-15.65 Z" fill="#f9fafb" stroke="#6b6b6b" stroke-width="1" /></g><g transform="rotate(155.14018691588788)"><path d="M 299.92,-6.81 A 300.00 300.00 0 0 1 299.92,6.81 L 233.94,5.31 A 234.00 234.00 0 0 0 233.94,-5.31 Z" /><text x="330" y="5" text-anchor="end" font-family="Candara" font-size="18" transform="rotate(180, 330, 0)">FormX Pressed Parts</text><line stroke="black" stroke-width="1" stroke-dasharray="5, 5" x1="497.0" y1="0" x2="600" y2="0" /><circle cx="620" cy="0" r="14.914014961907291" fill="none" stroke="#149cd0" stroke-width="1" /><circle cx="660" cy="0" r="12.914821058172203" fill="#149cd0" stroke="#149cd0" stroke-width="1" /><path d="M 704.82,-15.99 A 705.00 705.00 0 0 1 704.82,15.99 L 689.82,15.65 A 690.00 690.00 0 0 0 689.82,-15.65 Z" fill="#f4f6f7" stroke="#6b6b6b" stroke-width="1" /></g><g transform="rotate(158.31775700934583)"><path d="M 299.92,-6.81 A 300.00 300.00 0 0 1 299.92,6.81 L 137.96,3.13 A 138.00 138.00 0 0 0 137.96,-3.13 Z" /><text x="330" y="5" text-anchor="end" font-family="Candara" font-size="18" transform="rotate(180, 330, 0)">PressXtra Innovations</text><line stroke="black" stroke-width="1" stroke-dasharray="5, 5" x1="507.0" y1="0" x2="600" y2="0" /><path d="M 326.00,0.00 L 322.05,2.94 L 320.47,7.61 L 316.45,4.76 L 311.53,4.70 L 313.00,0.00 L 311.53,-4.70 L 316.45,-4.76 L 320.47,-7.61 L 322.05,-2.94 Z" fill="none" stroke="#149cd0" stroke-width="1" /><circle cx="620" cy="0" r="11.682746634439061" fill="none" stroke="#149cd0" stroke-width="1" /><circle cx="660" cy="0" r="13.869524508999612" fill="#149cd0" stroke="#149cd0" stroke-width="1" /><path d="M 704.82,-15.99 A 705.00 705.00 0 0 1 704.82,15.99 L 689.82,15.65 A 690.00 690.00 0 0 0 689.82,-15.65 Z" fill="#f2f3f5" stroke="#6b6b6b" stroke-width="1" /></g><g transform="rotate(161.49532710280377)"><path d="M 299.92,-6.81 A 300.00 300.00 0 0 1 299.92,6.81 L 218.94,4.97 A 219.00 219.00 0 0 0 218.94,-4.97 Z" /><text x="330" y="5" text-anchor="end" font-family="Candara" font-size="18" transform="rotate(180, 330, 0)">PressMate Manufacturing</text><line stroke="black" stroke-width="1" stroke-dasharray="5, 5" x1="537.0" y1="0" x2="600" y2="0" /><path d="M 312.34,2.83 L 315.17,5.66 L 318.00,2.83 L 320.83,5.66 L 323.66,2.83 L 320.83,0.00 L 323.66,-2.83 L 320.83,-5.66 L 318.00,-2.83 L 315.17,-5.66 L 312.34,-2.83 L 315.17,0.00 Z" fill="#9e2a29" stroke="#9e2a29" stroke-width="1" /><circle cx="620" cy="0" r="15.259868100190232" fill="none" stroke="#149cd0" stroke-width="1" /><circle cx="660" cy="0" r="14.423131759681524" fill="#149cd0" stroke="#149cd0" stroke-width="1" /><path d="M 704.82,-15.99 A 705.00 705.00 0 0 1 704.82,15.99 L 689.82,15.65 A 690.00 690.00 0 0 0 689.82,-15.65 Z" fill="#97a4b1" stroke="#6b6b6b" stroke-width="1" /></g><g transform="rotate(164.67289719626172)"><path d="M 299.92,-6.81 A 300.00 300.00 0 0 1 299.92,6.81 L 269.93,6.13 A 270.00 270.00 0 0 0 269.93,-6.13 Z" /><text x="330" y="5" text-anchor="end" font-family="Candara" font-size="18" transform="rotate(180, 330, 0)">TurnForge Solutions</text><line stroke="black" stroke-width="1" stroke-dasharray="5, 5" x1="494.0" y1="0" x2="600" y2="0" /><circle cx="620" cy="0" r="2.5179591632924105" fill="none" stroke="#149cd0" stroke-width="1" /><circle cx="660" cy="0" r="10.138043863031035" fill="#149cd0" stroke="#149cd0" stroke-width="1" /><path d="M 704.82,-15.99 A 705.00 705.00 0 0 1 704.82,15.99 L 689.82,15.65 A 690.00 690.00 0 0 0 689.82,-15.65 Z" fill="#f5f6f7" stroke="#6b6b6b" stroke-width="1" /></g><g transform="rotate(167.85046728971966)"><path d="M 299.92,-6.81 A 300.00 300.00 0 0 1 299.92,6.81 L 254.93,5.79 A 255.00 255.00 0 0 0 254.93,-5.79 Z" /><text x="330" y="5" text-anchor="end" font-family="Candara" font-size="18" transform="rotate(180, 330, 0)">HeatStamp Machining</text><line stroke="black" stroke-width="1" stroke-dasharray="5, 5" x1="509.0" y1="0" x2="600" y2="0" /><path d="M 326.00,0.00 L 322.05,2.94 L 320.47,7.61 L 316.45,4.76 L 311.53,4.70 L 313.00,0.00 L 311.53,-4.70 L 316.45,-4.76 L 320.47,-7.61 L 322.05,-2.94 Z" fill="#149cd0" stroke="#149cd0" stroke-width="1" /><circle cx="620" cy="0" r="14.417978837283814" fill="none" stroke="#149cd0" stroke-width="1" /><circle cx="660" cy="0" r="5.577962805966727" fill="#149cd0" stroke="#149cd0" stroke-width="1" /><path d="M 704.82,-15.99 A 705.00 705.00 0 0 1 704.82,15.99 L 689.82,15.65 A 690.00 690.00 0 0 0 689.82,-15.65 Z" fill="#f5f6f7" stroke="#6b6b6b" stroke-width="1" /></g><g transform="rotate(171.0280373831776)"><path d="M 299.92,-6.81 A 300.00 300.00 0 0 1 299.92,6.81 L 299.92,6.81 A 300.00 300.00 0 0 0 299.92,-6.81 Z" /><text x="330" y="5" text-anchor="end" font-family="Candara" font-size="18" transform="rotate(180, 330, 0)">Rotex Precision</text><line stroke="black" stroke-width="1" stroke-dasharray="5, 5" x1="458.0" y1="0" x2="600" y2="0" /><circle cx="620" cy="0" r="7.140686634802476" fill="none" stroke="#149cd0" stroke-width="1" /><circle cx="660" cy="0" r="14.771651563830945" fill="#149cd0" stroke="#149cd0" stroke-width="1" /><path d="M 704.82,-15.99 A 705.00 705.00 0 0 1 704.82,15.99 L 689.82,15.65 A 690.00 690.00 0 0 0 689.82,-15.65 Z" fill="#ffffff" stroke="#6b6b6b" stroke-width="1" /></g><g transform="rotate(174.20560747663555)"><path d="M 299.92,-6.81 A 300.00 300.00 0 0 1 299.92,6.81 L 278.93,6.33 A 279.00 279.00 0 0 0 278.93,-6.33 Z" /><text x="330" y="5" text-anchor="end" font-family="Candara" font-size="18" transform="rotate(180, 330, 0)">ApexTurn Industries</text><line stroke="black" stroke-width="1" stroke-dasharray="5, 5" x1="494.0" y1="0" x2="600" y2="0" /><path d="M 326.00,0.00 L 322.05,2.94 L 320.47,7.61 L 316.45,4.76 L 311.53,4.70 L 313.00,0.00 L 311.53,-4.70 L 316.45,-4.76 L 320.47,-7.61 L 322.05,-2.94 Z" fill="none" stroke="#149cd0" stroke-width="1" /><circle cx="620" cy="0" r="15.781199620551423" fill="none" stroke="#149cd0" stroke-width="1" /><circle cx="660" cy="0" r="6.801091120030936" fill="#149cd0" stroke="#149cd0" stroke-width="1" /><path d="M 704.82,-15.99 A 705.00 705.00 0 0 1 704.82,15.99 L 689.82,15.65 A 690.00 690.00 0 0 0 689.82,-15.65 Z" fill="#617589" stroke="#6b6b6b" stroke-width="1" /></g><g transform="rotate(177.3831775700935)"><path d="M 299.92,-6.81 A 300.00 300.00 0 0 1 299.92,6.81 L 236.94,5.38 A 237.00 237.00 0 0 0 236.94,-5.38 Z" /><text x="330" y="5" text-anchor="end" font-family="Candara" font-size="18" transform="rotate(180, 330, 0)">HotForm Machining</text><line stroke="black" stroke-width="1" stroke-dasharray="5, 5" x1="492.0" y1="0" x2="600" y2="0" /><path d="M 326.00,0.00 L 322.05,2.94 L 320.47,7.61 L 316.45,4.76 L 311.53,4.70 L 313.00,0.00 L 311.53,-4.70 L 316.45,-4.76 L 320.47,-7.61 L 322.05,-2.94 Z" fill="none" stroke="#149cd0" stroke-width="1" /><circle cx="620" cy="0" r="12.910992949537297" fill="none" stroke="#149cd0" stroke-width="1" /><circle cx="660" cy="0" r="8.911095282825094" fill="#149cd0" stroke="#149cd0" stroke-width="1" /><path d="M 704.82,-15.99 A 705.00 705.00 0 0 1 704.82,15.99 L 689.82,15.65 A 690.00 690.00 0 0 0 689.82,-15.65 Z" fill="#fbfbfc" stroke="#6b6b6b" stroke-width="1" /></g><g transform="rotate(180.56074766355144)"><path d="M 299.92,-6.81 A 300.00 300.00 0 0 1 299.92,6.81 L 275.93,6.26 A 276.00 276.00 0 0 0 275.93,-6.26 Z" /><text x="330" y="5" text-anchor="end" font-family="Candara" font-size="18" transform="rotate(180, 330, 0)">ForgeCraft Turned Parts</text><line stroke="black" stroke-width="1" stroke-dasharray="5, 5" x1="522.0" y1="0" x2="600" y2="0" /><circle cx="620" cy="0" r="15.972272474907534" fill="none" stroke="#149cd0" stroke-width="1" /><circle cx="660" cy="0" r="9.296198868802977" fill="#149cd0" stroke="#149cd0" stroke-width="1" /><path d="M 704.82,-15.99 A 705.00 705.00 0 0 1 704.82,15.99 L 689.82,15.65 A 690.00 690.00 0 0 0 689.82,-15.65 Z" fill="#f0f1f3" stroke="#6b6b6b" stroke-width="1" /></g><g transform="rotate(183.73831775700938)"><path d="M 299.92,-6.81 A 300.00 300.00 0 0 1 299.92,6.81 L 251.94,5.72 A 252.00 252.00 0 0 0 251.94,-5.72 Z" /><text x="330" y="5" text-anchor="end" font-family="Candara" font-size="18" transform="rotate(180, 330, 0)">HelixStamp Mechanics</text><line stroke="black" stroke-width="1" stroke-dasharray="5, 5" x1="512.0" y1="0" x2="600" y2="0" /><circle cx="620" cy="0" r="15.885305302004546" fill="none" stroke="#149cd0" stroke-width="1" /><circle cx="660" cy="0" r="3.264663403069099" fill="#149cd0" stroke="#149cd0" stroke-width="1" /><path d="M 704.82,-15.99 A 705.00 705.00 0 0 1 704.82,15.99 L 689.82,15.65 A 690.00 690.00 0 0 0 689.82,-15.65 Z" fill="#14314f" stroke="#6b6b6b" stroke-width="1" /></g><g transform="rotate(186.91588785046733)"><path d="M 299.92,-6.81 A 300.00 300.00 0 0 1 299.92,6.81 L 290.93,6.60 A 291.00 291.00 0 0 0 290.93,-6.60 Z" /><text x="330" y="5" text-anchor="end" font-family="Candara" font-size="18" transform="rotate(180, 330, 0)">TurnEdge Innovations</text><line stroke="black" stroke-width="1" stroke-dasharray="5, 5" x1="508.0" y1="0" x2="600" y2="0" /><circle cx="620" cy="0" r="8.632619185182469" fill="none" stroke="#149cd0" stroke-width="1" /><circle cx="660" cy="0" r="14.298650040461025" fill="#149cd0" stroke="#149cd0" stroke-width="1" /><path d="M 704.82,-15.99 A 705.00 705.00 0 0 1 704.82,15.99 L 689.82,15.65 A 690.00 690.00 0 0 0 689.82,-15.65 Z" fill="#f4f5f6" stroke="#6b6b6b" stroke-width="1" /></g><g transform="rotate(190.09345794392527)"><path d="M 299.92,-6.81 A 300.00 300.00 0 0 1 299.92,6.81 L 299.92,6.81 A 300.00 300.00 0 0 0 299.92,-6.81 Z" /><text x="330" y="5" text-anchor="end" font-family="Candara" font-size="18" transform="rotate(180, 330, 0)">SolaStamp Hot Parts</text><line stroke="black" stroke-width="1" stroke-dasharray="5, 5" x1="496.0" y1="0" x2="600" y2="0" /><path d="M 312.34,2.83 L 315.17,5.66 L 318.00,2.83 L 320.83,5.66 L 323.66,2.83 L 320.83,0.00 L 323.66,-2.83 L 320.83,-5.66 L 318.00,-2.83 L 315.17,-5.66 L 312.34,-2.83 L 315.17,0.00 Z" fill="#9e2a29" stroke="#9e2a29" stroke-width="1" /><circle cx="620" cy="0" r="11.272142083043924" fill="none" stroke="#149cd0" stroke-width="1" /><circle cx="660" cy="0" r="2.253749712136603" fill="#149cd0" stroke="#149cd0" stroke-width="1" /><path d="M 704.82,-15.99 A 705.00 705.00 0 0 1 704.82,15.99 L 689.82,15.65 A 690.00 690.00 0 0 0 689.82,-15.65 Z" fill="#ffffff" stroke="#6b6b6b" stroke-width="1" /></g><g transform="rotate(193.27102803738322)"><path d="M 299.92,-6.81 A 300.00 300.00 0 0 1 299.92,6.81 L 248.94,5.65 A 249.00 249.00 0 0 0 248.94,-5.65 Z" /><text x="330" y="5" text-anchor="end" font-family="Candara" font-size="18" transform="rotate(180, 330, 0)">MachiFlow Turned &amp; Stamped</text><line stroke="black" stroke-width="1" stroke-dasharray="5, 5" x1="569.0" y1="0" x2="600" y2="0" /><circle cx="620" cy="0" r="12.013574213793525" fill="none" stroke="#149cd0" stroke-width="1" /><circle cx="660" cy="0" r="10.48788683975828" fill="#149cd0" stroke="#149cd0" stroke-width="1" /><path d="M 704.82,-15.99 A 705.00 705.00 0 0 1 704.82,15.99 L 689.82,15.65 A 690.00 690.00 0 0 0 689.82,-15.65 Z" fill="#c8ced5" stroke="#6b6b6b" stroke-width="1" /></g><g transform="rotate(196.44859813084116)"><path d="M 299.92,-6.81 A 300.00 300.00 0 0 1 299.92,6.81 L 299.92,6.81 A 300.00 300.00 0 0 0 299.92,-6.81 Z" /><text x="330" y="5" text-anchor="end" font-family="Candara" font-size="18" transform="rotate(180, 330, 0)">VertexTurn Solutions</text><line stroke="black" stroke-width="1" stroke-dasharray="5, 5" x1="499.0" y1="0" x2="600" y2="0" /><path d="M 326.00,0.00 L 322.05,2.94 L 320.47,7.61 L 316.45,4.76 L 311.53,4.70 L 313.00,0.00 L 311.53,-4.70 L 316.45,-4.76 L 320.47,-7.61 L 322.05,-2.94 Z" fill="#149cd0" stroke="#149cd0" stroke-width="1" /><circle cx="620" cy="0" r="8.58753605314934" fill="none" stroke="#149cd0" stroke-width="1" /><circle cx="660" cy="0" r="2.0" fill="#149cd0" stroke="#149cd0" stroke-width="1" /><path d="M 704.82,-15.99 A 705.00 705.00 0 0 1 704.82,15.99 L 689.82,15.65 A 690.00 690.00 0 0 0 689.82,-15.65 Z" fill="#ffffff" stroke="#6b6b6b" stroke-width="1" /></g><g transform="rotate(199.6261682242991)"><path d="M 299.92,-6.81 A 300.00 300.00 0 0 1 299.92,6.81 L 296.92,6.74 A 297.00 297.00 0 0 0 296.92,-6.74 Z" /><text x="330" y="5" text-anchor="end" font-family="Candara" font-size="18" transform="rotate(180, 330, 0)">PressaForge</text><line stroke="black" stroke-width="1" stroke-dasharray="5, 5" x1="434.0" y1="0" x2="600" y2="0" /><path d="M 326.00,0.00 L 322.05,2.94 L 320.47,7.61 L 316.45,4.76 L 311.53,4.70 L 313.00,0.00 L 311.53,-4.70 L 316.45,-4.76 L 320.47,-7.61 L 322.05,-2.94 Z" fill="#149cd0" stroke="#149cd0" stroke-width="1" /><circle cx="620" cy="0" r="12.252516628639171" fill="none" stroke="#149cd0" stroke-width="1" /><circle cx="660" cy="0" r="9.694141514420338" fill="#149cd0" stroke="#149cd0" stroke-width="1" /><path d="M 704.82,-15.99 A 705.00 705.00 0 0 1 704.82,15.99 L 689.82,15.65 A 690.00 690.00 0 0 0 689.82,-15.65 Z" fill="#fafafb" stroke="#6b6b6b" stroke-width="1" /></g><g transform="rotate(202.80373831775705)"><path d="M 299.92,-6.81 A 300.00 300.00 0 0 1 299.92,6.81 L 269.93,6.13 A 270.00 270.00 0 0 0 269.93,-6.13 Z" /><text x="330" y="5" text-anchor="end" font-family="Candara" font-size="18" transform="rotate(180, 330, 0)">QuadroStamp</text><line stroke="black" stroke-width="1" stroke-dasharray="5, 5" x1="446.0" y1="0" x2="600" y2="0" /><circle cx="620" cy="0" r="13.226960262446172" fill="none" stroke="#149cd0" stroke-width="1" /><circle cx="660" cy="0" r="11.586412385112864" fill="#149cd0" stroke="#149cd0" stroke-width="1" /><path d="M 704.82,-15.99 A 705.00 705.00 0 0 1 704.82,15.99 L 689.82,15.65 A 690.00 690.00 0 0 0 689.82,-15.65 Z" fill="#dbdfe4" stroke="#6b6b6b" stroke-width="1" /></g><g transform="rotate(205.981308411215)"><path d="M 299.92,-6.81 A 300.00 300.00 0 0 1 299.92,6.81 L 287.93,6.53 A 288.00 288.00 0 0 0 287.93,-6.53 Z" /><text x="330" y="5" text-anchor="end" font-family="Candara" font-size="18" transform="rotate(180, 330, 0)">OmniTurn Engineering</text><line stroke="black" stroke-width="1" stroke-dasharray="5, 5" x1="511.0" y1="0" x2="600" y2="0" /><circle cx="620" cy="0" r="15.911386320908418" fill="none" stroke="#149cd0" stroke-width="1" /><circle cx="660" cy="0" r="13.023649669991395" fill="#149cd0" stroke="#149cd0" stroke-width="1" /><path d="M 704.82,-15.99 A 705.00 705.00 0 0 1 704.82,15.99 L 689.82,15.65 A 690.00 690.00 0 0 0 689.82,-15.65 Z" fill="#fbfbfc" stroke="#6b6b6b" stroke-width="1" /></g><g transform="rotate(209.15887850467294)"><path d="M 299.92,-6.81 A 300.00 300.00 0 0 1 299.92,6.81 L 299.92,6.81 A 300.00 300.00 0 0 0 299.92,-6.81 Z" /><text x="330" y="5" text-anchor="end" font-family="Candara" font-size="18" transform="rotate(180, 330, 0)">HeatForm Tech</text><line stroke="black" stroke-width="1" stroke-dasharray="5, 5" x1="456.0" y1="0" x2="600" y2="0" /><path d="M 326.00,0.00 L 322.05,2.94 L 320.47,7.61 L 316.45,4.76 L 311.53,4.70 L 313.00,0.00 L 311.53,-4.70 L 316.45,-4.76 L 320.47,-7.61 L 322.05,-2.94 Z" fill="none" stroke="#149cd0" stroke-width="1" /><circle cx="620" cy="0" r="13.564610496036558" fill="none" stroke="#149cd0" stroke-width="1" /><circle cx="660" cy="0" r="15.685825940487671" fill="#149cd0" stroke="#149cd0" stroke-width="1" /><path d="M 704.82,-15.99 A 705.00 705.00 0 0 1 704.82,15.99 L 689.82,15.65 A 690.00 690.00 0 0 0 689.82,-15.65 Z" fill="#ffffff" stroke="#6b6b6b" stroke-width="1" /></g><g transform="rotate(212.3364485981309)"><path d="M 299.92,-6.81 A 300.00 300.00 0 0 1 299.92,6.81 L 266.93,6.06 A 267.00 267.00 0 0 0 266.93,-6.06 Z" /><text x="330" y="5" text-anchor="end" font-family="Candara" font-size="18" transform="rotate(180, 330, 0)">NeoStamp Machining</text><line stroke="black" stroke-width="1" stroke-dasharray="5, 5" x1="504.0" y1="0" x2="600" y2="0" /><path d="M 326.00,0.00 L 322.05,2.94 L 320.47,7.61 L 316.45,4.76 L 311.53,4.70 L 313.00,0.00 L 311.53,-4.70 L 316.45,-4.76 L 320.47,-7.61 L 322.05,-2.94 Z" fill="#149cd0" stroke="#149cd0" stroke-width="1" /><circle cx="620" cy="0" r="12.36374833995772" fill="none" stroke="#149cd0" stroke-width="1" /><circle cx="660" cy="0" r="8.726767857249323" fill="#149cd0" stroke="#149cd0" stroke-width="1" /><path d="M 704.82,-15.99 A 705.00 705.00 0 0 1 704.82,15.99 L 689.82,15.65 A 690.00 690.00 0 0 0 689.82,-15.65 Z" fill="#fbfcfc" stroke="#6b6b6b" stroke-width="1" /></g><g transform="rotate(215.51401869158883)"><path d="M 299.92,-6.81 A 300.00 300.00 0 0 1 299.92,6.81 L 299.92,6.81 A 300.00 300.00 0 0 0 299.92,-6.81 Z" /><text x="330" y="5" text-anchor="end" font-family="Candara" font-size="18" transform="rotate(180, 330, 0)">AxialForge</text><line stroke="black" stroke-width="1" stroke-dasharray="5, 5" x1="421.0" y1="0" x2="600" y2="0" /><circle cx="620" cy="0" r="6.104551659945954" fill="none" stroke="#149cd0" stroke-width="1" /><circle cx="660" cy="0" r="12.94025447553313" fill="#149cd0" stroke="#149cd0" stroke-width="1" /><path d="M 704.82,-15.99 A 705.00 705.00 0 0 1 704.82,15.99 L 689.82,15.65 A 690.00 690.00 0 0 0 689.82,-15.65 Z" fill="#ffffff" stroke="#6b6b6b" stroke-width="1" /></g><g transform="rotate(218.69158878504678)"><path d="M 299.92,-6.81 A 300.00 300.00 0 0 1 299.92,6.81 L 299.92,6.81 A 300.00 300.00 0 0 0 299.92,-6.81 Z" /><text x="330" y="5" text-anchor="end" font-family="Candara" font-size="18" transform="rotate(180, 330, 0)">TurnoNova Solutions</text><line stroke="black" stroke-width="1" stroke-dasharray="5, 5" x1="500.0" y1="0" x2="600" y2="0" /><circle cx="620" cy="0" r="5.9203146080645315" fill="none" stroke="#149cd0" stroke-width="1" /><circle cx="660" cy="0" r="6.612331649580519" fill="#149cd0" stroke="#149cd0" stroke-width="1" /><path d="M 704.82,-15.99 A 705.00 705.00 0 0 1 704.82,15.99 L 689.82,15.65 A 690.00 690.00 0 0 0 689.82,-15.65 Z" fill="#ffffff" stroke="#6b6b6b" stroke-width="1" /></g><g transform="rotate(221.86915887850472)"><path d="M 299.92,-6.81 A 300.00 300.00 0 0 1 299.92,6.81 L 290.93,6.60 A 291.00 291.00 0 0 0 290.93,-6.60 Z" /><text x="330" y="5" text-anchor="end" font-family="Candara" font-size="18" transform="rotate(180, 330, 0)">StampAxion</text><line stroke="black" stroke-width="1" stroke-dasharray="5, 5" x1="433.0" y1="0" x2="600" y2="0" /><circle cx="620" cy="0" r="2.0" fill="none" stroke="#149cd0" stroke-width="1" /><circle cx="660" cy="0" r="12.42497139052372" fill="#149cd0" stroke="#149cd0" stroke-width="1" /><path d="M 704.82,-15.99 A 705.00 705.00 0 0 1 704.82,15.99 L 689.82,15.65 A 690.00 690.00 0 0 0 689.82,-15.65 Z" fill="#eaecef" stroke="#6b6b6b" stroke-width="1" /></g><g transform="rotate(225.04672897196266)"><path d="M 299.92,-6.81 A 300.00 300.00 0 0 1 299.92,6.81 L 299.92,6.81 A 300.00 300.00 0 0 0 299.92,-6.81 Z" /><text x="330" y="5" text-anchor="end" font-family="Candara" font-size="18" transform="rotate(180, 330, 0)">MetroTurn Industries</text><line stroke="black" stroke-width="1" stroke-dasharray="5, 5" x1="501.0" y1="0" x2="600" y2="0" /><circle cx="620" cy="0" r="8.711553744065656" fill="none" stroke="#149cd0" stroke-width="1" /><circle cx="660" cy="0" r="14.574115673532024" fill="#149cd0" stroke="#149cd0" stroke-width="1" /><path d="M 704.82,-15.99 A 705.00 705.00 0 0 1 704.82,15.99 L 689.82,15.65 A 690.00 690.00 0 0 0 689.82,-15.65 Z" fill="#ffffff" stroke="#6b6b6b" stroke-width="1" /></g><g transform="rotate(228.2242990654206)"><path d="M 299.92,-6.81 A 300.00 300.00 0 0 1 299.92,6.81 L 218.94,4.97 A 219.00 219.00 0 0 0 218.94,-4.97 Z" /><text x="330" y="5" text-anchor="end" font-family="Candara" font-size="18" transform="rotate(180, 330, 0)">RapidForge Machining</text><line stroke="black" stroke-width="1" stroke-dasharray="5, 5" x1="512.0" y1="0" x2="600" y2="0" /><path d="M 326.00,0.00 L 322.05,2.94 L 320.47,7.61 L 316.45,4.76 L 311.53,4.70 L 313.00,0.00 L 311.53,-4.70 L 316.45,-4.76 L 320.47,-7.61 L 322.05,-2.94 Z" fill="none" stroke="#149cd0" stroke-width="1" /><circle cx="620" cy="0" r="12.16180874222186" fill="none" stroke="#149cd0" stroke-width="1" /><circle cx="660" cy="0" r="14.41463695296655" fill="#149cd0" stroke="#149cd0" stroke-width="1" /><path d="M 704.82,-15.99 A 705.00 705.00 0 0 1 704.82,15.99 L 689.82,15.65 A 690.00 690.00 0 0 0 689.82,-15.65 Z" fill="#f5f6f7" stroke="#6b6b6b" stroke-width="1" /></g><g transform="rotate(231.40186915887855)"><path d="M 299.92,-6.81 A 300.00 300.00 0 0 1 299.92,6.81 L 245.94,5.58 A 246.00 246.00 0 0 0 245.94,-5.58 Z" /><text x="330" y="5" text-anchor="end" font-family="Candara" font-size="18" transform="rotate(180, 330, 0)">ThermalStamp</text><line stroke="black" stroke-width="1" stroke-dasharray="5, 5" x1="451.0" y1="0" x2="600" y2="0" /><circle cx="620" cy="0" r="12.552206290133464" fill="none" stroke="#149cd0" stroke-width="1" /><circle cx="660" cy="0" r="6.907306151984576" fill="#149cd0" stroke="#149cd0" stroke-width="1" /><path d="M 704.82,-15.99 A 705.00 705.00 0 0 1 704.82,15.99 L 689.82,15.65 A 690.00 690.00 0 0 0 689.82,-15.65 Z" fill="#fbfcfc" stroke="#6b6b6b" stroke-width="1" /></g><g transform="rotate(234.5794392523365)"><path d="M 299.92,-6.81 A 300.00 300.00 0 0 1 299.92,6.81 L 299.92,6.81 A 300.00 300.00 0 0 0 299.92,-6.81 Z" /><text x="330" y="5" text-anchor="end" font-family="Candara" font-size="18" transform="rotate(180, 330, 0)">ProTurn Hot Parts</text><line stroke="black" stroke-width="1" stroke-dasharray="5, 5" x1="476.0" y1="0" x2="600" y2="0" /><circle cx="620" cy="0" r="11.903195905200835" fill="none" stroke="#149cd0" stroke-width="1" /><circle cx="660" cy="0" r="11.259234162153646" fill="#149cd0" stroke="#149cd0" stroke-width="1" /><path d="M 704.82,-15.99 A 705.00 705.00 0 0 1 704.82,15.99 L 689.82,15.65 A 690.00 690.00 0 0 0 689.82,-15.65 Z" fill="#ffffff" stroke="#6b6b6b" stroke-width="1" /></g><g transform="rotate(237.75700934579444)"><path d="M 299.92,-6.81 A 300.00 300.00 0 0 1 299.92,6.81 L 218.94,4.97 A 219.00 219.00 0 0 0 218.94,-4.97 Z" /><text x="330" y="5" text-anchor="end" font-family="Candara" font-size="18" transform="rotate(180, 330, 0)">DynamicStamp Innovations</text><line stroke="black" stroke-width="1" stroke-dasharray="5, 5" x1="550.0" y1="0" x2="600" y2="0" /><path d="M 326.00,0.00 L 322.05,2.94 L 320.47,7.61 L 316.45,4.76 L 311.53,4.70 L 313.00,0.00 L 311.53,-4.70 L 316.45,-4.76 L 320.47,-7.61 L 322.05,-2.94 Z" fill="#149cd0" stroke="#149cd0" stroke-width="1" /><circle cx="620" cy="0" r="14.109527147611228" fill="none" stroke="#149cd0" stroke-width="1" /><circle cx="660" cy="0" r="13.446421737559035" fill="#149cd0" stroke="#149cd0" stroke-width="1" /><path d="M 704.82,-15.99 A 705.00 705.00 0 0 1 704.82,15.99 L 689.82,15.65 A 690.00 690.00 0 0 0 689.82,-15.65 Z" fill="#f0f2f4" stroke="#6b6b6b" stroke-width="1" /></g><g transform="rotate(240.9345794392524)"><path d="M 299.92,-6.81 A 300.00 300.00 0 0 1 299.92,6.81 L 296.92,6.74 A 297.00 297.00 0 0 0 296.92,-6.74 Z" /><text x="330" y="5" text-anchor="end" font-family="Candara" font-size="18" transform="rotate(180, 330, 0)">ForgeLine Turned Solutions</text><line stroke="black" stroke-width="1" stroke-dasharray="5, 5" x1="549.0" y1="0" x2="600" y2="0" /><circle cx="620" cy="0" r="10.116727281729853" fill="none" stroke="#149cd0" stroke-width="1" /><circle cx="660" cy="0" r="10.347981464523931" fill="#149cd0" stroke="#149cd0" stroke-width="1" /><path d="M 704.82,-15.99 A 705.00 705.00 0 0 1 704.82,15.99 L 689.82,15.65 A 690.00 690.00 0 0 0 689.82,-15.65 Z" fill="#fafafb" stroke="#6b6b6b" stroke-width="1" /></g><g transform="rotate(244.11214953271033)"><path d="M 299.92,-6.81 A 300.00 300.00 0 0 1 299.92,6.81 L 47.99,1.09 A 48.00 48.00 0 0 0 47.99,-1.09 Z" /><text x="330" y="5" text-anchor="end" font-family="Candara" font-size="18" transform="rotate(180, 330, 0)">RevoTurn Tech</text><line stroke="black" stroke-width="1" stroke-dasharray="5, 5" x1="454.0" y1="0" x2="600" y2="0" /><path d="M 326.00,0.00 L 322.05,2.94 L 320.47,7.61 L 316.45,4.76 L 311.53,4.70 L 313.00,0.00 L 311.53,-4.70 L 316.45,-4.76 L 320.47,-7.61 L 322.05,-2.94 Z" fill="#149cd0" stroke="#149cd0" stroke-width="1" /><circle cx="620" cy="0" r="14.922774003787472" fill="none" stroke="#149cd0" stroke-width="1" /><circle cx="660" cy="0" r="12.052004546021632" fill="#149cd0" stroke="#149cd0" stroke-width="1" /><path d="M 704.82,-15.99 A 705.00 705.00 0 0 1 704.82,15.99 L 689.82,15.65 A 690.00 690.00 0 0 0 689.82,-15.65 Z" fill="#f1f3f5" stroke="#6b6b6b" stroke-width="1" /></g><g transform="rotate(247.28971962616828)"><path d="M 299.92,-6.81 A 300.00 300.00 0 0 1 299.92,6.81 L 299.92,6.81 A 300.00 300.00 0 0 0 299.92,-6.81 Z" /><text x="330" y="5" text-anchor="end" font-family="Candara" font-size="18" transform="rotate(180, 330, 0)">SummitStamp</text><line stroke="black" stroke-width="1" stroke-dasharray="5, 5" x1="448.0" y1="0" x2="600" y2="0" /><path d="M 326.00,0.00 L 322.05,2.94 L 320.47,7.61 L 316.45,4.76 L 311.53,4.70 L 313.00,0.00 L 311.53,-4.70 L 316.45,-4.76 L 320.47,-7.61 L 322.05,-2.94 Z" fill="#149cd0" stroke="#149cd0" stroke-width="1" /><circle cx="620" cy="0" r="12.997918654096582" fill="none" stroke="#149cd0" stroke-width="1" /><circle cx="660" cy="0" r="6.282924384004824" fill="#149cd0" stroke="#149cd0" stroke-width="1" /><path d="M 704.82,-15.99 A 705.00 705.00 0 0 1 704.82,15.99 L 689.82,15.65 A 690.00 690.00 0 0 0 689.82,-15.65 Z" fill="#ffffff" stroke="#6b6b6b" stroke-width="1" /></g><g transform="rotate(250.46728971962622)"><path d="M 299.92,-6.81 A 300.00 300.00 0 0 1 299.92,6.81 L 296.92,6.74 A 297.00 297.00 0 0 0 296.92,-6.74 Z" /><text x="330" y="5" text-anchor="end" font-family="Candara" font-size="18" transform="rotate(180, 330, 0)">CaliberForge</text><line stroke="black" stroke-width="1" stroke-dasharray="5, 5" x1="436.0" y1="0" x2="600" y2="0" /><circle cx="620" cy="0" r="4.756515347778788" fill="none" stroke="#149cd0" stroke-width="1" /><circle cx="660" cy="0" r="13.487811760998891" fill="#149cd0" stroke="#149cd0" stroke-width="1" /><path d="M 704.82,-15.99 A 705.00 705.00 0 0 1 704.82,15.99 L 689.82,15.65 A 690.00 690.00 0 0 0 689.82,-15.65 Z" fill="#fbfcfc" stroke="#6b6b6b" stroke-width="1" /></g><g transform="rotate(253.64485981308417)"><path d="M 299.92,-6.81 A 300.00 300.00 0 0 1 299.92,6.81 L 251.94,5.72 A 252.00 252.00 0 0 0 251.94,-5.72 Z" /><text x="330" y="5" text-anchor="end" font-family="Candara" font-size="18" transform="rotate(180, 330, 0)">TurnXpress</text><line stroke="black" stroke-width="1" stroke-dasharray="5, 5" x1="426.0" y1="0" x2="600" y2="0" /><circle cx="620" cy="0" r="13.070323525344003" fill="none" stroke="#149cd0" stroke-width="1" /><circle cx="660" cy="0" r="15.046508299379072" fill="#149cd0" stroke="#149cd0" stroke-width="1" /><path d="M 704.82,-15.99 A 705.00 705.00 0 0 1 704.82,15.99 L 689.82,15.65 A 690.00 690.00 0 0 0 689.82,-15.65 Z" fill="#f7f8f9" stroke="#6b6b6b" stroke-width="1" /></g><g transform="rotate(256.8224299065421)"><path d="M 299.92,-6.81 A 300.00 300.00 0 0 1 299.92,6.81 L 278.93,6.33 A 279.00 279.00 0 0 0 278.93,-6.33 Z" /><text x="330" y="5" text-anchor="end" font-family="Candara" font-size="18" transform="rotate(180, 330, 0)">InnoStamp</text><line stroke="black" stroke-width="1" stroke-dasharray="5, 5" x1="424.0" y1="0" x2="600" y2="0" /><circle cx="620" cy="0" r="12.546421518726152" fill="none" stroke="#149cd0" stroke-width="1" /><circle cx="660" cy="0" r="6.365780518125349" fill="#149cd0" stroke="#149cd0" stroke-width="1" /><path d="M 704.82,-15.99 A 705.00 705.00 0 0 1 704.82,15.99 L 689.82,15.65 A 690.00 690.00 0 0 0 689.82,-15.65 Z" fill="#f5f6f8" stroke="#6b6b6b" stroke-width="1" /></g><g transform="rotate(260.0)"><path d="M 299.92,-6.81 A 300.00 300.00 0 0 1 299.92,6.81 L 287.93,6.53 A 288.00 288.00 0 0 0 287.93,-6.53 Z" /><text x="330" y="5" text-anchor="end" font-family="Candara" font-size="18" transform="rotate(180, 330, 0)">ProHeatMach</text><line stroke="black" stroke-width="1" stroke-dasharray="5, 5" x1="444.0" y1="0" x2="600" y2="0" /><circle cx="620" cy="0" r="13.892121234469268" fill="none" stroke="#149cd0" stroke-width="1" /><circle cx="660" cy="0" r="15.590496146163227" fill="#149cd0" stroke="#149cd0" stroke-width="1" /><path d="M 704.82,-15.99 A 705.00 705.00 0 0 1 704.82,15.99 L 689.82,15.65 A 690.00 690.00 0 0 0 689.82,-15.65 Z" fill="#fefefe" stroke="#6b6b6b" stroke-width="1" /></g></g><text x="1024.0" y="160" font-family="Candara" font-size="48" font-weight="700" text-anchor="middle" stroke="none" fill="#6b6b6b">Supplier Quality Performance</text><g transform="translate(100 400)"><text x="0" y="0" font-family="Candara" font-size="32">Qty.</text><circle cx="2.045181744326452" cy="40" r="2.045181744326452" fill="none" stroke="#149cd0" stroke-width="1" /><text x="14.090363488652905" y="45" font-family="Candara" font-size="24">5K</text><circle cx="80" cy="40" r="16.00405626034441" fill="none" stroke="#149cd0" stroke-width="1" /><text x="106.00405626034441" y="45" font-family="Candara" font-size="24">300K</text><text x="0" y="90" font-family="Candara" font-size="32">Spend</text><circle cx="3.7523758427508307" cy="130" r="3.7523758427508307" fill="#149cd0" stroke="#149cd0" stroke-width="1" /><text x="17.50475168550166" y="135" font-family="Candara" font-size="24">$100K</text><circle cx="110" cy="130" r="16.044602502721276" fill="#149cd0" stroke="#149cd0" stroke-width="1" /><text x="136.04460250272126" y="135" font-family="Candara" font-size="24">$1M</text></g><g transform="translate(100 1700)"><text x="0" y="0" font-family="Candara" font-size="32">Segmentation</text><path d="M 15.61,37.53 L 12.76,41.55 L 12.70,46.47 L 8.00,45.00 L 3.30,46.47 L 3.24,41.55 L 0.39,37.53 L 5.06,35.95 L 8.00,32.00 L 10.94,35.95 Z" fill="#149cd0" stroke="#149cd0" stroke-width="1" /><text x="25" y="45" font-family="Candara" font-size="24">strategic</text><path d="M 15.61,67.53 L 12.76,71.55 L 12.70,76.47 L 8.00,75.00 L 3.30,76.47 L 3.24,71.55 L 0.39,67.53 L 5.06,65.95 L 8.00,62.00 L 10.94,65.95 Z" fill="none" stroke="#149cd0" stroke-width="1" /><text x="25" y="75" font-family="Candara" font-size="24">preffered</text><path d="M 2.34,102.83 L 5.17,105.66 L 8.00,102.83 L 10.83,105.66 L 13.66,102.83 L 10.83,100.00 L 13.66,97.17 L 10.83,94.34 L 8.00,97.17 L 5.17,94.34 L 2.34,97.17 L 5.17,100.00 Z" fill="#9e2a29" stroke="#9e2a29" stroke-width="1" /><text x="25" y="105" font-family="Candara" font-size="24">phase-out</text></g><g transform="translate(1600 1770)"><text x="0" y="0" font-family="Candara" font-size="32">PPM</text><text x="0" y="35" font-family="Candara" font-size="24">0</text><rect x="30" y="20" width="200" height="20" fill="url(#grad)" stroke="#6b6b6b" stroke-width="1" /><text x="245" y="35" font-family="Candara" font-size="24">10,000</text></g><defs><linearGradient id="grad"><stop offset="0%" style="stop-color:#ffffff;stop-opacity:1" /><stop offset="100%" style="stop-color:#14314f;stop-opacity:1" /></linearGradient></defs></svg>