<svg xmlns="http://www.w3.org/2000/svg" font-family="'Proza Libre', sans-serif" font-size="14" viewBox="0 0 1024 680" width="1024px" height="680px"><defs><g id="revenue-layer"><rect width="63.7593984962406" height="217.8635672251845" x="94.37593984962406" y="390.1364327748155" /><rect width="63.7593984962406" height="278.5523871770781" x="164.51127819548873" y="329.4476128229219" /><rect width="63.7593984962406" height="257.0085712020108" x="234.6466165413534" y="350.9914287979892" /><rect width="63.7593984962406" height="273.2117233474545" x="304.78195488721803" y="334.7882766525455" /><rect width="63.7593984962406" height="316.5484512003768" x="374.9172932330827" y="291.4515487996232" /><rect width="63.7593984962406" height="310.08745173142125" x="445.0526315789474" y="297.91254826857875" /><rect width="63.7593984962406" height="327.17972130978154" x="515.187969924812" y="280.82027869021846" /><rect width="63.7593984962406" height="435.9976835888034" x="585.3233082706768" y="172.0023164111966" /><rect width="63.7593984962406" height="469.97841700687957" x="655.4586466165414" y="138.02158299312043" /><rect width="63.7593984962406" height="456.8168569375795" x="725.593984962406" y="151.18314306242053" /><rect width="63.7593984962406" height="466.0536667299434" x="795.7293233082708" y="141.94633327005653" /><rect width="63.7593984962406" height="496.0" x="865.8646616541354" y="112.0" /></g><clipPath id="revenue-clip"><rect width="63.7593984962406" height="217.8635672251845" x="94.37593984962406" y="390.1364327748155" /><rect width="63.7593984962406" height="278.5523871770781" x="164.51127819548873" y="329.4476128229219" /><rect width="63.7593984962406" height="257.0085712020108" x="234.6466165413534" y="350.9914287979892" /><rect width="63.7593984962406" height="273.2117233474545" x="304.78195488721803" y="334.7882766525455" /><rect width="63.7593984962406" height="316.5484512003768" x="374.9172932330827" y="291.4515487996232" /><rect width="63.7593984962406" height="310.08745173142125" x="445.0526315789474" y="297.91254826857875" /><rect width="63.7593984962406" height="327.17972130978154" x="515.187969924812" y="280.82027869021846" /><rect width="63.7593984962406" height="435.9976835888034" x="585.3233082706768" y="172.0023164111966" /><rect width="63.7593984962406" height="469.97841700687957" x="655.4586466165414" y="138.02158299312043" /><rect width="63.7593984962406" height="456.8168569375795" x="725.593984962406" y="151.18314306242053" /><rect width="63.7593984962406" height="466.0536667299434" x="795.7293233082708" y="141.94633327005653" /><rect width="63.7593984962406" height="496.0" x="865.8646616541354" y="112.0" /></clipPath><linearGradient id="area-gradient" x1="0" y1="112" x2="0" y2="608.0" gradientUnits="userSpaceOnUse"><stop offset="0%" stop-color="#497d00" stop-opacity="1" /><stop offset="100%" stop-color="#497d00" stop-opacity="0.25" /></linearGradient><marker id="bottom-tick" markerWidth="10" markerHeight="10" viewBox="0 0 10 10" refX="5" refY="5" orient="0"><path d="M4 5h2v5H4z" fill="#18181b" stroke="none" stroke-width="1" /></marker></defs><text text-anchor="middle" font-size="32" fill="#18181b" font-weight="600" x="512.0" y="56.0">Apple</text><g><line stroke="#18181b" x1="88" y1="608.0" x2="936.0" y2="608.0" /><polyline stroke="none" fill="none" points="126.25563909774436,608.0 196.39097744360902,608.0 266.5263157894737,608.0 336.6616541353383,608.0 406.796992481203,608.0 476.9323308270677,608.0 547.0676691729324,608.0 617.2030075187971,608.0 687.3383458646617,608.0 757.4736842105264,608.0 827.6090225563911,608.0 897.7443609022557,608.0" marker-start="url(#bottom-tick)" marker-mid="url(#bottom-tick)" marker-end="url(#bottom-tick)" /><text text-anchor="middle" font-size="12" fill="#18181b" x="126.25563909774436" y="638.0">2014</text><text text-anchor="middle" font-size="12" fill="#18181b" x="196.39097744360902" y="638.0">2015</text><text text-anchor="middle" font-size="12" fill="#18181b" x="266.5263157894737" y="638.0">2016</text><text text-anchor="middle" font-size="12" fill="#18181b" x="336.6616541353383" y="638.0">2017</text><text text-anchor="middle" font-size="12" fill="#18181b" x="406.796992481203" y="638.0">2018</text><text text-anchor="middle" font-size="12" fill="#18181b" x="476.9323308270677" y="638.0">2019</text><text text-anchor="middle" font-size="12" fill="#18181b" x="547.0676691729324" y="638.0">2020</text><text text-anchor="middle" font-size="12" fill="#18181b" x="617.2030075187971" y="638.0">2021</text><text text-anchor="middle" font-size="12" fill="#18181b" x="687.3383458646617" y="638.0">2022</text><text text-anchor="middle" font-size="12" fill="#18181b" x="757.4736842105264" y="638.0">2023</text><text text-anchor="middle" font-size="12" fill="#18181b" x="827.6090225563911" y="638.0">2024</text><text text-anchor="middle" font-size="12" fill="#18181b" x="897.7443609022557" y="638.0">2025</text><line stroke="#18181b" opacity="0.15" x1="88" y1="608.0" x2="936.0" y2="608.0" /><text text-anchor="end" dominant-baseline="middle" font-size="12" fill="#1447e6" x="78" y="608.0">$0B</text><line stroke="#18181b" opacity="0.15" x1="88" y1="488.8153575178837" x2="936.0" y2="488.8153575178837" /><text text-anchor="end" dominant-baseline="middle" font-size="12" fill="#1447e6" x="78" y="488.8153575178837">$100B</text><line stroke="#18181b" opacity="0.15" x1="88" y1="369.63071503576737" x2="936.0" y2="369.63071503576737" /><text text-anchor="end" dominant-baseline="middle" font-size="12" fill="#1447e6" x="78" y="369.63071503576737">$200B</text><line stroke="#18181b" opacity="0.15" x1="88" y1="250.4460725536511" x2="936.0" y2="250.4460725536511" /><text text-anchor="end" dominant-baseline="middle" font-size="12" fill="#1447e6" x="78" y="250.4460725536511">$300B</text><line stroke="#18181b" opacity="0.15" x1="88" y1="131.2614300715348" x2="936.0" y2="131.2614300715348" /><text text-anchor="end" dominant-baseline="middle" font-size="12" fill="#1447e6" x="78" y="131.2614300715348">$400B</text><text dominant-baseline="middle" font-size="12" fill="#008236" x="946.0" y="608.0">$0</text><text dominant-baseline="middle" font-size="12" fill="#008236" x="946.0" y="430.1265951846528">$100</text><text dominant-baseline="middle" font-size="12" fill="#008236" x="946.0" y="252.25319036930557">$200</text></g><g><use fill="#1447e6" href="#revenue-layer" /></g><g><path fill="url(#area-gradient)" stroke="transparent" clip-path="url(#revenue-clip)" d="M 91.93,581.23 C 92.91,575.66 94.87,575.11 96.83,574.73 C 98.80,574.35 100.76,574.13 102.72,573.45 C 104.69,572.77 106.65,571.64 108.61,570.62 C 110.57,569.61 112.54,568.70 114.50,568.06 C 116.46,567.42 118.43,567.05 120.39,566.66 C 122.35,566.28 124.31,565.88 126.28,565.17 C 128.24,564.47 130.20,563.44 132.17,563.06 C 134.13,562.68 136.09,562.94 138.06,562.53 C 140.02,562.12 141.98,561.05 143.94,559.70 C 145.91,558.35 147.87,556.73 149.83,556.56 C 151.80,556.38 153.76,557.65 155.72,557.78 C 157.69,557.91 159.65,556.91 161.61,555.57 C 163.57,554.23 165.54,552.55 167.50,552.01 C 169.46,551.47 171.43,552.07 173.39,552.32 C 175.35,552.56 177.31,552.45 179.28,552.02 C 181.24,551.59 183.20,550.83 185.17,550.81 C 187.13,550.79 189.09,551.50 191.06,552.17 C 193.02,552.84 194.98,553.45 196.94,554.39 C 198.91,555.33 200.87,556.59 202.83,557.41 C 204.80,558.22 206.76,558.59 208.72,558.09 C 210.69,557.59 212.65,556.22 214.61,555.63 C 216.57,555.04 218.54,555.22 220.50,556.27 C 222.46,557.33 224.43,559.26 226.39,560.81 C 228.35,562.37 230.31,563.54 232.28,564.18 C 234.24,564.81 236.20,564.91 238.17,564.04 C 240.13,563.18 242.09,561.36 244.06,561.58 C 246.02,561.79 247.98,564.05 249.94,564.73 C 251.91,565.41 253.87,564.50 255.83,564.36 C 257.80,564.23 259.76,564.86 261.72,564.53 C 263.69,564.21 265.65,562.94 267.61,562.16 C 269.57,561.38 271.54,561.10 273.50,560.44 C 275.46,559.79 277.43,558.76 279.39,558.21 C 281.35,557.66 283.31,557.58 285.28,557.77 C 287.24,557.96 289.20,558.41 291.17,558.24 C 293.13,558.07 295.09,557.28 297.06,556.48 C 299.02,555.68 300.98,554.86 302.94,553.29 C 304.91,551.72 306.87,549.40 308.83,547.75 C 310.80,546.09 312.76,545.11 314.72,544.61 C 316.69,544.12 318.65,544.12 320.61,543.45 C 322.57,542.77 324.54,541.42 326.50,541.39 C 328.46,541.37 330.43,542.66 332.39,542.96 C 334.35,543.26 336.31,542.56 338.28,541.08 C 340.24,539.60 342.20,537.34 344.17,536.94 C 346.13,536.54 348.09,538.00 350.06,537.63 C 352.02,537.25 353.98,535.04 355.94,533.73 C 357.91,532.41 359.87,532.00 361.83,531.98 C 363.80,531.97 365.76,532.36 367.72,532.69 C 369.69,533.01 371.65,533.28 373.61,532.62 C 375.57,531.96 377.54,530.38 379.50,530.35 C 381.46,530.33 383.43,531.86 385.39,532.81 C 387.35,533.76 389.31,534.14 391.28,532.72 C 393.24,531.31 395.20,528.11 397.17,526.63 C 399.13,525.16 401.09,525.42 403.06,525.17 C 405.02,524.92 406.98,524.15 408.94,521.00 C 410.91,517.85 412.87,512.31 414.83,509.68 C 416.80,507.06 418.76,507.34 420.72,507.99 C 422.69,508.64 424.65,509.66 426.61,513.15 C 428.57,516.65 430.54,522.62 432.50,527.15 C 434.46,531.68 436.43,534.77 438.39,535.67 C 440.35,536.57 442.31,535.28 444.28,534.13 C 446.24,532.99 448.20,532.00 450.17,530.26 C 452.13,528.51 454.09,526.02 456.06,523.98 C 458.02,521.94 459.98,520.35 461.94,521.46 C 463.91,522.56 465.87,526.35 467.83,526.56 C 469.80,526.76 471.76,523.38 473.72,520.56 C 475.69,517.75 477.65,515.51 479.61,514.70 C 481.57,513.90 483.54,514.54 485.50,513.73 C 487.46,512.92 489.43,510.66 491.39,507.70 C 493.35,504.73 495.31,501.06 497.28,497.85 C 499.24,494.64 501.20,491.90 503.17,488.57 C 505.13,485.25 507.09,481.33 509.06,478.20 C 511.02,475.07 512.98,472.72 514.94,474.22 C 516.91,475.72 518.87,481.08 520.83,485.18 C 522.80,489.27 524.76,492.09 526.72,490.58 C 528.69,489.06 530.65,483.21 532.61,478.49 C 534.57,473.77 536.54,470.20 538.50,464.93 C 540.46,459.67 542.43,452.73 544.39,444.79 C 546.35,436.85 548.31,427.92 550.28,416.70 C 552.24,405.49 554.20,391.98 556.17,389.15 C 558.13,386.32 560.09,394.16 562.06,400.14 C 564.02,406.13 565.98,410.25 567.94,409.29 C 569.91,408.33 571.87,402.28 573.83,395.22 C 575.80,388.15 577.76,380.07 579.72,376.24 C 581.69,372.41 583.65,372.85 585.61,376.23 C 587.57,379.62 589.54,385.97 591.50,388.87 C 593.46,391.78 595.43,391.26 597.39,388.23 C 599.35,385.21 601.31,379.69 603.28,378.96 C 605.24,378.23 607.20,382.29 609.17,380.66 C 611.13,379.03 613.09,371.71 615.06,365.41 C 617.02,359.11 618.98,353.83 620.94,349.42 C 622.91,345.01 624.87,341.47 626.83,342.77 C 628.80,344.06 630.76,350.18 632.72,350.79 C 634.69,351.39 636.65,346.47 638.61,339.41 C 640.57,332.36 642.54,323.17 644.50,314.93 C 646.46,306.70 648.43,299.43 650.39,296.61 C 652.35,293.80 654.31,295.46 656.28,299.15 C 658.24,302.84 660.20,308.57 662.17,308.62 C 664.13,308.67 666.09,303.04 668.06,305.26 C 670.02,307.47 671.98,317.53 673.94,325.17 C 675.91,332.81 677.87,338.03 679.83,344.23 C 681.80,350.44 683.76,357.63 685.72,353.57 C 687.69,349.52 689.65,334.23 691.61,328.15 C 693.57,322.07 695.54,325.21 697.50,332.42 C 699.46,339.62 701.43,350.90 703.39,352.05 C 705.35,353.20 707.31,344.23 709.28,341.31 C 711.24,338.40 713.20,341.55 715.17,348.49 C 717.13,355.43 719.09,366.16 721.06,367.27 C 723.02,368.37 724.98,359.86 726.94,354.68 C 728.91,349.50 730.87,347.65 732.83,341.54 C 734.80,335.43 736.76,325.06 738.72,318.45 C 740.69,311.85 742.65,309.02 744.61,305.36 C 746.57,301.70 748.54,297.21 750.50,290.01 C 752.46,282.81 754.43,272.89 756.39,267.20 C 758.35,261.51 760.31,260.04 762.28,261.85 C 764.24,263.65 766.20,268.74 768.17,276.22 C 770.13,283.71 772.09,293.59 774.06,298.65 C 776.02,303.72 777.98,303.98 779.94,298.43 C 781.91,292.87 783.87,281.50 785.83,275.05 C 787.80,268.60 789.76,267.07 791.72,268.72 C 793.69,270.36 795.65,275.18 797.61,278.67 C 799.57,282.17 801.54,284.33 803.50,288.16 C 805.46,291.99 807.43,297.49 809.39,300.58 C 811.35,303.66 813.31,304.35 815.28,298.19 C 817.24,292.03 819.20,279.03 821.17,267.09 C 823.13,255.15 825.09,244.25 827.06,235.41 C 829.02,226.57 830.98,219.77 832.94,214.32 C 834.91,208.88 836.87,204.77 838.83,201.54 C 840.80,198.30 842.76,195.93 844.72,196.84 C 846.69,197.76 848.65,201.96 850.61,200.68 C 852.57,199.40 854.54,192.62 856.50,185.36 C 858.46,178.09 860.43,170.33 862.39,170.72 C 864.35,171.12 866.31,179.67 868.28,182.21 C 870.24,184.76 872.20,181.29 874.17,185.41 C 876.13,189.52 878.09,201.20 880.06,209.90 C 882.02,218.60 883.98,224.31 885.94,230.62 C 887.91,236.93 889.87,243.83 891.83,246.01 C 893.80,248.18 895.76,245.62 897.72,243.63 C 899.69,241.63 901.65,240.21 903.61,232.22 C 905.57,224.22 907.54,209.65 909.50,195.70 C 911.46,181.75 913.43,168.42 915.39,157.08 C 917.35,145.75 919.31,136.42 921.28,129.24 C 923.24,122.06 925.20,117.03 927.17,116.59 C 929.13,116.14 931.09,120.29 932.07,202.96 C 933.06,285.62 933.06,446.81 932.07,527.41 C 931.09,608.00 929.13,608.00 927.17,608.00 C 925.20,608.00 923.24,608.00 921.28,608.00 C 919.31,608.00 917.35,608.00 915.39,608.00 C 913.43,608.00 911.46,608.00 909.50,608.00 C 907.54,608.00 905.57,608.00 903.61,608.00 C 901.65,608.00 899.69,608.00 897.72,608.00 C 895.76,608.00 893.80,608.00 891.83,608.00 C 889.87,608.00 887.91,608.00 885.94,608.00 C 883.98,608.00 882.02,608.00 880.06,608.00 C 878.09,608.00 876.13,608.00 874.17,608.00 C 872.20,608.00 870.24,608.00 868.28,608.00 C 866.31,608.00 864.35,608.00 862.39,608.00 C 860.43,608.00 858.46,608.00 856.50,608.00 C 854.54,608.00 852.57,608.00 850.61,608.00 C 848.65,608.00 846.69,608.00 844.72,608.00 C 842.76,608.00 840.80,608.00 838.83,608.00 C 836.87,608.00 834.91,608.00 832.94,608.00 C 830.98,608.00 829.02,608.00 827.06,608.00 C 825.09,608.00 823.13,608.00 821.17,608.00 C 819.20,608.00 817.24,608.00 815.28,608.00 C 813.31,608.00 811.35,608.00 809.39,608.00 C 807.43,608.00 805.46,608.00 803.50,608.00 C 801.54,608.00 799.57,608.00 797.61,608.00 C 795.65,608.00 793.69,608.00 791.72,608.00 C 789.76,608.00 787.80,608.00 785.83,608.00 C 783.87,608.00 781.91,608.00 779.94,608.00 C 777.98,608.00 776.02,608.00 774.06,608.00 C 772.09,608.00 770.13,608.00 768.17,608.00 C 766.20,608.00 764.24,608.00 762.28,608.00 C 760.31,608.00 758.35,608.00 756.39,608.00 C 754.43,608.00 752.46,608.00 750.50,608.00 C 748.54,608.00 746.57,608.00 744.61,608.00 C 742.65,608.00 740.69,608.00 738.72,608.00 C 736.76,608.00 734.80,608.00 732.83,608.00 C 730.87,608.00 728.91,608.00 726.94,608.00 C 724.98,608.00 723.02,608.00 721.06,608.00 C 719.09,608.00 717.13,608.00 715.17,608.00 C 713.20,608.00 711.24,608.00 709.28,608.00 C 707.31,608.00 705.35,608.00 703.39,608.00 C 701.43,608.00 699.46,608.00 697.50,608.00 C 695.54,608.00 693.57,608.00 691.61,608.00 C 689.65,608.00 687.69,608.00 685.72,608.00 C 683.76,608.00 681.80,608.00 679.83,608.00 C 677.87,608.00 675.91,608.00 673.94,608.00 C 671.98,608.00 670.02,608.00 668.06,608.00 C 666.09,608.00 664.13,608.00 662.17,608.00 C 660.20,608.00 658.24,608.00 656.28,608.00 C 654.31,608.00 652.35,608.00 650.39,608.00 C 648.43,608.00 646.46,608.00 644.50,608.00 C 642.54,608.00 640.57,608.00 638.61,608.00 C 636.65,608.00 634.69,608.00 632.72,608.00 C 630.76,608.00 628.80,608.00 626.83,608.00 C 624.87,608.00 622.91,608.00 620.94,608.00 C 618.98,608.00 617.02,608.00 615.06,608.00 C 613.09,608.00 611.13,608.00 609.17,608.00 C 607.20,608.00 605.24,608.00 603.28,608.00 C 601.31,608.00 599.35,608.00 597.39,608.00 C 595.43,608.00 593.46,608.00 591.50,608.00 C 589.54,608.00 587.57,608.00 585.61,608.00 C 583.65,608.00 581.69,608.00 579.72,608.00 C 577.76,608.00 575.80,608.00 573.83,608.00 C 571.87,608.00 569.91,608.00 567.94,608.00 C 565.98,608.00 564.02,608.00 562.06,608.00 C 560.09,608.00 558.13,608.00 556.17,608.00 C 554.20,608.00 552.24,608.00 550.28,608.00 C 548.31,608.00 546.35,608.00 544.39,608.00 C 542.43,608.00 540.46,608.00 538.50,608.00 C 536.54,608.00 534.57,608.00 532.61,608.00 C 530.65,608.00 528.69,608.00 526.72,608.00 C 524.76,608.00 522.80,608.00 520.83,608.00 C 518.87,608.00 516.91,608.00 514.94,608.00 C 512.98,608.00 511.02,608.00 509.06,608.00 C 507.09,608.00 505.13,608.00 503.17,608.00 C 501.20,608.00 499.24,608.00 497.28,608.00 C 495.31,608.00 493.35,608.00 491.39,608.00 C 489.43,608.00 487.46,608.00 485.50,608.00 C 483.54,608.00 481.57,608.00 479.61,608.00 C 477.65,608.00 475.69,608.00 473.72,608.00 C 471.76,608.00 469.80,608.00 467.83,608.00 C 465.87,608.00 463.91,608.00 461.94,608.00 C 459.98,608.00 458.02,608.00 456.06,608.00 C 454.09,608.00 452.13,608.00 450.17,608.00 C 448.20,608.00 446.24,608.00 444.28,608.00 C 442.31,608.00 440.35,608.00 438.39,608.00 C 436.43,608.00 434.46,608.00 432.50,608.00 C 430.54,608.00 428.57,608.00 426.61,608.00 C 424.65,608.00 422.69,608.00 420.72,608.00 C 418.76,608.00 416.80,608.00 414.83,608.00 C 412.87,608.00 410.91,608.00 408.94,608.00 C 406.98,608.00 405.02,608.00 403.06,608.00 C 401.09,608.00 399.13,608.00 397.17,608.00 C 395.20,608.00 393.24,608.00 391.28,608.00 C 389.31,608.00 387.35,608.00 385.39,608.00 C 383.43,608.00 381.46,608.00 379.50,608.00 C 377.54,608.00 375.57,608.00 373.61,608.00 C 371.65,608.00 369.69,608.00 367.72,608.00 C 365.76,608.00 363.80,608.00 361.83,608.00 C 359.87,608.00 357.91,608.00 355.94,608.00 C 353.98,608.00 352.02,608.00 350.06,608.00 C 348.09,608.00 346.13,608.00 344.17,608.00 C 342.20,608.00 340.24,608.00 338.28,608.00 C 336.31,608.00 334.35,608.00 332.39,608.00 C 330.43,608.00 328.46,608.00 326.50,608.00 C 324.54,608.00 322.57,608.00 320.61,608.00 C 318.65,608.00 316.69,608.00 314.72,608.00 C 312.76,608.00 310.80,608.00 308.83,608.00 C 306.87,608.00 304.91,608.00 302.94,608.00 C 300.98,608.00 299.02,608.00 297.06,608.00 C 295.09,608.00 293.13,608.00 291.17,608.00 C 289.20,608.00 287.24,608.00 285.28,608.00 C 283.31,608.00 281.35,608.00 279.39,608.00 C 277.43,608.00 275.46,608.00 273.50,608.00 C 271.54,608.00 269.57,608.00 267.61,608.00 C 265.65,608.00 263.69,608.00 261.72,608.00 C 259.76,608.00 257.80,608.00 255.83,608.00 C 253.87,608.00 251.91,608.00 249.94,608.00 C 247.98,608.00 246.02,608.00 244.06,608.00 C 242.09,608.00 240.13,608.00 238.17,608.00 C 236.20,608.00 234.24,608.00 232.28,608.00 C 230.31,608.00 228.35,608.00 226.39,608.00 C 224.43,608.00 222.46,608.00 220.50,608.00 C 218.54,608.00 216.57,608.00 214.61,608.00 C 212.65,608.00 210.69,608.00 208.72,608.00 C 206.76,608.00 204.80,608.00 202.83,608.00 C 200.87,608.00 198.91,608.00 196.94,608.00 C 194.98,608.00 193.02,608.00 191.06,608.00 C 189.09,608.00 187.13,608.00 185.17,608.00 C 183.20,608.00 181.24,608.00 179.28,608.00 C 177.31,608.00 175.35,608.00 173.39,608.00 C 171.43,608.00 169.46,608.00 167.50,608.00 C 165.54,608.00 163.57,608.00 161.61,608.00 C 159.65,608.00 157.69,608.00 155.72,608.00 C 153.76,608.00 151.80,608.00 149.83,608.00 C 147.87,608.00 145.91,608.00 143.94,608.00 C 141.98,608.00 140.02,608.00 138.06,608.00 C 136.09,608.00 134.13,608.00 132.17,608.00 C 130.20,608.00 128.24,608.00 126.28,608.00 C 124.31,608.00 122.35,608.00 120.39,608.00 C 118.43,608.00 116.46,608.00 114.50,608.00 C 112.54,608.00 110.57,608.00 108.61,608.00 C 106.65,608.00 104.69,608.00 102.72,608.00 C 100.76,608.00 98.80,608.00 96.83,608.00 C 94.87,608.00 92.91,608.00 91.93,602.70 C 90.94,597.40 90.94,586.80 91.93,581.23 Z" /><path fill="transparent" stroke="#00411b" stroke-width="3" d="M 90.94,576.20 C 92.91,575.66 94.87,575.11 96.83,574.73 C 98.80,574.35 100.76,574.13 102.72,573.45 C 104.69,572.77 106.65,571.64 108.61,570.62 C 110.57,569.61 112.54,568.70 114.50,568.06 C 116.46,567.42 118.43,567.05 120.39,566.66 C 122.35,566.28 124.31,565.88 126.28,565.17 C 128.24,564.47 130.20,563.44 132.17,563.06 C 134.13,562.68 136.09,562.94 138.06,562.53 C 140.02,562.12 141.98,561.05 143.94,559.70 C 145.91,558.35 147.87,556.73 149.83,556.56 C 151.80,556.38 153.76,557.65 155.72,557.78 C 157.69,557.91 159.65,556.91 161.61,555.57 C 163.57,554.23 165.54,552.55 167.50,552.01 C 169.46,551.47 171.43,552.07 173.39,552.32 C 175.35,552.56 177.31,552.45 179.28,552.02 C 181.24,551.59 183.20,550.83 185.17,550.81 C 187.13,550.79 189.09,551.50 191.06,552.17 C 193.02,552.84 194.98,553.45 196.94,554.39 C 198.91,555.33 200.87,556.59 202.83,557.41 C 204.80,558.22 206.76,558.59 208.72,558.09 C 210.69,557.59 212.65,556.22 214.61,555.63 C 216.57,555.04 218.54,555.22 220.50,556.27 C 222.46,557.33 224.43,559.26 226.39,560.81 C 228.35,562.37 230.31,563.54 232.28,564.18 C 234.24,564.81 236.20,564.91 238.17,564.04 C 240.13,563.18 242.09,561.36 244.06,561.58 C 246.02,561.79 247.98,564.05 249.94,564.73 C 251.91,565.41 253.87,564.50 255.83,564.36 C 257.80,564.23 259.76,564.86 261.72,564.53 C 263.69,564.21 265.65,562.94 267.61,562.16 C 269.57,561.38 271.54,561.10 273.50,560.44 C 275.46,559.79 277.43,558.76 279.39,558.21 C 281.35,557.66 283.31,557.58 285.28,557.77 C 287.24,557.96 289.20,558.41 291.17,558.24 C 293.13,558.07 295.09,557.28 297.06,556.48 C 299.02,555.68 300.98,554.86 302.94,553.29 C 304.91,551.72 306.87,549.40 308.83,547.75 C 310.80,546.09 312.76,545.11 314.72,544.61 C 316.69,544.12 318.65,544.12 320.61,543.45 C 322.57,542.77 324.54,541.42 326.50,541.39 C 328.46,541.37 330.43,542.66 332.39,542.96 C 334.35,543.26 336.31,542.56 338.28,541.08 C 340.24,539.60 342.20,537.34 344.17,536.94 C 346.13,536.54 348.09,538.00 350.06,537.63 C 352.02,537.25 353.98,535.04 355.94,533.73 C 357.91,532.41 359.87,532.00 361.83,531.98 C 363.80,531.97 365.76,532.36 367.72,532.69 C 369.69,533.01 371.65,533.28 373.61,532.62 C 375.57,531.96 377.54,530.38 379.50,530.35 C 381.46,530.33 383.43,531.86 385.39,532.81 C 387.35,533.76 389.31,534.14 391.28,532.72 C 393.24,531.31 395.20,528.11 397.17,526.63 C 399.13,525.16 401.09,525.42 403.06,525.17 C 405.02,524.92 406.98,524.15 408.94,521.00 C 410.91,517.85 412.87,512.31 414.83,509.68 C 416.80,507.06 418.76,507.34 420.72,507.99 C 422.69,508.64 424.65,509.66 426.61,513.15 C 428.57,516.65 430.54,522.62 432.50,527.15 C 434.46,531.68 436.43,534.77 438.39,535.67 C 440.35,536.57 442.31,535.28 444.28,534.13 C 446.24,532.99 448.20,532.00 450.17,530.26 C 452.13,528.51 454.09,526.02 456.06,523.98 C 458.02,521.94 459.98,520.35 461.94,521.46 C 463.91,522.56 465.87,526.35 467.83,526.56 C 469.80,526.76 471.76,523.38 473.72,520.56 C 475.69,517.75 477.65,515.51 479.61,514.70 C 481.57,513.90 483.54,514.54 485.50,513.73 C 487.46,512.92 489.43,510.66 491.39,507.70 C 493.35,504.73 495.31,501.06 497.28,497.85 C 499.24,494.64 501.20,491.90 503.17,488.57 C 505.13,485.25 507.09,481.33 509.06,478.20 C 511.02,475.07 512.98,472.72 514.94,474.22 C 516.91,475.72 518.87,481.08 520.83,485.18 C 522.80,489.27 524.76,492.09 526.72,490.58 C 528.69,489.06 530.65,483.21 532.61,478.49 C 534.57,473.77 536.54,470.20 538.50,464.93 C 540.46,459.67 542.43,452.73 544.39,444.79 C 546.35,436.85 548.31,427.92 550.28,416.70 C 552.24,405.49 554.20,391.98 556.17,389.15 C 558.13,386.32 560.09,394.16 562.06,400.14 C 564.02,406.13 565.98,410.25 567.94,409.29 C 569.91,408.33 571.87,402.28 573.83,395.22 C 575.80,388.15 577.76,380.07 579.72,376.24 C 581.69,372.41 583.65,372.85 585.61,376.23 C 587.57,379.62 589.54,385.97 591.50,388.87 C 593.46,391.78 595.43,391.26 597.39,388.23 C 599.35,385.21 601.31,379.69 603.28,378.96 C 605.24,378.23 607.20,382.29 609.17,380.66 C 611.13,379.03 613.09,371.71 615.06,365.41 C 617.02,359.11 618.98,353.83 620.94,349.42 C 622.91,345.01 624.87,341.47 626.83,342.77 C 628.80,344.06 630.76,350.18 632.72,350.79 C 634.69,351.39 636.65,346.47 638.61,339.41 C 640.57,332.36 642.54,323.17 644.50,314.93 C 646.46,306.70 648.43,299.43 650.39,296.61 C 652.35,293.80 654.31,295.46 656.28,299.15 C 658.24,302.84 660.20,308.57 662.17,308.62 C 664.13,308.67 666.09,303.04 668.06,305.26 C 670.02,307.47 671.98,317.53 673.94,325.17 C 675.91,332.81 677.87,338.03 679.83,344.23 C 681.80,350.44 683.76,357.63 685.72,353.57 C 687.69,349.52 689.65,334.23 691.61,328.15 C 693.57,322.07 695.54,325.21 697.50,332.42 C 699.46,339.62 701.43,350.90 703.39,352.05 C 705.35,353.20 707.31,344.23 709.28,341.31 C 711.24,338.40 713.20,341.55 715.17,348.49 C 717.13,355.43 719.09,366.16 721.06,367.27 C 723.02,368.37 724.98,359.86 726.94,354.68 C 728.91,349.50 730.87,347.65 732.83,341.54 C 734.80,335.43 736.76,325.06 738.72,318.45 C 740.69,311.85 742.65,309.02 744.61,305.36 C 746.57,301.70 748.54,297.21 750.50,290.01 C 752.46,282.81 754.43,272.89 756.39,267.20 C 758.35,261.51 760.31,260.04 762.28,261.85 C 764.24,263.65 766.20,268.74 768.17,276.22 C 770.13,283.71 772.09,293.59 774.06,298.65 C 776.02,303.72 777.98,303.98 779.94,298.43 C 781.91,292.87 783.87,281.50 785.83,275.05 C 787.80,268.60 789.76,267.07 791.72,268.72 C 793.69,270.36 795.65,275.18 797.61,278.67 C 799.57,282.17 801.54,284.33 803.50,288.16 C 805.46,291.99 807.43,297.49 809.39,300.58 C 811.35,303.66 813.31,304.35 815.28,298.19 C 817.24,292.03 819.20,279.03 821.17,267.09 C 823.13,255.15 825.09,244.25 827.06,235.41 C 829.02,226.57 830.98,219.77 832.94,214.32 C 834.91,208.88 836.87,204.77 838.83,201.54 C 840.80,198.30 842.76,195.93 844.72,196.84 C 846.69,197.76 848.65,201.96 850.61,200.68 C 852.57,199.40 854.54,192.62 856.50,185.36 C 858.46,178.09 860.43,170.33 862.39,170.72 C 864.35,171.12 866.31,179.67 868.28,182.21 C 870.24,184.76 872.20,181.29 874.17,185.41 C 876.13,189.52 878.09,201.20 880.06,209.90 C 882.02,218.60 883.98,224.31 885.94,230.62 C 887.91,236.93 889.87,243.83 891.83,246.01 C 893.80,248.18 895.76,245.62 897.72,243.63 C 899.69,241.63 901.65,240.21 903.61,232.22 C 905.57,224.22 907.54,209.65 909.50,195.70 C 911.46,181.75 913.43,168.42 915.39,157.08 C 917.35,145.75 919.31,136.42 921.28,129.24 C 923.24,122.06 925.20,117.03 927.17,116.59 C 929.13,116.14 931.09,120.29 933.06,124.43" /></g><g transform="translate(30 40)"><svg xml:space="preserve" fill-rule="evenodd" stroke-linejoin="round" stroke-miterlimit="2" clip-rule="evenodd" viewBox="0 0 60 40" width="60" height="40"><path id="background-strips" fill="#e8e8eb" d="M1.557 1.487h56.885v37.02H1.557z" />
    <path id="background" fill="#e7e7e9" d="M1.557 30.9V1.486H17.97zM22.313 1.486h15.016L16.67 38.512H1.557v-1.086l.538.3zm24.12 0h2.807L28.582 38.512h-2.806zm6.009 0h6v37.025H31.783z" />
    <path id="frame" fill="#1447e6" d="M60 3.09v33.82A3.09 3.09 0 0 1 56.91 40H3.09A3.09 3.09 0 0 1 0 36.91V3.09A3.09 3.09 0 0 1 3.09 0h53.82A3.09 3.09 0 0 1 60 3.09m-2.225 0a.866.866 0 0 0-.865-.865H3.09a.866.866 0 0 0-.865.865v33.82c0 .477.388.865.865.865h53.82a.866.866 0 0 0 .865-.865z" />
    <path id="chart" fill="#1447e6" d="M7.219 4.35v1.364H3.78V4.35zm0 3.741v1.365H3.78V8.091zm0 3.742v1.365H3.78v-1.365zm0 3.742v1.365H3.78v-1.365zm0 3.742v1.365H3.78v-1.365zm0 3.742v1.365H3.78V23.06zm0 3.742v1.365H3.78v-1.365zm0 3.742v1.366H3.78v-1.366zm0 3.742v1.366H3.78v-1.366zM14.247 7.029v31.482H10.81V7.029zm5.44 1.745v29.737h-3.44V8.774zm5.44 2.301v27.436h-3.44V11.075zm5.438-1.619v29.055h-3.44V9.456zm5.44 9.861v19.194h-3.44V19.317zm5.438 1.881v17.313h-3.438V21.198zm5.439 3.227v14.086h-3.439V24.425zm5.439-2.377v16.463h-3.439V22.048z" /></svg><text fill="#1447e6" font-size="22" text-anchor="start" x="70" y="30">Total Revenue</text></g><g transform="translate(934 40)"><svg xml:space="preserve" fill-rule="evenodd" stroke-linejoin="round" stroke-miterlimit="2" clip-rule="evenodd" viewBox="0 0 60 40" width="60" height="40"><path id="background-strips" fill="#e8e8eb" d="M1.557 1.487h56.885v37.02H1.557z" />
    <path id="background" fill="#e7e7e9" d="M1.557 30.9V1.486H17.97zM22.313 1.486h15.016L16.67 38.512H1.557v-1.086l.538.3zm24.12 0h2.807L28.582 38.512h-2.806zm6.009 0h6v37.025H31.783z" />
    <path id="frame" fill="#008236" d="M60 3.09v33.82A3.09 3.09 0 0 1 56.91 40H3.09A3.09 3.09 0 0 1 0 36.91V3.09A3.09 3.09 0 0 1 3.09 0h53.82A3.09 3.09 0 0 1 60 3.09m-2.225 0a.866.866 0 0 0-.865-.865H3.09a.866.866 0 0 0-.865.865v33.82c0 .477.388.865.865.865h53.82a.866.866 0 0 0 .865-.865z" />
    <path id="chart" fill="#008236" d="M56.018 4.35v1.364h-3.439V4.35zm0 3.741v1.365h-3.439V8.091zm0 3.742v1.365h-3.439v-1.365zm0 3.742v1.365h-3.439v-1.365zm0 3.742v1.365h-3.439v-1.365zm0 3.742v1.365h-3.439V23.06zm0 3.742v1.365h-3.439v-1.365zm0 3.742v1.366h-3.439v-1.366zm0 3.742v1.366h-3.439v-1.366zM10.37 22.639a1.364 1.364 0 0 1-1.331 1.667 1.366 1.366 0 1 1 .232-2.711l3.876-4.084a1.36 1.36 0 0 1 1.33-1.666l.092.002 4.055-5.27a1.366 1.366 0 1 1 2.554.087l4.18 6.277a1.366 1.366 0 0 1 1.353 1.541l3.729 3.259a1.368 1.368 0 0 1 1.711 1.15l3.409 1.712a1.363 1.363 0 0 1 1.654.236l3.206-.588a1.367 1.367 0 0 1 2.105-.526l3.275-1.044a1.366 1.366 0 1 1 .46 1.446l-3.274 1.044a1.367 1.367 0 0 1-2.292.572l-3.206.588a1.366 1.366 0 0 1-2.61-.372l-3.408-1.712a1.366 1.366 0 0 1-2.029-1.364l-3.73-3.259a1.365 1.365 0 0 1-1.616-1.843l-4.18-6.277q-.046 0-.088-.003l-4.055 5.271q.071.208.072.438a1.366 1.366 0 0 1-1.597 1.346z" /></svg><text fill="#008236" font-size="22" text-anchor="end" x="-10" y="30">Stock Price</text></g></svg>