<svg xmlns="http://www.w3.org/2000/svg" font-family="'Proza Libre', sans-serif" font-size="14" viewBox="0 0 800 400" width="800px" height="400px"><defs><marker id="bottom-tick" markerWidth="10" markerHeight="10" viewBox="0 0 10 10" refX="5" refY="5" orient="0"><path d="M4 5h2v5H4z" fill="#18181b" stroke="none" stroke-width="1" /></marker></defs><g><line stroke="#18181b" stroke-width="1" x1="50" y1="350.0" x2="695.0" y2="350.0" /><polyline stroke="none" fill="none" points="53.225,350.0 214.475,350.0 375.725,350.0 530.5250000000001,350.0 691.775,350.0" marker-start="url(#bottom-tick)" marker-mid="url(#bottom-tick)" marker-end="url(#bottom-tick)" /><text font-size="13" fill="#18181b" text-anchor="middle" x="53.225" y="380.0">01 Jul</text><text font-size="13" fill="#18181b" text-anchor="middle" x="214.475" y="380.0">26 Jul</text><text font-size="13" fill="#18181b" text-anchor="middle" x="375.725" y="380.0">20 Aug</text><text font-size="13" fill="#18181b" text-anchor="middle" x="530.5250000000001" y="380.0">13 Sep</text><text font-size="13" fill="#18181b" text-anchor="middle" x="691.775" y="380.0">08 Oct</text><line stroke="#18181b" opacity="0.18" x1="50" y1="284.4032258064516" x2="695.0" y2="284.4032258064516" /><text font-size="13" fill="#18181b" text-anchor="end" x="40" y="288.4032258064516">50</text><line stroke="#18181b" opacity="0.18" x1="50" y1="217.46774193548387" x2="695.0" y2="217.46774193548387" /><text font-size="13" fill="#18181b" text-anchor="end" x="40" y="221.46774193548387">100</text><line stroke="#18181b" opacity="0.18" x1="50" y1="150.53225806451613" x2="695.0" y2="150.53225806451613" /><text font-size="13" fill="#18181b" text-anchor="end" x="40" y="154.53225806451613">150</text><line stroke="#18181b" opacity="0.18" x1="50" y1="83.59677419354841" x2="695.0" y2="83.59677419354841" /><text font-size="13" fill="#18181b" text-anchor="end" x="40" y="87.59677419354841">200</text></g><g><polyline stroke="#00786f" stroke-width="2" fill="transparent" points="53.225,134.46774193548387 59.675,125.09677419354841 66.125,110.37096774193549 72.575,102.33870967741936 79.025,87.61290322580646 85.475,103.67741935483872 91.92500000000001,105.01612903225808 98.375,90.29032258064518 104.825,84.93548387096774 111.275,71.5483870967742 117.72500000000001,84.93548387096774 124.175,84.93548387096774 130.625,94.30645161290323 137.075,92.9677419354839 143.525,90.29032258064518 149.97500000000002,106.35483870967744 156.425,115.72580645161293 162.875,123.75806451612905 169.325,109.03225806451616 175.775,101.00000000000003 182.225,111.70967741935485 188.675,102.33870967741936 195.125,114.38709677419357 201.57500000000002,110.37096774193549 208.025,122.4193548387097 214.475,139.8225806451613 220.925,126.43548387096774 227.375,137.1451612903226 233.82500000000002,146.51612903225808 240.275,130.45161290322582 246.725,117.06451612903228 253.175,125.09677419354841 259.625,109.03225806451616 266.07500000000005,107.6935483870968 272.525,102.33870967741936 278.975,111.70967741935485 285.425,96.98387096774195 291.875,90.29032258064518 298.32500000000005,75.56451612903226 304.775,62.17741935483872 311.225,68.87096774193549 317.675,72.88709677419354 324.125,84.93548387096774 330.575,95.64516129032259 337.02500000000003,110.37096774193549 343.475,117.06451612903228 349.925,114.38709677419357 356.375,130.45161290322582 362.825,125.09677419354841 369.27500000000003,130.45161290322582 375.725,135.80645161290323 382.175,125.09677419354841 388.625,126.43548387096774 395.075,133.12903225806454 401.52500000000003,133.12903225806454 407.975,126.43548387096774 414.425,141.16129032258067 420.875,125.09677419354841 427.325,141.16129032258067 433.77500000000003,133.12903225806454 440.225,121.08064516129033 446.675,137.1451612903226 453.125,127.7741935483871 459.575,131.79032258064518 466.02500000000003,129.11290322580646 472.475,146.51612903225808 478.925,161.24193548387098 485.375,171.95161290322582 491.825,157.22580645161293 498.27500000000003,166.59677419354838 504.725,158.56451612903226 511.175,143.83870967741936 517.625,129.11290322580646 524.075,134.46774193548387 530.5250000000001,138.48387096774195 536.975,138.48387096774195 543.425,129.11290322580646 549.875,142.5 556.325,134.46774193548387 562.775,123.75806451612905 569.225,111.70967741935485 575.6750000000001,127.7741935483871 582.125,113.0483870967742 588.575,126.43548387096774 595.025,131.79032258064518 601.475,127.7741935483871 607.9250000000001,114.38709677419357 614.375,119.74193548387098 620.825,105.01612903225808 627.275,103.67741935483872 633.725,110.37096774193549 640.1750000000001,115.72580645161293 646.625,126.43548387096774 653.075,141.16129032258067 659.525,151.8709677419355 665.975,146.51612903225808 672.4250000000001,129.11290322580646 678.875,141.16129032258067 685.325,155.88709677419357 691.775,139.8225806451613" /><polyline stroke="#000978" stroke-width="2" fill="transparent" points="53.225,75.56451612903226 59.675,75.56451612903226 66.125,83.59677419354841 72.575,99.66129032258067 79.025,94.30645161290323 85.475,95.64516129032259 91.92500000000001,87.61290322580646 98.375,91.62903225806451 104.825,82.25806451612902 111.275,90.29032258064518 117.72500000000001,79.58064516129036 124.175,71.5483870967742 130.625,75.56451612903226 137.075,74.22580645161293 143.525,67.53225806451616 149.97500000000002,78.24193548387098 156.425,75.56451612903226 162.875,66.19354838709677 169.325,74.22580645161293 175.775,63.51612903225811 182.225,56.82258064516128 188.675,46.11290322580646 195.125,51.4677419354839 201.57500000000002,64.85483870967744 208.025,55.48387096774195 214.475,44.77419354838713 220.925,46.11290322580646 227.375,59.5 233.82500000000002,70.20967741935488 240.275,66.19354838709677 246.725,72.88709677419354 253.175,58.16129032258067 259.625,54.14516129032262 266.07500000000005,64.85483870967744 272.525,59.5 278.975,63.51612903225811 285.425,50.12903225806451 291.875,35.403225806451644 298.32500000000005,35.403225806451644 304.775,30.048387096774206 311.225,27.370967741935488 317.675,23.354838709677438 324.125,18.0 330.575,48.79032258064518 337.02500000000003,54.14516129032262 343.475,50.12903225806451 349.925,56.82258064516128 356.375,54.14516129032262 362.825,67.53225806451616 369.27500000000003,55.48387096774195 375.725,54.14516129032262 382.175,67.53225806451616 388.625,62.17741935483872 395.075,67.53225806451616 401.52500000000003,78.24193548387098 407.975,78.24193548387098 414.425,90.29032258064518 420.875,101.00000000000003 427.325,87.61290322580646 433.77500000000003,80.9193548387097 440.225,98.32258064516131 446.675,88.9516129032258 453.125,105.01612903225808 459.575,110.37096774193549 466.02500000000003,96.98387096774195 472.475,92.9677419354839 478.925,99.66129032258067 485.375,103.67741935483872 491.825,106.35483870967744 498.27500000000003,119.74193548387098 504.725,102.33870967741936 511.175,117.06451612903228 517.625,119.74193548387098 524.075,111.70967741935485 530.5250000000001,115.72580645161293 536.975,99.66129032258067 543.425,107.6935483870968 549.875,91.62903225806451 556.325,78.24193548387098 562.775,72.88709677419354 569.225,59.5 575.6750000000001,62.17741935483872 582.125,50.12903225806451 588.575,40.758064516129025 595.025,40.758064516129025 601.475,40.758064516129025 607.9250000000001,34.064516129032256 614.375,36.741935483870975 620.825,51.4677419354839 627.275,43.435483870967744 633.725,50.12903225806451 640.1750000000001,51.4677419354839 646.625,42.09677419354841 653.075,52.80645161290323 659.525,68.87096774193549 665.975,80.9193548387097 672.4250000000001,78.24193548387098 678.875,82.25806451612902 685.325,91.62903225806451 691.775,92.9677419354839" /><polyline stroke="#6f0078" stroke-width="2" fill="transparent" points="53.225,254.9516129032258 59.675,249.5967741935484 66.125,264.3225806451613 72.575,262.98387096774195 79.025,267.0 85.475,281.7258064516129 91.92500000000001,281.7258064516129 98.375,297.7903225806452 104.825,299.1290322580645 111.275,313.85483870967744 117.72500000000001,327.241935483871 124.175,329.9193548387097 130.625,319.2096774193548 137.075,331.258064516129 143.525,340.6290322580645 149.97500000000002,329.9193548387097 156.425,315.19354838709677 162.875,312.51612903225805 169.325,316.5322580645161 175.775,300.4677419354839 182.225,315.19354838709677 188.675,303.14516129032256 195.125,311.1774193548387 201.57500000000002,321.88709677419354 208.025,335.2741935483871 214.475,340.6290322580645 220.925,324.56451612903226 227.375,335.2741935483871 233.82500000000002,331.258064516129 240.275,327.241935483871 246.725,331.258064516129 253.175,329.9193548387097 259.625,344.64516129032256 266.07500000000005,350.0 272.525,344.64516129032256 278.975,328.5806451612903 285.425,331.258064516129 291.875,336.61290322580646 298.32500000000005,331.258064516129 304.775,333.93548387096774 311.225,340.6290322580645 317.675,324.56451612903226 324.125,317.8709677419355 330.575,327.241935483871 337.02500000000003,324.56451612903226 343.475,323.2258064516129 349.925,311.1774193548387 356.375,303.14516129032256 362.825,309.8387096774194 369.27500000000003,293.7741935483871 375.725,307.16129032258067 382.175,309.8387096774194 388.625,300.4677419354839 395.075,312.51612903225805 401.52500000000003,312.51612903225805 407.975,328.5806451612903 414.425,323.2258064516129 420.875,313.85483870967744 427.325,311.1774193548387 433.77500000000003,299.1290322580645 440.225,305.8225806451613 446.675,299.1290322580645 453.125,295.11290322580646 459.575,292.43548387096774 466.02500000000003,293.7741935483871 472.475,283.06451612903226 478.925,268.3387096774194 485.375,268.3387096774194 491.825,262.98387096774195 498.27500000000003,277.7096774193549 504.725,271.01612903225805 511.175,267.0 517.625,249.5967741935484 524.075,238.88709677419354 530.5250000000001,246.9193548387097 536.975,249.5967741935484 543.425,244.24193548387098 549.875,260.30645161290323 556.325,261.64516129032256 562.775,272.35483870967744 569.225,285.741935483871 575.6750000000001,300.4677419354839 582.125,291.0967741935484 588.575,304.48387096774195 595.025,312.51612903225805 601.475,316.5322580645161 607.9250000000001,303.14516129032256 614.375,317.8709677419355 620.825,319.2096774193548 627.275,317.8709677419355 633.725,304.48387096774195 640.1750000000001,293.7741935483871 646.625,281.7258064516129 653.075,289.758064516129 659.525,292.43548387096774 665.975,296.4516129032258 672.4250000000001,284.4032258064516 678.875,268.3387096774194 685.325,280.38709677419354 691.775,291.0967741935484" /><polyline stroke="#780009" stroke-width="2" fill="transparent" points="53.225,260.30645161290323 59.675,272.35483870967744 66.125,265.66129032258067 72.575,279.0483870967742 79.025,288.4193548387097 85.475,271.01612903225805 91.92500000000001,280.38709677419354 98.375,276.3709677419355 104.825,277.7096774193549 111.275,279.0483870967742 117.72500000000001,279.0483870967742 124.175,289.758064516129 130.625,279.0483870967742 137.075,292.43548387096774 143.525,301.80645161290323 149.97500000000002,317.8709677419355 156.425,324.56451612903226 162.875,328.5806451612903 169.325,315.19354838709677 175.775,319.2096774193548 182.225,331.258064516129 188.675,339.2903225806452 195.125,317.8709677419355 201.57500000000002,332.5967741935484 208.025,328.5806451612903 214.475,332.5967741935484 220.925,327.241935483871 227.375,332.5967741935484 233.82500000000002,325.9032258064516 240.275,325.9032258064516 246.725,321.88709677419354 253.175,308.5 259.625,305.8225806451613 266.07500000000005,317.8709677419355 272.525,332.5967741935484 278.975,316.5322580645161 285.425,317.8709677419355 291.875,327.241935483871 298.32500000000005,312.51612903225805 304.775,309.8387096774194 311.225,301.80645161290323 317.675,289.758064516129 324.125,296.4516129032258 330.575,301.80645161290323 337.02500000000003,288.4193548387097 343.475,301.80645161290323 349.925,292.43548387096774 356.375,305.8225806451613 362.825,299.1290322580645 369.27500000000003,292.43548387096774 375.725,277.7096774193549 382.175,265.66129032258067 388.625,265.66129032258067 395.075,276.3709677419355 401.52500000000003,288.4193548387097 407.975,287.0806451612903 414.425,287.0806451612903 420.875,300.4677419354839 427.325,287.0806451612903 433.77500000000003,287.0806451612903 440.225,280.38709677419354 446.675,289.758064516129 453.125,297.7903225806452 459.575,315.19354838709677 466.02500000000003,320.5483870967742 472.475,327.241935483871 478.925,329.9193548387097 485.375,333.93548387096774 491.825,323.2258064516129 498.27500000000003,309.8387096774194 504.725,320.5483870967742 511.175,324.56451612903226 517.625,335.2741935483871 524.075,328.5806451612903 530.5250000000001,313.85483870967744 536.975,323.2258064516129 543.425,313.85483870967744 549.875,320.5483870967742 556.325,337.9516129032258 562.775,325.9032258064516 569.225,331.258064516129 575.6750000000001,341.9677419354839 582.125,336.61290322580646 588.575,343.30645161290323 595.025,337.9516129032258 601.475,336.61290322580646 607.9250000000001,337.9516129032258 614.375,331.258064516129 620.825,339.2903225806452 627.275,348.66129032258067 633.725,348.66129032258067 640.1750000000001,347.3225806451613 646.625,333.93548387096774 653.075,337.9516129032258 659.525,324.56451612903226 665.975,324.56451612903226 672.4250000000001,316.5322580645161 678.875,300.4677419354839 685.325,315.19354838709677 691.775,331.258064516129" /><polyline stroke="#786f00" stroke-width="2" fill="transparent" points="53.225,200.06451612903226 59.675,212.11290322580646 66.125,200.06451612903226 72.575,217.46774193548387 79.025,217.46774193548387 85.475,204.08064516129033 91.92500000000001,217.46774193548387 98.375,216.1290322580645 104.825,212.11290322580646 111.275,226.83870967741936 117.72500000000001,230.85483870967744 124.175,224.16129032258067 130.625,225.5 137.075,218.80645161290323 143.525,229.51612903225808 149.97500000000002,238.88709677419354 156.425,252.2741935483871 162.875,250.93548387096774 169.325,237.5483870967742 175.775,234.8709677419355 182.225,225.5 188.675,229.51612903225808 195.125,221.48387096774195 201.57500000000002,233.53225806451616 208.025,241.56451612903226 214.475,234.8709677419355 220.925,228.17741935483872 227.375,230.85483870967744 233.82500000000002,244.24193548387098 240.275,252.2741935483871 246.725,261.64516129032256 253.175,269.6774193548387 259.625,258.9677419354839 266.07500000000005,268.3387096774194 272.525,256.2903225806452 278.975,242.90322580645162 285.425,257.6290322580645 291.875,261.64516129032256 298.32500000000005,262.98387096774195 304.775,277.7096774193549 311.225,280.38709677419354 317.675,267.0 324.125,280.38709677419354 330.575,276.3709677419355 337.02500000000003,289.758064516129 343.475,287.0806451612903 349.925,273.69354838709677 356.375,283.06451612903226 362.825,300.4677419354839 369.27500000000003,313.85483870967744 375.725,312.51612903225805 382.175,328.5806451612903 388.625,343.30645161290323 395.075,335.2741935483871 401.52500000000003,320.5483870967742 407.975,323.2258064516129 414.425,327.241935483871 420.875,321.88709677419354 427.325,335.2741935483871 433.77500000000003,332.5967741935484 440.225,343.30645161290323 446.675,331.258064516129 453.125,315.19354838709677 459.575,329.9193548387097 466.02500000000003,328.5806451612903 472.475,324.56451612903226 478.925,336.61290322580646 485.375,341.9677419354839 491.825,317.8709677419355 498.27500000000003,301.80645161290323 504.725,313.85483870967744 511.175,307.16129032258067 517.625,292.43548387096774 524.075,300.4677419354839 530.5250000000001,297.7903225806452 536.975,312.51612903225805 543.425,316.5322580645161 549.875,311.1774193548387 556.325,308.5 562.775,299.1290322580645 569.225,312.51612903225805 575.6750000000001,317.8709677419355 582.125,305.8225806451613 588.575,303.14516129032256 595.025,304.48387096774195 601.475,307.16129032258067 607.9250000000001,291.0967741935484 614.375,288.4193548387097 620.825,304.48387096774195 627.275,295.11290322580646 633.725,300.4677419354839 640.1750000000001,303.14516129032256 646.625,312.51612903225805 653.075,313.85483870967744 659.525,320.5483870967742 665.975,333.93548387096774 672.4250000000001,329.9193548387097 678.875,343.30645161290323 685.325,324.56451612903226 691.775,340.6290322580645" /><polyline stroke="#097800" stroke-width="2" fill="transparent" points="53.225,162.58064516129033 59.675,159.90322580645162 66.125,169.2741935483871 72.575,158.56451612903226 79.025,147.85483870967744 85.475,143.83870967741936 91.92500000000001,154.5483870967742 98.375,154.5483870967742 104.825,159.90322580645162 111.275,167.93548387096774 117.72500000000001,153.20967741935485 124.175,135.80645161290323 130.625,151.8709677419355 137.075,139.8225806451613 143.525,135.80645161290323 149.97500000000002,139.8225806451613 156.425,147.85483870967744 162.875,141.16129032258067 169.325,142.5 175.775,137.1451612903226 182.225,131.79032258064518 188.675,143.83870967741936 195.125,134.46774193548387 201.57500000000002,118.40322580645162 208.025,102.33870967741936 214.475,98.32258064516131 220.925,114.38709677419357 227.375,130.45161290322582 233.82500000000002,142.5 240.275,127.7741935483871 246.725,134.46774193548387 253.175,139.8225806451613 259.625,126.43548387096774 266.07500000000005,131.79032258064518 272.525,130.45161290322582 278.975,133.12903225806454 285.425,147.85483870967744 291.875,143.83870967741936 298.32500000000005,133.12903225806454 304.775,143.83870967741936 311.225,153.20967741935485 317.675,155.88709677419357 324.125,171.95161290322582 330.575,171.95161290322582 337.02500000000003,161.24193548387098 343.475,155.88709677419357 349.925,154.5483870967742 356.375,143.83870967741936 362.825,154.5483870967742 369.27500000000003,153.20967741935485 375.725,157.22580645161293 382.175,153.20967741935485 388.625,166.59677419354838 395.075,157.22580645161293 401.52500000000003,170.61290322580646 407.975,181.3225806451613 414.425,171.95161290322582 420.875,157.22580645161293 427.325,158.56451612903226 433.77500000000003,161.24193548387098 440.225,170.61290322580646 446.675,177.30645161290323 453.125,173.29032258064518 459.575,184.0 466.02500000000003,197.38709677419357 472.475,198.72580645161293 478.925,209.43548387096774 485.375,205.4193548387097 491.825,194.70967741935485 498.27500000000003,185.33870967741936 504.725,185.33870967741936 511.175,190.6935483870968 517.625,193.3709677419355 524.075,209.43548387096774 530.5250000000001,202.74193548387098 536.975,208.09677419354838 543.425,214.79032258064518 549.875,228.17741935483872 556.325,229.51612903225808 562.775,226.83870967741936 569.225,230.85483870967744 575.6750000000001,218.80645161290323 582.125,212.11290322580646 588.575,221.48387096774195 595.025,220.1451612903226 601.475,206.75806451612905 607.9250000000001,205.4193548387097 614.375,202.74193548387098 620.825,217.46774193548387 627.275,217.46774193548387 633.725,218.80645161290323 640.1750000000001,222.82258064516128 646.625,225.5 653.075,221.48387096774195 659.525,220.1451612903226 665.975,221.48387096774195 672.4250000000001,232.19354838709677 678.875,234.8709677419355 685.325,218.80645161290323 691.775,221.48387096774195" /></g><g><text dominant-baseline="middle" fill="#00786f" font-size="14" x="709.775" y="139.8225806451613">bicycle</text><text dominant-baseline="middle" fill="#000978" font-size="14" x="709.775" y="92.9677419354839">apple</text><text dominant-baseline="middle" fill="#6f0078" font-size="14" x="709.775" y="291.0967741935484">ham</text><text dominant-baseline="middle" fill="#780009" font-size="14" x="709.775" y="317.330078125">spoon</text><text dominant-baseline="middle" fill="#786f00" font-size="14" x="709.775" y="340.443359375">boat</text><text dominant-baseline="middle" fill="#097800" font-size="14" x="709.775" y="221.48387096774195">starship</text></g></svg>