<svg xmlns="http://www.w3.org/2000/svg" width="420" height="190" viewBox="0 0 420 190">
  <path d="M 58.00,18.00 L 68.58,43.44 L 96.04,45.64 L 75.13,63.56 L 81.51,90.36 L 58.00,76.00 L 34.49,90.36 L 40.87,63.56 L 19.96,45.64 L 47.42,43.44 Z" fill="currentColor"/>
  <path d="M 203.00,58.00 L 192.38,82.04 L 155.00,92.00 L 117.62,82.04 L 107.00,58.00 L 117.62,33.96 L 155.00,24.00 L 192.38,33.96 Z" fill="currentColor" opacity="0.68"/>
  <path d="M 245.00,36.00 Q 245.00,22.00 258.75,24.57 L 306.25,33.43 Q 320.00,36.00 317.25,49.73 L 308.75,92.27 Q 306.00,106.00 292.05,104.87 L 245.95,101.13 Q 232.00,100.00 233.95,86.14 L 243.05,41.86 Q 245.00,36.00 245.00,36.00 Z" fill="none" stroke="currentColor" stroke-width="4"/>
  <path d="M 415.12,64.00 C 408.26,73.25 385.08,95.20 372.00,96.27 C 353.20,97.81 329.28,78.90 329.06,64.00 C 328.83,48.56 354.18,31.57 372.00,32.17 C 388.07,32.71 410.90,52.12 415.12,64.00 Z" fill="currentColor" opacity="0.35"/>
  <path d="M 130.41,117.91 A 42.00 42.00 0 0 1 60.07,102.61 L 76.91,113.79 A 20.00 20.00 0 0 0 109.48,119.25 Z" fill="currentColor" opacity="0.45"/>
  <path d="M 182.68,173.78 L 200.70,135.15 L 162.07,117.13 L 171.37,97.19 L 210.00,115.21 L 228.02,76.58 L 247.96,85.88 L 229.94,124.51 L 268.57,142.53 L 259.27,162.47 L 220.64,144.45 L 202.62,183.08 Z" fill="none" stroke="currentColor" stroke-width="4"/>
</svg>
