<svg xmlns="http://www.w3.org/2000/svg" width="360" height="180" viewBox="0 0 360 180">
  <g fill="currentColor">
    <circle cx="95" cy="90" r="3"/>
    <circle cx="89.6" cy="95" r="3"/>
    <circle cx="96.1" cy="79" r="3"/>
    <circle cx="102.8" cy="99" r="3"/>
    <circle cx="80.6" cy="87.5" r="3"/>
    <circle cx="108.1" cy="80.1" r="3"/>
    <circle cx="91.6" cy="112.8" r="3"/>
    <circle cx="78" cy="75.8" r="3"/>
    <circle cx="120.5" cy="91.6" r="3"/>
    <circle cx="76.6" cy="106.4" r="3"/>
    <circle cx="96.7" cy="58.3" r="3"/>
    <circle cx="116.6" cy="115.8" r="3"/>
    <circle cx="58.2" cy="83.3" r="3"/>
    <circle cx="124.2" cy="66.5" r="3"/>
    <circle cx="84.7" cy="126.3" r="3"/>
    <circle cx="58" cy="62.3" r="3"/>
    <circle cx="135.9" cy="99.3" r="3"/>
    <circle cx="63.4" cy="121.2" r="3"/>
    <circle cx="104.6" cy="47.4" r="3"/>
    <circle cx="124" cy="132.3" r="3"/>
    <circle cx="47.6" cy="91" r="3"/>
    <circle cx="128.5" cy="54" r="3"/>
    <circle cx="74.1" cy="138.7" r="3"/>
    <circle cx="44.2" cy="56.2" r="3"/>
    <circle cx="149.3" cy="87.8" r="3"/>
    <circle cx="52.1" cy="127.9" r="3"/>
    <circle cx="101.3" cy="35.3" r="3"/>
    <circle cx="140.9" cy="125.1" r="3"/>
    <circle cx="38.7" cy="104" r="3"/>
    <circle cx="114.6" cy="38.4" r="3"/>
  </g>
  <g fill="none" stroke="currentColor" stroke-width="2" opacity="0.65">
    <polygon points="220,28 232.1,35 232.1,49 220,56 207.9,49 207.9,35"/>
    <polygon points="244.2,28 256.3,35 256.3,49 244.2,56 232.1,49 232.1,35"/>
    <polygon points="268.5,28 280.6,35 280.6,49 268.5,56 256.3,49 256.3,35"/>
    <polygon points="292.7,28 304.8,35 304.8,49 292.7,56 280.6,49 280.6,35"/>
    <polygon points="316.9,28 329.1,35 329.1,49 316.9,56 304.8,49 304.8,35"/>
    <polygon points="232.1,49 244.2,56 244.2,70 232.1,77 220,70 220,56"/>
    <polygon points="256.3,49 268.5,56 268.5,70 256.3,77 244.2,70 244.2,56"/>
    <polygon points="280.6,49 292.7,56 292.7,70 280.6,77 268.5,70 268.5,56"/>
    <polygon points="304.8,49 316.9,56 316.9,70 304.8,77 292.7,70 292.7,56"/>
    <polygon points="329.1,49 341.2,56 341.2,70 329.1,77 316.9,70 316.9,56"/>
    <polygon points="220,70 232.1,77 232.1,91 220,98 207.9,91 207.9,77"/>
    <polygon points="244.2,70 256.3,77 256.3,91 244.2,98 232.1,91 232.1,77"/>
    <polygon points="268.5,70 280.6,77 280.6,91 268.5,98 256.3,91 256.3,77"/>
    <polygon points="292.7,70 304.8,77 304.8,91 292.7,98 280.6,91 280.6,77"/>
    <polygon points="316.9,70 329.1,77 329.1,91 316.9,98 304.8,91 304.8,77"/>
  </g>
</svg>
