<svg xmlns="http://www.w3.org/2000/svg" width="330" height="180" viewBox="0 0 330 180">
  <rect width="330" height="180" fill="#f8fafc"/>
  <path d="M 24.00,130.00 L 82.00,54.00 L 148.00,96.00 L 214.00,34.00 L 290.00,88.00 L 290.00,150.00 L 214.00,150.00 L 148.00,150.00 L 82.00,150.00 L 24.00,150.00 Z" fill="#ccfbf1"/>
  <path d="M 24.00,130.00 C 33.67,117.33 62.00,59.67 82.00,54.00 C 104.00,47.77 126.00,99.33 148.00,96.00 C 170.00,92.67 190.67,35.33 214.00,34.00 C 239.33,32.56 277.33,79.00 290.00,88.00" fill="none" stroke="#0f766e" stroke-width="4" stroke-linecap="round"/>
  <g fill="#f83898">
    <path transform="translate(52 146)" d="M 7.57,0.00 A 7.57 7.57 0 1 1 -7.57,0.00 A 7.57 7.57 0 1 1 7.57,0.00 Z"/>
    <path transform="translate(116 146)" d="M 0.00,-9.49 L 9.49,0.00 L 0.00,9.49 L -9.49,0.00 Z"/>
    <path transform="translate(180 146)" d="M 0.00,-14.42 L 12.49,7.21 L -12.49,7.21 Z"/>
    <path transform="translate(244 146)" d="M 0.00,-11.35 L 3.34,-4.59 L 10.80,-3.51 L 5.57,1.81 L 6.68,9.19 L 0.00,5.11 L -6.68,9.19 L -5.57,1.81 L -10.80,-3.51 L -3.34,-4.59 Z"/>
  </g>
</svg>
