<svg xmlns="http://www.w3.org/2000/svg" width="300" height="160" viewBox="0 0 300 160">
  <circle fill="#14b8a6" opacity="0.56" cx="34" cy="34" r="7.0"/>
  <circle fill="#14b8a6" opacity="0.583696575856986" cx="62" cy="34" r="7.278783245376305"/>
  <circle fill="#14b8a6" opacity="0.48412704581699595" cx="90" cy="34" r="6.107377009611716"/>
  <circle fill="#14b8a6" opacity="0.3053674057317808" cx="118" cy="34" r="4.004322420373892"/>
  <circle fill="#14b8a6" opacity="0.5890381469879266" cx="146" cy="34" r="7.341625258681489"/>
  <circle fill="#14b8a6" opacity="0.43976608307857" cx="174" cy="34" r="5.5854833303361175"/>
  <circle fill="#14b8a6" opacity="0.25298487006125264" cx="202" cy="34" r="3.3880572948382666"/>
  <circle fill="#14b8a6" opacity="0.6042063128917916" cx="230" cy="34" r="7.520074269315195"/>
  <circle fill="#14b8a6" opacity="0.8297694885790653" cx="258" cy="34" r="10.173758689165474"/>
  <circle fill="#14b8a6" opacity="0.7186811113397673" cx="34" cy="56" r="8.866836603997262"/>
  <circle fill="#14b8a6" opacity="0.6052102302710487" cx="62" cy="56" r="7.531885062012337"/>
  <circle fill="#14b8a6" opacity="0.8280791148618167" cx="90" cy="56" r="10.153871939550784"/>
  <circle fill="#14b8a6" opacity="0.7804647015500118" cx="118" cy="56" r="9.59370237117661"/>
  <circle fill="#14b8a6" opacity="0.5924008548298334" cx="146" cy="56" r="7.381186527409804"/>
  <circle fill="#14b8a6" opacity="0.34393225051920523" cx="174" cy="56" r="4.458026476696531"/>
  <circle fill="#14b8a6" opacity="0.5998344168155761" cx="202" cy="56" r="7.468640197830307"/>
  <circle fill="#14b8a6" opacity="0.8623465330015556" cx="230" cy="56" r="10.557018035312419"/>
  <circle fill="#14b8a6" opacity="0.5610622969667497" cx="258" cy="56" r="7.012497611373526"/>
  <circle fill="#14b8a6" opacity="0.35870234764431996" cx="34" cy="78" r="4.631792325227294"/>
  <circle fill="#14b8a6" opacity="0.26356947289272853" cx="62" cy="78" r="3.5125820340321003"/>
  <circle fill="#14b8a6" opacity="0.5599846471202196" cx="90" cy="78" r="6.999819377884936"/>
  <circle fill="#14b8a6" opacity="0.6680920438329501" cx="118" cy="78" r="8.27167110391706"/>
  <circle fill="#14b8a6" opacity="0.5873828996108917" cx="146" cy="78" r="7.322151760128137"/>
  <circle fill="#14b8a6" opacity="0.5947328124095277" cx="174" cy="78" r="7.408621322465032"/>
  <circle fill="#14b8a6" opacity="0.5242638050518403" cx="202" cy="78" r="6.579574177080474"/>
  <circle fill="#14b8a6" opacity="0.6566727135493365" cx="230" cy="78" r="8.1373260417569"/>
  <circle fill="#14b8a6" opacity="0.5372386244550481" cx="258" cy="78" r="6.732219111235859"/>
  <circle fill="#14b8a6" opacity="0.4210587615447922" cx="34" cy="100" r="5.365397194644614"/>
  <circle fill="#14b8a6" opacity="0.6317401005207258" cx="62" cy="100" r="7.844001182596774"/>
  <circle fill="#14b8a6" opacity="0.5432094863257354" cx="90" cy="100" r="6.802464545008652"/>
  <circle fill="#14b8a6" opacity="0.4077653756536598" cx="118" cy="100" r="5.209004419454821"/>
  <circle fill="#14b8a6" opacity="0.737954028146926" cx="146" cy="100" r="9.093576801728542"/>
  <circle fill="#14b8a6" opacity="0.7883646881743166" cx="174" cy="100" r="9.686643390286077"/>
  <circle fill="#14b8a6" opacity="0.4599101390679532" cx="202" cy="100" r="5.822472224328861"/>
  <circle fill="#14b8a6" opacity="0.5106940146562888" cx="230" cy="100" r="6.4199295841916335"/>
  <circle fill="#14b8a6" opacity="0.7856060236841355" cx="258" cy="100" r="9.654188513931006"/>
  <circle fill="#14b8a6" opacity="0.4625343719447583" cx="34" cy="122" r="5.853345552291275"/>
  <circle fill="#14b8a6" opacity="0.5482314603093995" cx="62" cy="122" r="6.861546591875288"/>
  <circle fill="#14b8a6" opacity="0.7392389835386209" cx="90" cy="122" r="9.108693923983775"/>
  <circle fill="#14b8a6" opacity="0.4323808322077635" cx="118" cy="122" r="5.498598025973688"/>
  <circle fill="#14b8a6" opacity="0.7116512864839868" cx="146" cy="122" r="8.784132782164551"/>
  <circle fill="#14b8a6" opacity="0.7246208604266587" cx="174" cy="122" r="8.936716005019516"/>
  <circle fill="#14b8a6" opacity="0.5878866883473854" cx="202" cy="122" r="7.328078686439829"/>
  <circle fill="#14b8a6" opacity="0.2423845176197294" cx="230" cy="122" r="3.2633472661144634"/>
  <circle fill="#14b8a6" opacity="0.5576645880103702" cx="258" cy="122" r="6.972524564827884"/>
  <text font-size="12" fill="currentColor" x="34" y="145">SimplexNoise2D(seed=12)</text>
</svg>
