<svg xmlns="http://www.w3.org/2000/svg" viewBox="0 0 1500 1500" width="1500px" height="1500px"><defs><path id="cat_EMS/PCB" d="M 126.76,-718.91 A 730.00 730.00 0 0 1 389.46,-617.43" /><path id="cat_Electromechanics" d="M 423.09,-594.89 A 730.00 730.00 0 0 1 100.89,722.99" /><path id="cat_Metals and Non-Iron Casting" d="M 60.66,727.48 A 730.00 730.00 0 0 1 -466.49,561.50" /><path id="cat_Pressed Parts" d="M -496.90,534.78 A 730.00 730.00 0 0 1 -692.26,231.69" /><path id="cat_Turned and Hot Stamped" d="M -704.04,192.96 A 730.00 730.00 0 0 1 -126.76,-718.91" /></defs><g transform="translate(750 750)"><g><text font-family="Proza Libre" font-size="20" text-anchor="middle" font-weight="bold" fill="#bfbfbf" x="0" y="6">QN</text><path d="M 15.00,-299.62 A 300.00 300.00 0 1 1 -15.00,-299.62" fill="none" stroke="#bfbfbf" /><text font-family="Proza Libre" font-size="18" text-anchor="middle" fill="#bfbfbf" x="0" y="-296.0">0</text><path d="M 15.00,-269.58 A 270.00 270.00 0 1 1 -15.00,-269.58" fill="none" stroke="#bfbfbf" /><text font-family="Proza Libre" font-size="18" text-anchor="middle" fill="#bfbfbf" x="0" y="-266.0">10</text><path d="M 15.00,-239.53 A 240.00 240.00 0 1 1 -15.00,-239.53" fill="none" stroke="#bfbfbf" /><text font-family="Proza Libre" font-size="18" text-anchor="middle" fill="#bfbfbf" x="0" y="-236.0">20</text><path d="M 15.00,-209.46 A 210.00 210.00 0 1 1 -15.00,-209.46" fill="none" stroke="#bfbfbf" /><text font-family="Proza Libre" font-size="18" text-anchor="middle" fill="#bfbfbf" x="0" y="-206.0">30</text><path d="M 15.00,-179.37 A 180.00 180.00 0 1 1 -15.00,-179.37" fill="none" stroke="#bfbfbf" /><text font-family="Proza Libre" font-size="18" text-anchor="middle" fill="#bfbfbf" x="0" y="-176.0">40</text><path d="M 15.00,-149.25 A 150.00 150.00 0 1 1 -15.00,-149.25" fill="none" stroke="#bfbfbf" /><text font-family="Proza Libre" font-size="18" text-anchor="middle" fill="#bfbfbf" x="0" y="-146.0">50</text><path d="M 15.00,-119.06 A 120.00 120.00 0 1 1 -15.00,-119.06" fill="none" stroke="#bfbfbf" /><text font-family="Proza Libre" font-size="18" text-anchor="middle" fill="#bfbfbf" x="0" y="-116.0">60</text><path d="M 15.00,-88.74 A 90.00 90.00 0 1 1 -15.00,-88.74" fill="none" stroke="#bfbfbf" /><text font-family="Proza Libre" font-size="18" text-anchor="middle" fill="#bfbfbf" x="0" y="-86.0">70</text><path d="M 15.00,-58.09 A 60.00 60.00 0 1 1 -15.00,-58.09" fill="none" stroke="#bfbfbf" /><text font-family="Proza Libre" font-size="18" text-anchor="middle" fill="#bfbfbf" x="0" y="-56.0">80</text><path d="M 15.00,-25.98 A 30.00 30.00 0 1 1 -15.00,-25.98" fill="none" stroke="#bfbfbf" /><text font-family="Proza Libre" font-size="18" text-anchor="middle" fill="#bfbfbf" x="0" y="-26.0">90</text></g><g transform="rotate(-80)"><path fill="#8b9db6" d="M 299.92,-6.81 A 300.00 300.00 0 0 1 299.92,6.81 L 275.93,6.26 A 276.00 276.00 0 0 0 275.93,-6.26 Z" /><text font-family="Proza Libre" font-size="18" fill="#bfbfbf" x="330" y="5">CircuitSmith Fabrications</text><line stroke="#bfbfbf" stroke-width="1" stroke-dasharray="5, 5" x1="558.5576171875" y1="0" x2="600" y2="0" /><path d="M 326.00,0.00 L 322.05,2.94 L 320.47,7.61 L 316.45,4.76 L 311.53,4.70 L 313.00,0.00 L 311.53,-4.70 L 316.45,-4.76 L 320.47,-7.61 L 322.05,-2.94 Z" fill="none" stroke="#48aed6" stroke-width="1" /><circle fill="none" stroke="#48aed6" stroke-width="1" cx="620" cy="0" r="12.439913538607843" /><circle fill="#48aed6" stroke="#48aed6" stroke-width="1" cx="660" cy="0" r="4.218145068056655" /><path d="M 704.82,-15.99 A 705.00 705.00 0 0 1 704.82,15.99 L 689.82,15.65 A 690.00 690.00 0 0 0 689.82,-15.65 Z" fill="#393232" stroke="#929191" stroke-width="1" /></g><g transform="rotate(-76.8224)"><path fill="#8b9db6" d="M 299.92,-6.81 A 300.00 300.00 0 0 1 299.92,6.81 L 224.94,5.10 A 225.00 225.00 0 0 0 224.94,-5.10 Z" /><text font-family="Proza Libre" font-size="18" fill="#bfbfbf" x="330" y="5">TechTrak PCB Solutions</text><line stroke="#bfbfbf" stroke-width="1" stroke-dasharray="5, 5" x1="539.5732421875" y1="0" x2="600" y2="0" /><circle fill="none" stroke="#48aed6" stroke-width="1" cx="620" cy="0" r="10.088745444062589" /><circle fill="#48aed6" stroke="#48aed6" stroke-width="1" cx="660" cy="0" r="11.962277954602314" /><path d="M 704.82,-15.99 A 705.00 705.00 0 0 1 704.82,15.99 L 689.82,15.65 A 690.00 690.00 0 0 0 689.82,-15.65 Z" fill="#373232" stroke="#929191" stroke-width="1" /></g><g transform="rotate(-73.6449)"><path fill="#8b9db6" d="M 299.92,-6.81 A 300.00 300.00 0 0 1 299.92,6.81 L 281.93,6.40 A 282.00 282.00 0 0 0 281.93,-6.40 Z" /><text font-family="Proza Libre" font-size="18" fill="#bfbfbf" x="330" y="5">EverCore Electronic Assembly</text><line stroke="#bfbfbf" stroke-width="1" stroke-dasharray="5, 5" x1="589.75" y1="0" x2="600" y2="0" /><path d="M 326.00,0.00 L 322.05,2.94 L 320.47,7.61 L 316.45,4.76 L 311.53,4.70 L 313.00,0.00 L 311.53,-4.70 L 316.45,-4.76 L 320.47,-7.61 L 322.05,-2.94 Z" fill="#48aed6" stroke="#48aed6" stroke-width="1" /><circle fill="none" stroke="#48aed6" stroke-width="1" cx="620" cy="0" r="7.233612652191996" /><circle fill="#48aed6" stroke="#48aed6" stroke-width="1" cx="660" cy="0" r="8.595887169456256" /><path d="M 704.82,-15.99 A 705.00 705.00 0 0 1 704.82,15.99 L 689.82,15.65 A 690.00 690.00 0 0 0 689.82,-15.65 Z" fill="#3a3232" stroke="#929191" stroke-width="1" /></g><g transform="rotate(-70.4673)"><path fill="#8b9db6" d="M 299.92,-6.81 A 300.00 300.00 0 0 1 299.92,6.81 L 266.93,6.06 A 267.00 267.00 0 0 0 266.93,-6.06 Z" /><text font-family="Proza Libre" font-size="18" fill="#bfbfbf" x="330" y="5">PrimeWave EMS</text><line stroke="#bfbfbf" stroke-width="1" stroke-dasharray="5, 5" x1="480.4052734375" y1="0" x2="600" y2="0" /><circle fill="none" stroke="#48aed6" stroke-width="1" cx="620" cy="0" r="14.023462571383785" /><circle fill="#48aed6" stroke="#48aed6" stroke-width="1" cx="660" cy="0" r="6.9029988396041375" /><path d="M 704.82,-15.99 A 705.00 705.00 0 0 1 704.82,15.99 L 689.82,15.65 A 690.00 690.00 0 0 0 689.82,-15.65 Z" fill="#a1312f" stroke="#929191" stroke-width="1" /></g><g transform="rotate(-67.2897)"><path fill="#8b9db6" d="M 299.92,-6.81 A 300.00 300.00 0 0 1 299.92,6.81 L 296.92,6.74 A 297.00 297.00 0 0 0 296.92,-6.74 Z" /><text font-family="Proza Libre" font-size="18" fill="#bfbfbf" x="330" y="5">AeroLink Circuitry</text><line stroke="#bfbfbf" stroke-width="1" stroke-dasharray="5, 5" x1="492.89453125" y1="0" x2="600" y2="0" /><circle fill="none" stroke="#48aed6" stroke-width="1" cx="620" cy="0" r="15.673869050585607" /><circle fill="#48aed6" stroke="#48aed6" stroke-width="1" cx="660" cy="0" r="12.295951388545193" /><path d="M 704.82,-15.99 A 705.00 705.00 0 0 1 704.82,15.99 L 689.82,15.65 A 690.00 690.00 0 0 0 689.82,-15.65 Z" fill="#4a3232" stroke="#929191" stroke-width="1" /></g><g transform="rotate(-64.1121)"><path fill="#8b9db6" d="M 299.92,-6.81 A 300.00 300.00 0 0 1 299.92,6.81 L 272.93,6.19 A 273.00 273.00 0 0 0 272.93,-6.19 Z" /><text font-family="Proza Libre" font-size="18" fill="#bfbfbf" x="330" y="5">MicroMasters Manufacturing</text><line stroke="#bfbfbf" stroke-width="1" stroke-dasharray="5, 5" x1="592.7822265625" y1="0" x2="600" y2="0" /><circle fill="none" stroke="#48aed6" stroke-width="1" cx="620" cy="0" r="9.54544932533077" /><circle fill="#48aed6" stroke="#48aed6" stroke-width="1" cx="660" cy="0" r="11.325726788891107" /><path d="M 704.82,-15.99 A 705.00 705.00 0 0 1 704.82,15.99 L 689.82,15.65 A 690.00 690.00 0 0 0 689.82,-15.65 Z" fill="#6a3231" stroke="#929191" stroke-width="1" /></g><g transform="rotate(-60.9346)"><path fill="#8b9db6" d="M 299.92,-6.81 A 300.00 300.00 0 0 1 299.92,6.81 L 224.94,5.10 A 225.00 225.00 0 0 0 224.94,-5.10 Z" /><text font-family="Proza Libre" font-size="18" fill="#bfbfbf" x="330" y="5">NovaFlex PCB Services</text><line stroke="#bfbfbf" stroke-width="1" stroke-dasharray="5, 5" x1="530.7578125" y1="0" x2="600" y2="0" /><circle fill="none" stroke="#48aed6" stroke-width="1" cx="620" cy="0" r="3.9696112671210533" /><circle fill="#48aed6" stroke="#48aed6" stroke-width="1" cx="660" cy="0" r="15.378544725480163" /><path d="M 704.82,-15.99 A 705.00 705.00 0 0 1 704.82,15.99 L 689.82,15.65 A 690.00 690.00 0 0 0 689.82,-15.65 Z" fill="#353232" stroke="#929191" stroke-width="1" /></g><g transform="rotate(-57.757)"><path fill="#8b9db6" d="M 299.92,-6.81 A 300.00 300.00 0 0 1 299.92,6.81 L 221.94,5.04 A 222.00 222.00 0 0 0 221.94,-5.04 Z" /><text font-family="Proza Libre" font-size="18" fill="#bfbfbf" x="330" y="5">ProTechno Board Assembly</text><line stroke="#bfbfbf" stroke-width="1" stroke-dasharray="5, 5" x1="568.7177734375" y1="0" x2="600" y2="0" /><circle fill="none" stroke="#48aed6" stroke-width="1" cx="620" cy="0" r="15.634205160046887" /><circle fill="#48aed6" stroke="#48aed6" stroke-width="1" cx="660" cy="0" r="9.17777785701627" /><path d="M 704.82,-15.99 A 705.00 705.00 0 0 1 704.82,15.99 L 689.82,15.65 A 690.00 690.00 0 0 0 689.82,-15.65 Z" fill="#4c3232" stroke="#929191" stroke-width="1" /></g><g transform="rotate(-54.5794)"><path fill="#8b9db6" d="M 299.92,-6.81 A 300.00 300.00 0 0 1 299.92,6.81 L 299.92,6.81 A 300.00 300.00 0 0 0 299.92,-6.81 Z" /><text font-family="Proza Libre" font-size="18" fill="#bfbfbf" x="330" y="5">ArcDynamics</text><line stroke="#bfbfbf" stroke-width="1" stroke-dasharray="5, 5" x1="452.53515625" y1="0" x2="600" y2="0" /><circle fill="none" stroke="#48aed6" stroke-width="1" cx="620" cy="0" r="3.226142527493599" /><circle fill="#48aed6" stroke="#48aed6" stroke-width="1" cx="660" cy="0" r="12.130964167471019" /><path d="M 704.82,-15.99 A 705.00 705.00 0 0 1 704.82,15.99 L 689.82,15.65 A 690.00 690.00 0 0 0 689.82,-15.65 Z" fill="#343333" stroke="#929191" stroke-width="1" /></g><g transform="rotate(-51.4019)"><path fill="#8b9db6" d="M 299.92,-6.81 A 300.00 300.00 0 0 1 299.92,6.81 L 290.93,6.60 A 291.00 291.00 0 0 0 290.93,-6.60 Z" /><text font-family="Proza Libre" font-size="18" fill="#bfbfbf" x="330" y="5">TorquePulse</text><line stroke="#bfbfbf" stroke-width="1" stroke-dasharray="5, 5" x1="443.1044921875" y1="0" x2="600" y2="0" /><circle fill="none" stroke="#48aed6" stroke-width="1" cx="620" cy="0" r="15.31174581011399" /><circle fill="#48aed6" stroke="#48aed6" stroke-width="1" cx="660" cy="0" r="12.41607857943931" /><path d="M 704.82,-15.99 A 705.00 705.00 0 0 1 704.82,15.99 L 689.82,15.65 A 690.00 690.00 0 0 0 689.82,-15.65 Z" fill="#383232" stroke="#929191" stroke-width="1" /></g><g transform="rotate(-48.2243)"><path fill="#8b9db6" d="M 299.92,-6.81 A 300.00 300.00 0 0 1 299.92,6.81 L 284.93,6.47 A 285.00 285.00 0 0 0 284.93,-6.47 Z" /><text font-family="Proza Libre" font-size="18" fill="#bfbfbf" x="330" y="5">VoltEdge Systems</text><line stroke="#bfbfbf" stroke-width="1" stroke-dasharray="5, 5" x1="492.54296875" y1="0" x2="600" y2="0" /><circle fill="none" stroke="#48aed6" stroke-width="1" cx="620" cy="0" r="14.835843181917147" /><circle fill="#48aed6" stroke="#48aed6" stroke-width="1" cx="660" cy="0" r="9.56952859617396" /><path d="M 704.82,-15.99 A 705.00 705.00 0 0 1 704.82,15.99 L 689.82,15.65 A 690.00 690.00 0 0 0 689.82,-15.65 Z" fill="#3b3232" stroke="#929191" stroke-width="1" /></g><g transform="rotate(-45.0467)"><path fill="#8b9db6" d="M 299.92,-6.81 A 300.00 300.00 0 0 1 299.92,6.81 L 299.92,6.81 A 300.00 300.00 0 0 0 299.92,-6.81 Z" /><text font-family="Proza Libre" font-size="18" fill="#bfbfbf" x="330" y="5">ElectroCore Industries</text><line stroke="#bfbfbf" stroke-width="1" stroke-dasharray="5, 5" x1="528.7978515625" y1="0" x2="600" y2="0" /><circle fill="none" stroke="#48aed6" stroke-width="1" cx="620" cy="0" r="13.189845315240893" /><circle fill="#48aed6" stroke="#48aed6" stroke-width="1" cx="660" cy="0" r="13.404117231155501" /><path d="M 704.82,-15.99 A 705.00 705.00 0 0 1 704.82,15.99 L 689.82,15.65 A 690.00 690.00 0 0 0 689.82,-15.65 Z" fill="#343333" stroke="#929191" stroke-width="1" /></g><g transform="rotate(-41.8692)"><path fill="#8b9db6" d="M 299.92,-6.81 A 300.00 300.00 0 0 1 299.92,6.81 L 233.94,5.31 A 234.00 234.00 0 0 0 233.94,-5.31 Z" /><text font-family="Proza Libre" font-size="18" fill="#bfbfbf" x="330" y="5">GearingX Solutions</text><line stroke="#bfbfbf" stroke-width="1" stroke-dasharray="5, 5" x1="504.7421875" y1="0" x2="600" y2="0" /><path d="M 312.34,2.83 L 315.17,5.66 L 318.00,2.83 L 320.83,5.66 L 323.66,2.83 L 320.83,0.00 L 323.66,-2.83 L 320.83,-5.66 L 318.00,-2.83 L 315.17,-5.66 L 312.34,-2.83 L 315.17,0.00 Z" fill="#cd312e" stroke="#cd312e" stroke-width="1" /><circle fill="none" stroke="#48aed6" stroke-width="1" cx="620" cy="0" r="4.633546386936624" /><circle fill="#48aed6" stroke="#48aed6" stroke-width="1" cx="660" cy="0" r="9.303947015182324" /><path d="M 704.82,-15.99 A 705.00 705.00 0 0 1 704.82,15.99 L 689.82,15.65 A 690.00 690.00 0 0 0 689.82,-15.65 Z" fill="#3b3232" stroke="#929191" stroke-width="1" /></g><g transform="rotate(-38.6916)"><path fill="#8b9db6" d="M 299.92,-6.81 A 300.00 300.00 0 0 1 299.92,6.81 L 287.93,6.53 A 288.00 288.00 0 0 0 287.93,-6.53 Z" /><text font-family="Proza Libre" font-size="18" fill="#bfbfbf" x="330" y="5">MechWave Innovations</text><line stroke="#bfbfbf" stroke-width="1" stroke-dasharray="5, 5" x1="539.0283203125" y1="0" x2="600" y2="0" /><path d="M 326.00,0.00 L 322.05,2.94 L 320.47,7.61 L 316.45,4.76 L 311.53,4.70 L 313.00,0.00 L 311.53,-4.70 L 316.45,-4.76 L 320.47,-7.61 L 322.05,-2.94 Z" fill="#48aed6" stroke="#48aed6" stroke-width="1" /><circle fill="none" stroke="#48aed6" stroke-width="1" cx="620" cy="0" r="9.147126707244935" /><circle fill="#48aed6" stroke="#48aed6" stroke-width="1" cx="660" cy="0" r="6.201839017896329" /><path d="M 704.82,-15.99 A 705.00 705.00 0 0 1 704.82,15.99 L 689.82,15.65 A 690.00 690.00 0 0 0 689.82,-15.65 Z" fill="#3b3232" stroke="#929191" stroke-width="1" /></g><g transform="rotate(-35.514)"><path fill="#8b9db6" d="M 299.92,-6.81 A 300.00 300.00 0 0 1 299.92,6.81 L 242.94,5.51 A 243.00 243.00 0 0 0 242.94,-5.51 Z" /><text font-family="Proza Libre" font-size="18" fill="#bfbfbf" x="330" y="5">PowerMates International</text><line stroke="#bfbfbf" stroke-width="1" stroke-dasharray="5, 5" x1="563.9716796875" y1="0" x2="600" y2="0" /><circle fill="none" stroke="#48aed6" stroke-width="1" cx="620" cy="0" r="10.192045349046229" /><circle fill="#48aed6" stroke="#48aed6" stroke-width="1" cx="660" cy="0" r="12.70257361206952" /><path d="M 704.82,-15.99 A 705.00 705.00 0 0 1 704.82,15.99 L 689.82,15.65 A 690.00 690.00 0 0 0 689.82,-15.65 Z" fill="#353232" stroke="#929191" stroke-width="1" /></g><g transform="rotate(-32.3364)"><path fill="#8b9db6" d="M 299.92,-6.81 A 300.00 300.00 0 0 1 299.92,6.81 L 221.94,5.04 A 222.00 222.00 0 0 0 221.94,-5.04 Z" /><text font-family="Proza Libre" font-size="18" fill="#bfbfbf" x="330" y="5">NovaDrive Technologies</text><line stroke="#bfbfbf" stroke-width="1" stroke-dasharray="5, 5" x1="543.3876953125" y1="0" x2="600" y2="0" /><circle fill="none" stroke="#48aed6" stroke-width="1" cx="620" cy="0" r="14.089689438589962" /><circle fill="#48aed6" stroke="#48aed6" stroke-width="1" cx="660" cy="0" r="14.569421110011735" /><path d="M 704.82,-15.99 A 705.00 705.00 0 0 1 704.82,15.99 L 689.82,15.65 A 690.00 690.00 0 0 0 689.82,-15.65 Z" fill="#473232" stroke="#929191" stroke-width="1" /></g><g transform="rotate(-29.1589)"><path fill="#8b9db6" d="M 299.92,-6.81 A 300.00 300.00 0 0 1 299.92,6.81 L 299.92,6.81 A 300.00 300.00 0 0 0 299.92,-6.81 Z" /><text font-family="Proza Libre" font-size="18" fill="#bfbfbf" x="330" y="5">AlloyLift Systems</text><line stroke="#bfbfbf" stroke-width="1" stroke-dasharray="5, 5" x1="488.0078125" y1="0" x2="600" y2="0" /><path d="M 326.00,0.00 L 322.05,2.94 L 320.47,7.61 L 316.45,4.76 L 311.53,4.70 L 313.00,0.00 L 311.53,-4.70 L 316.45,-4.76 L 320.47,-7.61 L 322.05,-2.94 Z" fill="#48aed6" stroke="#48aed6" stroke-width="1" /><circle fill="none" stroke="#48aed6" stroke-width="1" cx="620" cy="0" r="15.622209818590989" /><circle fill="#48aed6" stroke="#48aed6" stroke-width="1" cx="660" cy="0" r="10.832672856536595" /><path d="M 704.82,-15.99 A 705.00 705.00 0 0 1 704.82,15.99 L 689.82,15.65 A 690.00 690.00 0 0 0 689.82,-15.65 Z" fill="#343333" stroke="#929191" stroke-width="1" /></g><g transform="rotate(-25.9813)"><path fill="#8b9db6" d="M 299.92,-6.81 A 300.00 300.00 0 0 1 299.92,6.81 L 299.92,6.81 A 300.00 300.00 0 0 0 299.92,-6.81 Z" /><text font-family="Proza Libre" font-size="18" fill="#bfbfbf" x="330" y="5">EMF Fusion</text><line stroke="#bfbfbf" stroke-width="1" stroke-dasharray="5, 5" x1="438.33203125" y1="0" x2="600" y2="0" /><circle fill="none" stroke="#48aed6" stroke-width="1" cx="620" cy="0" r="14.292504958505253" /><circle fill="#48aed6" stroke="#48aed6" stroke-width="1" cx="660" cy="0" r="8.593810857321794" /><path d="M 704.82,-15.99 A 705.00 705.00 0 0 1 704.82,15.99 L 689.82,15.65 A 690.00 690.00 0 0 0 689.82,-15.65 Z" fill="#343333" stroke="#929191" stroke-width="1" /></g><g transform="rotate(-22.8037)"><path fill="#8b9db6" d="M 299.92,-6.81 A 300.00 300.00 0 0 1 299.92,6.81 L 269.93,6.13 A 270.00 270.00 0 0 0 269.93,-6.13 Z" /><text font-family="Proza Libre" font-size="18" fill="#bfbfbf" x="330" y="5">OmniMotion Tech</text><line stroke="#bfbfbf" stroke-width="1" stroke-dasharray="5, 5" x1="493.6240234375" y1="0" x2="600" y2="0" /><path d="M 326.00,0.00 L 322.05,2.94 L 320.47,7.61 L 316.45,4.76 L 311.53,4.70 L 313.00,0.00 L 311.53,-4.70 L 316.45,-4.76 L 320.47,-7.61 L 322.05,-2.94 Z" fill="#48aed6" stroke="#48aed6" stroke-width="1" /><circle fill="none" stroke="#48aed6" stroke-width="1" cx="620" cy="0" r="5.550881938783259" /><circle fill="#48aed6" stroke="#48aed6" stroke-width="1" cx="660" cy="0" r="15.136351291304974" /><path d="M 704.82,-15.99 A 705.00 705.00 0 0 1 704.82,15.99 L 689.82,15.65 A 690.00 690.00 0 0 0 689.82,-15.65 Z" fill="#4b3232" stroke="#929191" stroke-width="1" /></g><g transform="rotate(-19.6262)"><path fill="#8b9db6" d="M 299.92,-6.81 A 300.00 300.00 0 0 1 299.92,6.81 L 299.92,6.81 A 300.00 300.00 0 0 0 299.92,-6.81 Z" /><text font-family="Proza Libre" font-size="18" fill="#bfbfbf" x="330" y="5">ZenoGear Engineering</text><line stroke="#bfbfbf" stroke-width="1" stroke-dasharray="5, 5" x1="529.158203125" y1="0" x2="600" y2="0" /><path d="M 312.34,2.83 L 315.17,5.66 L 318.00,2.83 L 320.83,5.66 L 323.66,2.83 L 320.83,0.00 L 323.66,-2.83 L 320.83,-5.66 L 318.00,-2.83 L 315.17,-5.66 L 312.34,-2.83 L 315.17,0.00 Z" fill="#cd312e" stroke="#cd312e" stroke-width="1" /><circle fill="none" stroke="#48aed6" stroke-width="1" cx="620" cy="0" r="7.705321721868941" /><circle fill="#48aed6" stroke="#48aed6" stroke-width="1" cx="660" cy="0" r="15.69432183064674" /><path d="M 704.82,-15.99 A 705.00 705.00 0 0 1 704.82,15.99 L 689.82,15.65 A 690.00 690.00 0 0 0 689.82,-15.65 Z" fill="#343333" stroke="#929191" stroke-width="1" /></g><g transform="rotate(-16.4486)"><path fill="#8b9db6" d="M 299.92,-6.81 A 300.00 300.00 0 0 1 299.92,6.81 L 137.96,3.13 A 138.00 138.00 0 0 0 137.96,-3.13 Z" /><text font-family="Proza Libre" font-size="18" fill="#bfbfbf" x="330" y="5">AeroVolt Solutions</text><line stroke="#bfbfbf" stroke-width="1" stroke-dasharray="5, 5" x1="499.890625" y1="0" x2="600" y2="0" /><circle fill="none" stroke="#48aed6" stroke-width="1" cx="620" cy="0" r="13.632628032958994" /><circle fill="#48aed6" stroke="#48aed6" stroke-width="1" cx="660" cy="0" r="4.535017641949713" /><path d="M 704.82,-15.99 A 705.00 705.00 0 0 1 704.82,15.99 L 689.82,15.65 A 690.00 690.00 0 0 0 689.82,-15.65 Z" fill="#383232" stroke="#929191" stroke-width="1" /></g><g transform="rotate(-13.271)"><path fill="#8b9db6" d="M 299.92,-6.81 A 300.00 300.00 0 0 1 299.92,6.81 L 299.92,6.81 A 300.00 300.00 0 0 0 299.92,-6.81 Z" /><text font-family="Proza Libre" font-size="18" fill="#bfbfbf" x="330" y="5">OptimaTorque Industries</text><line stroke="#bfbfbf" stroke-width="1" stroke-dasharray="5, 5" x1="554.2158203125" y1="0" x2="600" y2="0" /><circle fill="none" stroke="#48aed6" stroke-width="1" cx="620" cy="0" r="14.681305127794461" /><circle fill="#48aed6" stroke="#48aed6" stroke-width="1" cx="660" cy="0" r="10.119009856935932" /><path d="M 704.82,-15.99 A 705.00 705.00 0 0 1 704.82,15.99 L 689.82,15.65 A 690.00 690.00 0 0 0 689.82,-15.65 Z" fill="#343333" stroke="#929191" stroke-width="1" /></g><g transform="rotate(-10.0935)"><path fill="#8b9db6" d="M 299.92,-6.81 A 300.00 300.00 0 0 1 299.92,6.81 L 296.92,6.74 A 297.00 297.00 0 0 0 296.92,-6.74 Z" /><text font-family="Proza Libre" font-size="18" fill="#bfbfbf" x="330" y="5">TeraMoto Co.</text><line stroke="#bfbfbf" stroke-width="1" stroke-dasharray="5, 5" x1="456.5341796875" y1="0" x2="600" y2="0" /><circle fill="none" stroke="#48aed6" stroke-width="1" cx="620" cy="0" r="15.329472936431129" /><circle fill="#48aed6" stroke="#48aed6" stroke-width="1" cx="660" cy="0" r="3.9579802485749846" /><path d="M 704.82,-15.99 A 705.00 705.00 0 0 1 704.82,15.99 L 689.82,15.65 A 690.00 690.00 0 0 0 689.82,-15.65 Z" fill="#383232" stroke="#929191" stroke-width="1" /></g><g transform="rotate(-6.91589)"><path fill="#8b9db6" d="M 299.92,-6.81 A 300.00 300.00 0 0 1 299.92,6.81 L 299.92,6.81 A 300.00 300.00 0 0 0 299.92,-6.81 Z" /><text font-family="Proza Libre" font-size="18" fill="#bfbfbf" x="330" y="5">MechXion</text><line stroke="#bfbfbf" stroke-width="1" stroke-dasharray="5, 5" x1="425.658203125" y1="0" x2="600" y2="0" /><circle fill="none" stroke="#48aed6" stroke-width="1" cx="620" cy="0" r="15.898552607988469" /><circle fill="#48aed6" stroke="#48aed6" stroke-width="1" cx="660" cy="0" r="8.157363028596903" /><path d="M 704.82,-15.99 A 705.00 705.00 0 0 1 704.82,15.99 L 689.82,15.65 A 690.00 690.00 0 0 0 689.82,-15.65 Z" fill="#343333" stroke="#929191" stroke-width="1" /></g><g transform="rotate(-3.73832)"><path fill="#8b9db6" d="M 299.92,-6.81 A 300.00 300.00 0 0 1 299.92,6.81 L 131.97,2.99 A 132.00 132.00 0 0 0 131.97,-2.99 Z" /><text font-family="Proza Libre" font-size="18" fill="#bfbfbf" x="330" y="5">SonicVibe Mechanicals</text><line stroke="#bfbfbf" stroke-width="1" stroke-dasharray="5, 5" x1="533.32421875" y1="0" x2="600" y2="0" /><path d="M 326.00,0.00 L 322.05,2.94 L 320.47,7.61 L 316.45,4.76 L 311.53,4.70 L 313.00,0.00 L 311.53,-4.70 L 316.45,-4.76 L 320.47,-7.61 L 322.05,-2.94 Z" fill="none" stroke="#48aed6" stroke-width="1" /><circle fill="none" stroke="#48aed6" stroke-width="1" cx="620" cy="0" r="10.759037048705888" /><circle fill="#48aed6" stroke="#48aed6" stroke-width="1" cx="660" cy="0" r="10.126582361296418" /><path d="M 704.82,-15.99 A 705.00 705.00 0 0 1 704.82,15.99 L 689.82,15.65 A 690.00 690.00 0 0 0 689.82,-15.65 Z" fill="#3a3232" stroke="#929191" stroke-width="1" /></g><g transform="rotate(-0.560748)"><path fill="#8b9db6" d="M 299.92,-6.81 A 300.00 300.00 0 0 1 299.92,6.81 L 299.92,6.81 A 300.00 300.00 0 0 0 299.92,-6.81 Z" /><text font-family="Proza Libre" font-size="18" fill="#bfbfbf" x="330" y="5">DynamoWorks</text><line stroke="#bfbfbf" stroke-width="1" stroke-dasharray="5, 5" x1="467.318359375" y1="0" x2="600" y2="0" /><path d="M 326.00,0.00 L 322.05,2.94 L 320.47,7.61 L 316.45,4.76 L 311.53,4.70 L 313.00,0.00 L 311.53,-4.70 L 316.45,-4.76 L 320.47,-7.61 L 322.05,-2.94 Z" fill="none" stroke="#48aed6" stroke-width="1" /><circle fill="none" stroke="#48aed6" stroke-width="1" cx="620" cy="0" r="5.167617664110528" /><circle fill="#48aed6" stroke="#48aed6" stroke-width="1" cx="660" cy="0" r="5.811099417706617" /><path d="M 704.82,-15.99 A 705.00 705.00 0 0 1 704.82,15.99 L 689.82,15.65 A 690.00 690.00 0 0 0 689.82,-15.65 Z" fill="#343333" stroke="#929191" stroke-width="1" /></g><g transform="rotate(2.61682)"><path fill="#8b9db6" d="M 299.92,-6.81 A 300.00 300.00 0 0 1 299.92,6.81 L 275.93,6.26 A 276.00 276.00 0 0 0 275.93,-6.26 Z" /><text font-family="Proza Libre" font-size="18" fill="#bfbfbf" x="330" y="5">ElectroLink Global</text><line stroke="#bfbfbf" stroke-width="1" stroke-dasharray="5, 5" x1="494.353515625" y1="0" x2="600" y2="0" /><circle fill="none" stroke="#48aed6" stroke-width="1" cx="620" cy="0" r="11.380873859694482" /><circle fill="#48aed6" stroke="#48aed6" stroke-width="1" cx="660" cy="0" r="12.700998346113483" /><path d="M 704.82,-15.99 A 705.00 705.00 0 0 1 704.82,15.99 L 689.82,15.65 A 690.00 690.00 0 0 0 689.82,-15.65 Z" fill="#353232" stroke="#929191" stroke-width="1" /></g><g transform="rotate(5.79439)"><path fill="#8b9db6" d="M 299.92,-6.81 A 300.00 300.00 0 0 1 299.92,6.81 L 293.92,6.67 A 294.00 294.00 0 0 0 293.92,-6.67 Z" /><text font-family="Proza Libre" font-size="18" fill="#bfbfbf" x="330" y="5">SurgeTech Manufacturing</text><line stroke="#bfbfbf" stroke-width="1" stroke-dasharray="5, 5" x1="561.4228515625" y1="0" x2="600" y2="0" /><path d="M 326.00,0.00 L 322.05,2.94 L 320.47,7.61 L 316.45,4.76 L 311.53,4.70 L 313.00,0.00 L 311.53,-4.70 L 316.45,-4.76 L 320.47,-7.61 L 322.05,-2.94 Z" fill="#48aed6" stroke="#48aed6" stroke-width="1" /><circle fill="none" stroke="#48aed6" stroke-width="1" cx="620" cy="0" r="10.533737969116617" /><circle fill="#48aed6" stroke="#48aed6" stroke-width="1" cx="660" cy="0" r="15.884482318397724" /><path d="M 704.82,-15.99 A 705.00 705.00 0 0 1 704.82,15.99 L 689.82,15.65 A 690.00 690.00 0 0 0 689.82,-15.65 Z" fill="#3c3232" stroke="#929191" stroke-width="1" /></g><g transform="rotate(8.97196)"><path fill="#8b9db6" d="M 299.92,-6.81 A 300.00 300.00 0 0 1 299.92,6.81 L 272.93,6.19 A 273.00 273.00 0 0 0 272.93,-6.19 Z" /><text font-family="Proza Libre" font-size="18" fill="#bfbfbf" x="330" y="5">Axilift Automation</text><line stroke="#bfbfbf" stroke-width="1" stroke-dasharray="5, 5" x1="501.0947265625" y1="0" x2="600" y2="0" /><path d="M 326.00,0.00 L 322.05,2.94 L 320.47,7.61 L 316.45,4.76 L 311.53,4.70 L 313.00,0.00 L 311.53,-4.70 L 316.45,-4.76 L 320.47,-7.61 L 322.05,-2.94 Z" fill="#48aed6" stroke="#48aed6" stroke-width="1" /><circle fill="none" stroke="#48aed6" stroke-width="1" cx="620" cy="0" r="12.002585618641943" /><circle fill="#48aed6" stroke="#48aed6" stroke-width="1" cx="660" cy="0" r="15.27245740517526" /><path d="M 704.82,-15.99 A 705.00 705.00 0 0 1 704.82,15.99 L 689.82,15.65 A 690.00 690.00 0 0 0 689.82,-15.65 Z" fill="#493232" stroke="#929191" stroke-width="1" /></g><g transform="rotate(12.1495)"><path fill="#8b9db6" d="M 299.92,-6.81 A 300.00 300.00 0 0 1 299.92,6.81 L 299.92,6.81 A 300.00 300.00 0 0 0 299.92,-6.81 Z" /><text font-family="Proza Libre" font-size="18" fill="#bfbfbf" x="330" y="5">ApexCircuit Dynamics</text><line stroke="#bfbfbf" stroke-width="1" stroke-dasharray="5, 5" x1="527.59375" y1="0" x2="600" y2="0" /><circle fill="none" stroke="#48aed6" stroke-width="1" cx="620" cy="0" r="13.305501824244176" /><circle fill="#48aed6" stroke="#48aed6" stroke-width="1" cx="660" cy="0" r="6.18529330870119" /><path d="M 704.82,-15.99 A 705.00 705.00 0 0 1 704.82,15.99 L 689.82,15.65 A 690.00 690.00 0 0 0 689.82,-15.65 Z" fill="#343333" stroke="#929191" stroke-width="1" /></g><g transform="rotate(15.3271)"><path fill="#8b9db6" d="M 299.92,-6.81 A 300.00 300.00 0 0 1 299.92,6.81 L 281.93,6.40 A 282.00 282.00 0 0 0 281.93,-6.40 Z" /><text font-family="Proza Libre" font-size="18" fill="#bfbfbf" x="330" y="5">GearNova Engineering</text><line stroke="#bfbfbf" stroke-width="1" stroke-dasharray="5, 5" x1="531.443359375" y1="0" x2="600" y2="0" /><path d="M 326.00,0.00 L 322.05,2.94 L 320.47,7.61 L 316.45,4.76 L 311.53,4.70 L 313.00,0.00 L 311.53,-4.70 L 316.45,-4.76 L 320.47,-7.61 L 322.05,-2.94 Z" fill="none" stroke="#48aed6" stroke-width="1" /><circle fill="none" stroke="#48aed6" stroke-width="1" cx="620" cy="0" r="15.86957153580449" /><circle fill="#48aed6" stroke="#48aed6" stroke-width="1" cx="660" cy="0" r="15.573056564882155" /><path d="M 704.82,-15.99 A 705.00 705.00 0 0 1 704.82,15.99 L 689.82,15.65 A 690.00 690.00 0 0 0 689.82,-15.65 Z" fill="#6b3231" stroke="#929191" stroke-width="1" /></g><g transform="rotate(18.5047)"><path fill="#8b9db6" d="M 299.92,-6.81 A 300.00 300.00 0 0 1 299.92,6.81 L 218.94,4.97 A 219.00 219.00 0 0 0 218.94,-4.97 Z" /><text font-family="Proza Libre" font-size="18" fill="#bfbfbf" x="330" y="5">MagnaFlow Tech</text><line stroke="#bfbfbf" stroke-width="1" stroke-dasharray="5, 5" x1="483.5869140625" y1="0" x2="600" y2="0" /><path d="M 312.34,2.83 L 315.17,5.66 L 318.00,2.83 L 320.83,5.66 L 323.66,2.83 L 320.83,0.00 L 323.66,-2.83 L 320.83,-5.66 L 318.00,-2.83 L 315.17,-5.66 L 312.34,-2.83 L 315.17,0.00 Z" fill="#cd312e" stroke="#cd312e" stroke-width="1" /><circle fill="none" stroke="#48aed6" stroke-width="1" cx="620" cy="0" r="3.660101613243149" /><circle fill="#48aed6" stroke="#48aed6" stroke-width="1" cx="660" cy="0" r="14.863292507028373" /><path d="M 704.82,-15.99 A 705.00 705.00 0 0 1 704.82,15.99 L 689.82,15.65 A 690.00 690.00 0 0 0 689.82,-15.65 Z" fill="#3b3232" stroke="#929191" stroke-width="1" /></g><g transform="rotate(21.6822)"><path fill="#8b9db6" d="M 299.92,-6.81 A 300.00 300.00 0 0 1 299.92,6.81 L 269.93,6.13 A 270.00 270.00 0 0 0 269.93,-6.13 Z" /><text font-family="Proza Libre" font-size="18" fill="#bfbfbf" x="330" y="5">VectorVoltage</text><line stroke="#bfbfbf" stroke-width="1" stroke-dasharray="5, 5" x1="462.7041015625" y1="0" x2="600" y2="0" /><path d="M 326.00,0.00 L 322.05,2.94 L 320.47,7.61 L 316.45,4.76 L 311.53,4.70 L 313.00,0.00 L 311.53,-4.70 L 316.45,-4.76 L 320.47,-7.61 L 322.05,-2.94 Z" fill="#48aed6" stroke="#48aed6" stroke-width="1" /><circle fill="none" stroke="#48aed6" stroke-width="1" cx="620" cy="0" r="12.714992138129562" /><circle fill="#48aed6" stroke="#48aed6" stroke-width="1" cx="660" cy="0" r="15.199011680434884" /><path d="M 704.82,-15.99 A 705.00 705.00 0 0 1 704.82,15.99 L 689.82,15.65 A 690.00 690.00 0 0 0 689.82,-15.65 Z" fill="#373232" stroke="#929191" stroke-width="1" /></g><g transform="rotate(24.8598)"><path fill="#8b9db6" d="M 299.92,-6.81 A 300.00 300.00 0 0 1 299.92,6.81 L 227.94,5.17 A 228.00 228.00 0 0 0 227.94,-5.17 Z" /><text font-family="Proza Libre" font-size="18" fill="#bfbfbf" x="330" y="5">TektonDrive Systems</text><line stroke="#bfbfbf" stroke-width="1" stroke-dasharray="5, 5" x1="519.279296875" y1="0" x2="600" y2="0" /><path d="M 326.00,0.00 L 322.05,2.94 L 320.47,7.61 L 316.45,4.76 L 311.53,4.70 L 313.00,0.00 L 311.53,-4.70 L 316.45,-4.76 L 320.47,-7.61 L 322.05,-2.94 Z" fill="none" stroke="#48aed6" stroke-width="1" /><circle fill="none" stroke="#48aed6" stroke-width="1" cx="620" cy="0" r="3.5033209707047126" /><circle fill="#48aed6" stroke="#48aed6" stroke-width="1" cx="660" cy="0" r="9.87085748224016" /><path d="M 704.82,-15.99 A 705.00 705.00 0 0 1 704.82,15.99 L 689.82,15.65 A 690.00 690.00 0 0 0 689.82,-15.65 Z" fill="#383232" stroke="#929191" stroke-width="1" /></g><g transform="rotate(28.0374)"><path fill="#8b9db6" d="M 299.92,-6.81 A 300.00 300.00 0 0 1 299.92,6.81 L 290.93,6.60 A 291.00 291.00 0 0 0 290.93,-6.60 Z" /><text font-family="Proza Libre" font-size="18" fill="#bfbfbf" x="330" y="5">FissionMotion</text><line stroke="#bfbfbf" stroke-width="1" stroke-dasharray="5, 5" x1="461.376953125" y1="0" x2="600" y2="0" /><circle fill="none" stroke="#48aed6" stroke-width="1" cx="620" cy="0" r="10.085231670042111" /><circle fill="#48aed6" stroke="#48aed6" stroke-width="1" cx="660" cy="0" r="14.15029720924752" /><path d="M 704.82,-15.99 A 705.00 705.00 0 0 1 704.82,15.99 L 689.82,15.65 A 690.00 690.00 0 0 0 689.82,-15.65 Z" fill="#363232" stroke="#929191" stroke-width="1" /></g><g transform="rotate(31.215)"><path fill="#8b9db6" d="M 299.92,-6.81 A 300.00 300.00 0 0 1 299.92,6.81 L 287.93,6.53 A 288.00 288.00 0 0 0 287.93,-6.53 Z" /><text font-family="Proza Libre" font-size="18" fill="#bfbfbf" x="330" y="5">GravityGear Solutions</text><line stroke="#bfbfbf" stroke-width="1" stroke-dasharray="5, 5" x1="528.9033203125" y1="0" x2="600" y2="0" /><path d="M 326.00,0.00 L 322.05,2.94 L 320.47,7.61 L 316.45,4.76 L 311.53,4.70 L 313.00,0.00 L 311.53,-4.70 L 316.45,-4.76 L 320.47,-7.61 L 322.05,-2.94 Z" fill="#48aed6" stroke="#48aed6" stroke-width="1" /><circle fill="none" stroke="#48aed6" stroke-width="1" cx="620" cy="0" r="15.389636823818364" /><circle fill="#48aed6" stroke="#48aed6" stroke-width="1" cx="660" cy="0" r="9.007203700764935" /><path d="M 704.82,-15.99 A 705.00 705.00 0 0 1 704.82,15.99 L 689.82,15.65 A 690.00 690.00 0 0 0 689.82,-15.65 Z" fill="#3e3232" stroke="#929191" stroke-width="1" /></g><g transform="rotate(34.3925)"><path fill="#8b9db6" d="M 299.92,-6.81 A 300.00 300.00 0 0 1 299.92,6.81 L 299.92,6.81 A 300.00 300.00 0 0 0 299.92,-6.81 Z" /><text font-family="Proza Libre" font-size="18" fill="#bfbfbf" x="330" y="5">HelixSpark Mechanics</text><line stroke="#bfbfbf" stroke-width="1" stroke-dasharray="5, 5" x1="526.662109375" y1="0" x2="600" y2="0" /><circle fill="none" stroke="#48aed6" stroke-width="1" cx="620" cy="0" r="13.909907686764932" /><circle fill="#48aed6" stroke="#48aed6" stroke-width="1" cx="660" cy="0" r="6.105325049869163" /><path d="M 704.82,-15.99 A 705.00 705.00 0 0 1 704.82,15.99 L 689.82,15.65 A 690.00 690.00 0 0 0 689.82,-15.65 Z" fill="#343333" stroke="#929191" stroke-width="1" /></g><g transform="rotate(37.5701)"><path fill="#8b9db6" d="M 299.92,-6.81 A 300.00 300.00 0 0 1 299.92,6.81 L 227.94,5.17 A 228.00 228.00 0 0 0 227.94,-5.17 Z" /><text font-family="Proza Libre" font-size="18" fill="#bfbfbf" x="330" y="5">EquinoxTorque</text><line stroke="#bfbfbf" stroke-width="1" stroke-dasharray="5, 5" x1="466.5361328125" y1="0" x2="600" y2="0" /><path d="M 326.00,0.00 L 322.05,2.94 L 320.47,7.61 L 316.45,4.76 L 311.53,4.70 L 313.00,0.00 L 311.53,-4.70 L 316.45,-4.76 L 320.47,-7.61 L 322.05,-2.94 Z" fill="none" stroke="#48aed6" stroke-width="1" /><circle fill="none" stroke="#48aed6" stroke-width="1" cx="620" cy="0" r="4.7213722279725046" /><circle fill="#48aed6" stroke="#48aed6" stroke-width="1" cx="660" cy="0" r="7.197293468196628" /><path d="M 704.82,-15.99 A 705.00 705.00 0 0 1 704.82,15.99 L 689.82,15.65 A 690.00 690.00 0 0 0 689.82,-15.65 Z" fill="#3d3232" stroke="#929191" stroke-width="1" /></g><g transform="rotate(40.7477)"><path fill="#8b9db6" d="M 299.92,-6.81 A 300.00 300.00 0 0 1 299.92,6.81 L 299.92,6.81 A 300.00 300.00 0 0 0 299.92,-6.81 Z" /><text font-family="Proza Libre" font-size="18" fill="#bfbfbf" x="330" y="5">ProtoDrive Industries</text><line stroke="#bfbfbf" stroke-width="1" stroke-dasharray="5, 5" x1="521.8984375" y1="0" x2="600" y2="0" /><circle fill="none" stroke="#48aed6" stroke-width="1" cx="620" cy="0" r="8.251316644389796" /><circle fill="#48aed6" stroke="#48aed6" stroke-width="1" cx="660" cy="0" r="8.550803339339327" /><path d="M 704.82,-15.99 A 705.00 705.00 0 0 1 704.82,15.99 L 689.82,15.65 A 690.00 690.00 0 0 0 689.82,-15.65 Z" fill="#343333" stroke="#929191" stroke-width="1" /></g><g transform="rotate(43.9252)"><path fill="#8b9db6" d="M 299.92,-6.81 A 300.00 300.00 0 0 1 299.92,6.81 L 215.94,4.90 A 216.00 216.00 0 0 0 215.94,-4.90 Z" /><text font-family="Proza Libre" font-size="18" fill="#bfbfbf" x="330" y="5">AeroNexus Tech</text><line stroke="#bfbfbf" stroke-width="1" stroke-dasharray="5, 5" x1="476.0546875" y1="0" x2="600" y2="0" /><path d="M 326.00,0.00 L 322.05,2.94 L 320.47,7.61 L 316.45,4.76 L 311.53,4.70 L 313.00,0.00 L 311.53,-4.70 L 316.45,-4.76 L 320.47,-7.61 L 322.05,-2.94 Z" fill="#48aed6" stroke="#48aed6" stroke-width="1" /><circle fill="none" stroke="#48aed6" stroke-width="1" cx="620" cy="0" r="15.008746119950626" /><circle fill="#48aed6" stroke="#48aed6" stroke-width="1" cx="660" cy="0" r="7.653275327837548" /><path d="M 704.82,-15.99 A 705.00 705.00 0 0 1 704.82,15.99 L 689.82,15.65 A 690.00 690.00 0 0 0 689.82,-15.65 Z" fill="#92312f" stroke="#929191" stroke-width="1" /></g><g transform="rotate(47.1028)"><path fill="#8b9db6" d="M 299.92,-6.81 A 300.00 300.00 0 0 1 299.92,6.81 L 116.97,2.65 A 117.00 117.00 0 0 0 116.97,-2.65 Z" /><text font-family="Proza Libre" font-size="18" fill="#bfbfbf" x="330" y="5">Electronova Solutions</text><line stroke="#bfbfbf" stroke-width="1" stroke-dasharray="5, 5" x1="525.361328125" y1="0" x2="600" y2="0" /><circle fill="none" stroke="#48aed6" stroke-width="1" cx="620" cy="0" r="5.699220931180043" /><circle fill="#48aed6" stroke="#48aed6" stroke-width="1" cx="660" cy="0" r="13.351577173037668" /><path d="M 704.82,-15.99 A 705.00 705.00 0 0 1 704.82,15.99 L 689.82,15.65 A 690.00 690.00 0 0 0 689.82,-15.65 Z" fill="#373232" stroke="#929191" stroke-width="1" /></g><g transform="rotate(50.2804)"><path fill="#8b9db6" d="M 299.92,-6.81 A 300.00 300.00 0 0 1 299.92,6.81 L 236.94,5.38 A 237.00 237.00 0 0 0 236.94,-5.38 Z" /><text font-family="Proza Libre" font-size="18" fill="#bfbfbf" x="330" y="5">GearCore Global</text><line stroke="#bfbfbf" stroke-width="1" stroke-dasharray="5, 5" x1="480.5810546875" y1="0" x2="600" y2="0" /><path d="M 326.00,0.00 L 322.05,2.94 L 320.47,7.61 L 316.45,4.76 L 311.53,4.70 L 313.00,0.00 L 311.53,-4.70 L 316.45,-4.76 L 320.47,-7.61 L 322.05,-2.94 Z" fill="none" stroke="#48aed6" stroke-width="1" /><circle fill="none" stroke="#48aed6" stroke-width="1" cx="620" cy="0" r="9.366207741077" /><circle fill="#48aed6" stroke="#48aed6" stroke-width="1" cx="660" cy="0" r="13.920964404946496" /><path d="M 704.82,-15.99 A 705.00 705.00 0 0 1 704.82,15.99 L 689.82,15.65 A 690.00 690.00 0 0 0 689.82,-15.65 Z" fill="#363232" stroke="#929191" stroke-width="1" /></g><g transform="rotate(53.4579)"><path fill="#8b9db6" d="M 299.92,-6.81 A 300.00 300.00 0 0 1 299.92,6.81 L 236.94,5.38 A 237.00 237.00 0 0 0 236.94,-5.38 Z" /><text font-family="Proza Libre" font-size="18" fill="#bfbfbf" x="330" y="5">InnoMotion Systems</text><line stroke="#bfbfbf" stroke-width="1" stroke-dasharray="5, 5" x1="516.501953125" y1="0" x2="600" y2="0" /><circle fill="none" stroke="#48aed6" stroke-width="1" cx="620" cy="0" r="9.561719503231123" /><circle fill="#48aed6" stroke="#48aed6" stroke-width="1" cx="660" cy="0" r="7.25564418612481" /><path d="M 704.82,-15.99 A 705.00 705.00 0 0 1 704.82,15.99 L 689.82,15.65 A 690.00 690.00 0 0 0 689.82,-15.65 Z" fill="#3c3232" stroke="#929191" stroke-width="1" /></g><g transform="rotate(56.6355)"><path fill="#8b9db6" d="M 299.92,-6.81 A 300.00 300.00 0 0 1 299.92,6.81 L 245.94,5.58 A 246.00 246.00 0 0 0 245.94,-5.58 Z" /><text font-family="Proza Libre" font-size="18" fill="#bfbfbf" x="330" y="5">ElectroQuantum</text><line stroke="#bfbfbf" stroke-width="1" stroke-dasharray="5, 5" x1="483.2880859375" y1="0" x2="600" y2="0" /><path d="M 326.00,0.00 L 322.05,2.94 L 320.47,7.61 L 316.45,4.76 L 311.53,4.70 L 313.00,0.00 L 311.53,-4.70 L 316.45,-4.76 L 320.47,-7.61 L 322.05,-2.94 Z" fill="none" stroke="#48aed6" stroke-width="1" /><circle fill="none" stroke="#48aed6" stroke-width="1" cx="620" cy="0" r="10.06212881761074" /><circle fill="#48aed6" stroke="#48aed6" stroke-width="1" cx="660" cy="0" r="7.536359646446238" /><path d="M 704.82,-15.99 A 705.00 705.00 0 0 1 704.82,15.99 L 689.82,15.65 A 690.00 690.00 0 0 0 689.82,-15.65 Z" fill="#393232" stroke="#929191" stroke-width="1" /></g><g transform="rotate(59.8131)"><path fill="#8b9db6" d="M 299.92,-6.81 A 300.00 300.00 0 0 1 299.92,6.81 L 230.94,5.24 A 231.00 231.00 0 0 0 230.94,-5.24 Z" /><text font-family="Proza Libre" font-size="18" fill="#bfbfbf" x="330" y="5">TorqueForge Dynamics</text><line stroke="#bfbfbf" stroke-width="1" stroke-dasharray="5, 5" x1="534.3173828125" y1="0" x2="600" y2="0" /><circle fill="none" stroke="#48aed6" stroke-width="1" cx="620" cy="0" r="10.898713268639181" /><circle fill="#48aed6" stroke="#48aed6" stroke-width="1" cx="660" cy="0" r="15.370023818333474" /><path d="M 704.82,-15.99 A 705.00 705.00 0 0 1 704.82,15.99 L 689.82,15.65 A 690.00 690.00 0 0 0 689.82,-15.65 Z" fill="#393232" stroke="#929191" stroke-width="1" /></g><g transform="rotate(62.9907)"><path fill="#8b9db6" d="M 299.92,-6.81 A 300.00 300.00 0 0 1 299.92,6.81 L 299.92,6.81 A 300.00 300.00 0 0 0 299.92,-6.81 Z" /><text font-family="Proza Libre" font-size="18" fill="#bfbfbf" x="330" y="5">Vibranix Innovations</text><line stroke="#bfbfbf" stroke-width="1" stroke-dasharray="5, 5" x1="516.255859375" y1="0" x2="600" y2="0" /><path d="M 326.00,0.00 L 322.05,2.94 L 320.47,7.61 L 316.45,4.76 L 311.53,4.70 L 313.00,0.00 L 311.53,-4.70 L 316.45,-4.76 L 320.47,-7.61 L 322.05,-2.94 Z" fill="none" stroke="#48aed6" stroke-width="1" /><circle fill="none" stroke="#48aed6" stroke-width="1" cx="620" cy="0" r="14.090901702430662" /><circle fill="#48aed6" stroke="#48aed6" stroke-width="1" cx="660" cy="0" r="12.345712974331427" /><path d="M 704.82,-15.99 A 705.00 705.00 0 0 1 704.82,15.99 L 689.82,15.65 A 690.00 690.00 0 0 0 689.82,-15.65 Z" fill="#343333" stroke="#929191" stroke-width="1" /></g><g transform="rotate(66.1682)"><path fill="#8b9db6" d="M 299.92,-6.81 A 300.00 300.00 0 0 1 299.92,6.81 L 299.92,6.81 A 300.00 300.00 0 0 0 299.92,-6.81 Z" /><text font-family="Proza Libre" font-size="18" fill="#bfbfbf" x="330" y="5">ApexDrive Mechanicals</text><line stroke="#bfbfbf" stroke-width="1" stroke-dasharray="5, 5" x1="537.349609375" y1="0" x2="600" y2="0" /><circle fill="none" stroke="#48aed6" stroke-width="1" cx="620" cy="0" r="5.228655397071158" /><circle fill="#48aed6" stroke="#48aed6" stroke-width="1" cx="660" cy="0" r="4.275984365776406" /><path d="M 704.82,-15.99 A 705.00 705.00 0 0 1 704.82,15.99 L 689.82,15.65 A 690.00 690.00 0 0 0 689.82,-15.65 Z" fill="#343333" stroke="#929191" stroke-width="1" /></g><g transform="rotate(69.3458)"><path fill="#8b9db6" d="M 299.92,-6.81 A 300.00 300.00 0 0 1 299.92,6.81 L 299.92,6.81 A 300.00 300.00 0 0 0 299.92,-6.81 Z" /><text font-family="Proza Libre" font-size="18" fill="#bfbfbf" x="330" y="5">KinetiFlow</text><line stroke="#bfbfbf" stroke-width="1" stroke-dasharray="5, 5" x1="431.318359375" y1="0" x2="600" y2="0" /><circle fill="none" stroke="#48aed6" stroke-width="1" cx="620" cy="0" r="5.837581111576568" /><circle fill="#48aed6" stroke="#48aed6" stroke-width="1" cx="660" cy="0" r="11.533914404821758" /><path d="M 704.82,-15.99 A 705.00 705.00 0 0 1 704.82,15.99 L 689.82,15.65 A 690.00 690.00 0 0 0 689.82,-15.65 Z" fill="#343333" stroke="#929191" stroke-width="1" /></g><g transform="rotate(72.5234)"><path fill="#8b9db6" d="M 299.92,-6.81 A 300.00 300.00 0 0 1 299.92,6.81 L 218.94,4.97 A 219.00 219.00 0 0 0 218.94,-4.97 Z" /><text font-family="Proza Libre" font-size="18" fill="#bfbfbf" x="330" y="5">MechNova Solutions</text><line stroke="#bfbfbf" stroke-width="1" stroke-dasharray="5, 5" x1="515.8603515625" y1="0" x2="600" y2="0" /><circle fill="none" stroke="#48aed6" stroke-width="1" cx="620" cy="0" r="16.0" /><circle fill="#48aed6" stroke="#48aed6" stroke-width="1" cx="660" cy="0" r="13.978096635578485" /><path d="M 704.82,-15.99 A 705.00 705.00 0 0 1 704.82,15.99 L 689.82,15.65 A 690.00 690.00 0 0 0 689.82,-15.65 Z" fill="#3c3232" stroke="#929191" stroke-width="1" /></g><g transform="rotate(75.7009)"><path fill="#8b9db6" d="M 299.92,-6.81 A 300.00 300.00 0 0 1 299.92,6.81 L 299.92,6.81 A 300.00 300.00 0 0 0 299.92,-6.81 Z" /><text font-family="Proza Libre" font-size="18" fill="#bfbfbf" x="330" y="5">BioCircuitry Tech</text><line stroke="#bfbfbf" stroke-width="1" stroke-dasharray="5, 5" x1="483.40234375" y1="0" x2="600" y2="0" /><path d="M 326.00,0.00 L 322.05,2.94 L 320.47,7.61 L 316.45,4.76 L 311.53,4.70 L 313.00,0.00 L 311.53,-4.70 L 316.45,-4.76 L 320.47,-7.61 L 322.05,-2.94 Z" fill="none" stroke="#48aed6" stroke-width="1" /><circle fill="none" stroke="#48aed6" stroke-width="1" cx="620" cy="0" r="11.707575676566993" /><circle fill="#48aed6" stroke="#48aed6" stroke-width="1" cx="660" cy="0" r="13.469908092703527" /><path d="M 704.82,-15.99 A 705.00 705.00 0 0 1 704.82,15.99 L 689.82,15.65 A 690.00 690.00 0 0 0 689.82,-15.65 Z" fill="#343333" stroke="#929191" stroke-width="1" /></g><g transform="rotate(78.8785)"><path fill="#8b9db6" d="M 299.92,-6.81 A 300.00 300.00 0 0 1 299.92,6.81 L 266.93,6.06 A 267.00 267.00 0 0 0 266.93,-6.06 Z" /><text font-family="Proza Libre" font-size="18" fill="#bfbfbf" x="330" y="5">ArcLight Mechanicals</text><line stroke="#bfbfbf" stroke-width="1" stroke-dasharray="5, 5" x1="522.3818359375" y1="0" x2="600" y2="0" /><circle fill="none" stroke="#48aed6" stroke-width="1" cx="620" cy="0" r="11.178216246510384" /><circle fill="#48aed6" stroke="#48aed6" stroke-width="1" cx="660" cy="0" r="9.318451984652585" /><path d="M 704.82,-15.99 A 705.00 705.00 0 0 1 704.82,15.99 L 689.82,15.65 A 690.00 690.00 0 0 0 689.82,-15.65 Z" fill="#3b3232" stroke="#929191" stroke-width="1" /></g><g transform="rotate(82.0561)"><path fill="#8b9db6" d="M 299.92,-6.81 A 300.00 300.00 0 0 1 299.92,6.81 L 299.92,6.81 A 300.00 300.00 0 0 0 299.92,-6.81 Z" /><text font-family="Proza Libre" font-size="18" fill="#bfbfbf" x="330" y="5">PowerStride Systems</text><line stroke="#bfbfbf" stroke-width="1" stroke-dasharray="5, 5" x1="519.841796875" y1="0" x2="600" y2="0" /><path d="M 326.00,0.00 L 322.05,2.94 L 320.47,7.61 L 316.45,4.76 L 311.53,4.70 L 313.00,0.00 L 311.53,-4.70 L 316.45,-4.76 L 320.47,-7.61 L 322.05,-2.94 Z" fill="none" stroke="#48aed6" stroke-width="1" /><circle fill="none" stroke="#48aed6" stroke-width="1" cx="620" cy="0" r="11.17611494550903" /><circle fill="#48aed6" stroke="#48aed6" stroke-width="1" cx="660" cy="0" r="13.9154568781781" /><path d="M 704.82,-15.99 A 705.00 705.00 0 0 1 704.82,15.99 L 689.82,15.65 A 690.00 690.00 0 0 0 689.82,-15.65 Z" fill="#343333" stroke="#929191" stroke-width="1" /></g><g transform="rotate(85.2336)"><path fill="#8b9db6" d="M 299.92,-6.81 A 300.00 300.00 0 0 1 299.92,6.81 L 263.93,5.99 A 264.00 264.00 0 0 0 263.93,-5.99 Z" /><text font-family="Proza Libre" font-size="18" fill="#bfbfbf" x="330" y="5">AlloyMeld Foundry</text><line stroke="#bfbfbf" stroke-width="1" stroke-dasharray="5, 5" x1="498.2734375" y1="0" x2="600" y2="0" /><circle fill="none" stroke="#48aed6" stroke-width="1" cx="620" cy="0" r="9.10487302563305" /><circle fill="#48aed6" stroke="#48aed6" stroke-width="1" cx="660" cy="0" r="13.818548629458576" /><path d="M 704.82,-15.99 A 705.00 705.00 0 0 1 704.82,15.99 L 689.82,15.65 A 690.00 690.00 0 0 0 689.82,-15.65 Z" fill="#393232" stroke="#929191" stroke-width="1" /></g><g transform="rotate(88.4112)"><path fill="#8b9db6" d="M 299.92,-6.81 A 300.00 300.00 0 0 1 299.92,6.81 L 296.92,6.74 A 297.00 297.00 0 0 0 296.92,-6.74 Z" /><text font-family="Proza Libre" font-size="18" fill="#bfbfbf" x="330" y="5">TerraCast Metals</text><line stroke="#bfbfbf" stroke-width="1" stroke-dasharray="5, 5" x1="487.427734375" y1="0" x2="600" y2="0" /><circle fill="none" stroke="#48aed6" stroke-width="1" cx="620" cy="0" r="5.040870437602288" /><circle fill="#48aed6" stroke="#48aed6" stroke-width="1" cx="660" cy="0" r="15.465698579525911" /><path d="M 704.82,-15.99 A 705.00 705.00 0 0 1 704.82,15.99 L 689.82,15.65 A 690.00 690.00 0 0 0 689.82,-15.65 Z" fill="#463232" stroke="#929191" stroke-width="1" /></g><g transform="rotate(91.5888)"><path fill="#8b9db6" d="M 299.92,-6.81 A 300.00 300.00 0 0 1 299.92,6.81 L 251.94,5.72 A 252.00 252.00 0 0 0 251.94,-5.72 Z" /><text text-anchor="end" font-family="Proza Libre" font-size="18" fill="#bfbfbf" transform="rotate(180, 330, 0)" x="330" y="5">CopperEdge Casting</text><line stroke="#bfbfbf" stroke-width="1" stroke-dasharray="5, 5" x1="513.4345703125" y1="0" x2="600" y2="0" /><path d="M 326.00,0.00 L 322.05,2.94 L 320.47,7.61 L 316.45,4.76 L 311.53,4.70 L 313.00,0.00 L 311.53,-4.70 L 316.45,-4.76 L 320.47,-7.61 L 322.05,-2.94 Z" fill="none" stroke="#48aed6" stroke-width="1" /><circle fill="none" stroke="#48aed6" stroke-width="1" cx="620" cy="0" r="14.892324215380988" /><circle fill="#48aed6" stroke="#48aed6" stroke-width="1" cx="660" cy="0" r="10.99891883494178" /><path d="M 704.82,-15.99 A 705.00 705.00 0 0 1 704.82,15.99 L 689.82,15.65 A 690.00 690.00 0 0 0 689.82,-15.65 Z" fill="#4a3232" stroke="#929191" stroke-width="1" /></g><g transform="rotate(94.7664)"><path fill="#8b9db6" d="M 299.92,-6.81 A 300.00 300.00 0 0 1 299.92,6.81 L 218.94,4.97 A 219.00 219.00 0 0 0 218.94,-4.97 Z" /><text text-anchor="end" font-family="Proza Libre" font-size="18" fill="#bfbfbf" transform="rotate(180, 330, 0)" x="330" y="5">MeridianAlloy Foundry</text><line stroke="#bfbfbf" stroke-width="1" stroke-dasharray="5, 5" x1="532.0849609375" y1="0" x2="600" y2="0" /><path d="M 326.00,0.00 L 322.05,2.94 L 320.47,7.61 L 316.45,4.76 L 311.53,4.70 L 313.00,0.00 L 311.53,-4.70 L 316.45,-4.76 L 320.47,-7.61 L 322.05,-2.94 Z" fill="none" stroke="#48aed6" stroke-width="1" /><circle fill="none" stroke="#48aed6" stroke-width="1" cx="620" cy="0" r="7.224101930175257" /><circle fill="#48aed6" stroke="#48aed6" stroke-width="1" cx="660" cy="0" r="7.073341277280185" /><path d="M 704.82,-15.99 A 705.00 705.00 0 0 1 704.82,15.99 L 689.82,15.65 A 690.00 690.00 0 0 0 689.82,-15.65 Z" fill="#373232" stroke="#929191" stroke-width="1" /></g><g transform="rotate(97.9439)"><path fill="#8b9db6" d="M 299.92,-6.81 A 300.00 300.00 0 0 1 299.92,6.81 L 215.94,4.90 A 216.00 216.00 0 0 0 215.94,-4.90 Z" /><text text-anchor="end" font-family="Proza Libre" font-size="18" fill="#bfbfbf" transform="rotate(180, 330, 0)" x="330" y="5">BrassWorks Innovations</text><line stroke="#bfbfbf" stroke-width="1" stroke-dasharray="5, 5" x1="545.7607421875" y1="0" x2="600" y2="0" /><path d="M 326.00,0.00 L 322.05,2.94 L 320.47,7.61 L 316.45,4.76 L 311.53,4.70 L 313.00,0.00 L 311.53,-4.70 L 316.45,-4.76 L 320.47,-7.61 L 322.05,-2.94 Z" fill="none" stroke="#48aed6" stroke-width="1" /><circle fill="none" stroke="#48aed6" stroke-width="1" cx="620" cy="0" r="6.8270742785732805" /><circle fill="#48aed6" stroke="#48aed6" stroke-width="1" cx="660" cy="0" r="16.0" /><path d="M 704.82,-15.99 A 705.00 705.00 0 0 1 704.82,15.99 L 689.82,15.65 A 690.00 690.00 0 0 0 689.82,-15.65 Z" fill="#3a3232" stroke="#929191" stroke-width="1" /></g><g transform="rotate(101.121)"><path fill="#8b9db6" d="M 299.92,-6.81 A 300.00 300.00 0 0 1 299.92,6.81 L 245.94,5.58 A 246.00 246.00 0 0 0 245.94,-5.58 Z" /><text text-anchor="end" font-family="Proza Libre" font-size="18" fill="#bfbfbf" transform="rotate(180, 330, 0)" x="330" y="5">AluFusion Foundry</text><line stroke="#bfbfbf" stroke-width="1" stroke-dasharray="5, 5" x1="497.4912109375" y1="0" x2="600" y2="0" /><circle fill="none" stroke="#48aed6" stroke-width="1" cx="620" cy="0" r="10.830598725822414" /><circle fill="#48aed6" stroke="#48aed6" stroke-width="1" cx="660" cy="0" r="11.90177396257106" /><path d="M 704.82,-15.99 A 705.00 705.00 0 0 1 704.82,15.99 L 689.82,15.65 A 690.00 690.00 0 0 0 689.82,-15.65 Z" fill="#3d3232" stroke="#929191" stroke-width="1" /></g><g transform="rotate(104.299)"><path fill="#8b9db6" d="M 299.92,-6.81 A 300.00 300.00 0 0 1 299.92,6.81 L 299.92,6.81 A 300.00 300.00 0 0 0 299.92,-6.81 Z" /><text text-anchor="end" font-family="Proza Libre" font-size="18" fill="#bfbfbf" transform="rotate(180, 330, 0)" x="330" y="5">Galvanex Casting</text><line stroke="#bfbfbf" stroke-width="1" stroke-dasharray="5, 5" x1="489.09765625" y1="0" x2="600" y2="0" /><path d="M 312.34,2.83 L 315.17,5.66 L 318.00,2.83 L 320.83,5.66 L 323.66,2.83 L 320.83,0.00 L 323.66,-2.83 L 320.83,-5.66 L 318.00,-2.83 L 315.17,-5.66 L 312.34,-2.83 L 315.17,0.00 Z" fill="#cd312e" stroke="#cd312e" stroke-width="1" /><circle fill="none" stroke="#48aed6" stroke-width="1" cx="620" cy="0" r="13.639674119569326" /><circle fill="#48aed6" stroke="#48aed6" stroke-width="1" cx="660" cy="0" r="12.628794735540124" /><path d="M 704.82,-15.99 A 705.00 705.00 0 0 1 704.82,15.99 L 689.82,15.65 A 690.00 690.00 0 0 0 689.82,-15.65 Z" fill="#343333" stroke="#929191" stroke-width="1" /></g><g transform="rotate(107.477)"><path fill="#8b9db6" d="M 299.92,-6.81 A 300.00 300.00 0 0 1 299.92,6.81 L 227.94,5.17 A 228.00 228.00 0 0 0 227.94,-5.17 Z" /><text text-anchor="end" font-family="Proza Libre" font-size="18" fill="#bfbfbf" transform="rotate(180, 330, 0)" x="330" y="5">CobaltFlow Foundry</text><line stroke="#bfbfbf" stroke-width="1" stroke-dasharray="5, 5" x1="511.333984375" y1="0" x2="600" y2="0" /><path d="M 326.00,0.00 L 322.05,2.94 L 320.47,7.61 L 316.45,4.76 L 311.53,4.70 L 313.00,0.00 L 311.53,-4.70 L 316.45,-4.76 L 320.47,-7.61 L 322.05,-2.94 Z" fill="#48aed6" stroke="#48aed6" stroke-width="1" /><circle fill="none" stroke="#48aed6" stroke-width="1" cx="620" cy="0" r="8.306250532801116" /><circle fill="#48aed6" stroke="#48aed6" stroke-width="1" cx="660" cy="0" r="11.939992883637748" /><path d="M 704.82,-15.99 A 705.00 705.00 0 0 1 704.82,15.99 L 689.82,15.65 A 690.00 690.00 0 0 0 689.82,-15.65 Z" fill="#383232" stroke="#929191" stroke-width="1" /></g><g transform="rotate(110.654)"><path fill="#8b9db6" d="M 299.92,-6.81 A 300.00 300.00 0 0 1 299.92,6.81 L 257.93,5.85 A 258.00 258.00 0 0 0 257.93,-5.85 Z" /><text text-anchor="end" font-family="Proza Libre" font-size="18" fill="#bfbfbf" transform="rotate(180, 330, 0)" x="330" y="5">Argo Casting Solutions</text><line stroke="#bfbfbf" stroke-width="1" stroke-dasharray="5, 5" x1="535.802734375" y1="0" x2="600" y2="0" /><path d="M 326.00,0.00 L 322.05,2.94 L 320.47,7.61 L 316.45,4.76 L 311.53,4.70 L 313.00,0.00 L 311.53,-4.70 L 316.45,-4.76 L 320.47,-7.61 L 322.05,-2.94 Z" fill="none" stroke="#48aed6" stroke-width="1" /><circle fill="none" stroke="#48aed6" stroke-width="1" cx="620" cy="0" r="5.455359305975087" /><circle fill="#48aed6" stroke="#48aed6" stroke-width="1" cx="660" cy="0" r="14.961430786608059" /><path d="M 704.82,-15.99 A 705.00 705.00 0 0 1 704.82,15.99 L 689.82,15.65 A 690.00 690.00 0 0 0 689.82,-15.65 Z" fill="#353232" stroke="#929191" stroke-width="1" /></g><g transform="rotate(113.832)"><path fill="#8b9db6" d="M 299.92,-6.81 A 300.00 300.00 0 0 1 299.92,6.81 L 290.93,6.60 A 291.00 291.00 0 0 0 290.93,-6.60 Z" /><text text-anchor="end" font-family="Proza Libre" font-size="18" fill="#bfbfbf" transform="rotate(180, 330, 0)" x="330" y="5">MeltCore Non-Ferrous</text><line stroke="#bfbfbf" stroke-width="1" stroke-dasharray="5, 5" x1="532.8671875" y1="0" x2="600" y2="0" /><circle fill="none" stroke="#48aed6" stroke-width="1" cx="620" cy="0" r="10.949062852460655" /><circle fill="#48aed6" stroke="#48aed6" stroke-width="1" cx="660" cy="0" r="4.761699998586538" /><path d="M 704.82,-15.99 A 705.00 705.00 0 0 1 704.82,15.99 L 689.82,15.65 A 690.00 690.00 0 0 0 689.82,-15.65 Z" fill="#3c3232" stroke="#929191" stroke-width="1" /></g><g transform="rotate(117.009)"><path fill="#8b9db6" d="M 299.92,-6.81 A 300.00 300.00 0 0 1 299.92,6.81 L 299.92,6.81 A 300.00 300.00 0 0 0 299.92,-6.81 Z" /><text text-anchor="end" font-family="Proza Libre" font-size="18" fill="#bfbfbf" transform="rotate(180, 330, 0)" x="330" y="5">NovaAlloy Foundry</text><line stroke="#bfbfbf" stroke-width="1" stroke-dasharray="5, 5" x1="500.611328125" y1="0" x2="600" y2="0" /><path d="M 326.00,0.00 L 322.05,2.94 L 320.47,7.61 L 316.45,4.76 L 311.53,4.70 L 313.00,0.00 L 311.53,-4.70 L 316.45,-4.76 L 320.47,-7.61 L 322.05,-2.94 Z" fill="none" stroke="#48aed6" stroke-width="1" /><circle fill="none" stroke="#48aed6" stroke-width="1" cx="620" cy="0" r="15.53845034120325" /><circle fill="#48aed6" stroke="#48aed6" stroke-width="1" cx="660" cy="0" r="12.060683797779893" /><path d="M 704.82,-15.99 A 705.00 705.00 0 0 1 704.82,15.99 L 689.82,15.65 A 690.00 690.00 0 0 0 689.82,-15.65 Z" fill="#343333" stroke="#929191" stroke-width="1" /></g><g transform="rotate(120.187)"><path fill="#8b9db6" d="M 299.92,-6.81 A 300.00 300.00 0 0 1 299.92,6.81 L 299.92,6.81 A 300.00 300.00 0 0 0 299.92,-6.81 Z" /><text text-anchor="end" font-family="Proza Libre" font-size="18" fill="#bfbfbf" transform="rotate(180, 330, 0)" x="330" y="5">ElectraCast Solutions</text><line stroke="#bfbfbf" stroke-width="1" stroke-dasharray="5, 5" x1="524.0341796875" y1="0" x2="600" y2="0" /><path d="M 326.00,0.00 L 322.05,2.94 L 320.47,7.61 L 316.45,4.76 L 311.53,4.70 L 313.00,0.00 L 311.53,-4.70 L 316.45,-4.76 L 320.47,-7.61 L 322.05,-2.94 Z" fill="none" stroke="#48aed6" stroke-width="1" /><circle fill="none" stroke="#48aed6" stroke-width="1" cx="620" cy="0" r="13.77453905821694" /><circle fill="#48aed6" stroke="#48aed6" stroke-width="1" cx="660" cy="0" r="7.559894587908661" /><path d="M 704.82,-15.99 A 705.00 705.00 0 0 1 704.82,15.99 L 689.82,15.65 A 690.00 690.00 0 0 0 689.82,-15.65 Z" fill="#343333" stroke="#929191" stroke-width="1" /></g><g transform="rotate(123.364)"><path fill="#8b9db6" d="M 299.92,-6.81 A 300.00 300.00 0 0 1 299.92,6.81 L 272.93,6.19 A 273.00 273.00 0 0 0 272.93,-6.19 Z" /><text text-anchor="end" font-family="Proza Libre" font-size="18" fill="#bfbfbf" transform="rotate(180, 330, 0)" x="330" y="5">ValiantMetals Foundry</text><line stroke="#bfbfbf" stroke-width="1" stroke-dasharray="5, 5" x1="534.34375" y1="0" x2="600" y2="0" /><circle fill="none" stroke="#48aed6" stroke-width="1" cx="620" cy="0" r="9.062186730500034" /><circle fill="#48aed6" stroke="#48aed6" stroke-width="1" cx="660" cy="0" r="14.760692254307466" /><path d="M 704.82,-15.99 A 705.00 705.00 0 0 1 704.82,15.99 L 689.82,15.65 A 690.00 690.00 0 0 0 689.82,-15.65 Z" fill="#353232" stroke="#929191" stroke-width="1" /></g><g transform="rotate(126.542)"><path fill="#8b9db6" d="M 299.92,-6.81 A 300.00 300.00 0 0 1 299.92,6.81 L 299.92,6.81 A 300.00 300.00 0 0 0 299.92,-6.81 Z" /><text text-anchor="end" font-family="Proza Libre" font-size="18" fill="#bfbfbf" transform="rotate(180, 330, 0)" x="330" y="5">Zenith Alloy Industries</text><line stroke="#bfbfbf" stroke-width="1" stroke-dasharray="5, 5" x1="530.96875" y1="0" x2="600" y2="0" /><path d="M 326.00,0.00 L 322.05,2.94 L 320.47,7.61 L 316.45,4.76 L 311.53,4.70 L 313.00,0.00 L 311.53,-4.70 L 316.45,-4.76 L 320.47,-7.61 L 322.05,-2.94 Z" fill="none" stroke="#48aed6" stroke-width="1" /><circle fill="none" stroke="#48aed6" stroke-width="1" cx="620" cy="0" r="14.962040615279864" /><circle fill="#48aed6" stroke="#48aed6" stroke-width="1" cx="660" cy="0" r="12.022848542040476" /><path d="M 704.82,-15.99 A 705.00 705.00 0 0 1 704.82,15.99 L 689.82,15.65 A 690.00 690.00 0 0 0 689.82,-15.65 Z" fill="#343333" stroke="#929191" stroke-width="1" /></g><g transform="rotate(129.72)"><path fill="#8b9db6" d="M 299.92,-6.81 A 300.00 300.00 0 0 1 299.92,6.81 L 299.92,6.81 A 300.00 300.00 0 0 0 299.92,-6.81 Z" /><text text-anchor="end" font-family="Proza Libre" font-size="18" fill="#bfbfbf" transform="rotate(180, 330, 0)" x="330" y="5">MoltenMidas Casting</text><line stroke="#bfbfbf" stroke-width="1" stroke-dasharray="5, 5" x1="523.9814453125" y1="0" x2="600" y2="0" /><circle fill="none" stroke="#48aed6" stroke-width="1" cx="620" cy="0" r="14.20391154428879" /><circle fill="#48aed6" stroke="#48aed6" stroke-width="1" cx="660" cy="0" r="8.674948656863497" /><path d="M 704.82,-15.99 A 705.00 705.00 0 0 1 704.82,15.99 L 689.82,15.65 A 690.00 690.00 0 0 0 689.82,-15.65 Z" fill="#343333" stroke="#929191" stroke-width="1" /></g><g transform="rotate(132.897)"><path fill="#8b9db6" d="M 299.92,-6.81 A 300.00 300.00 0 0 1 299.92,6.81 L 245.94,5.58 A 246.00 246.00 0 0 0 245.94,-5.58 Z" /><text text-anchor="end" font-family="Proza Libre" font-size="18" fill="#bfbfbf" transform="rotate(180, 330, 0)" x="330" y="5">PressTek Industries</text><line stroke="#bfbfbf" stroke-width="1" stroke-dasharray="5, 5" x1="502.73828125" y1="0" x2="600" y2="0" /><path d="M 312.34,2.83 L 315.17,5.66 L 318.00,2.83 L 320.83,5.66 L 323.66,2.83 L 320.83,0.00 L 323.66,-2.83 L 320.83,-5.66 L 318.00,-2.83 L 315.17,-5.66 L 312.34,-2.83 L 315.17,0.00 Z" fill="#cd312e" stroke="#cd312e" stroke-width="1" /><circle fill="none" stroke="#48aed6" stroke-width="1" cx="620" cy="0" r="3.6860274967385265" /><circle fill="#48aed6" stroke="#48aed6" stroke-width="1" cx="660" cy="0" r="14.607314840665572" /><path d="M 704.82,-15.99 A 705.00 705.00 0 0 1 704.82,15.99 L 689.82,15.65 A 690.00 690.00 0 0 0 689.82,-15.65 Z" fill="#3b3232" stroke="#929191" stroke-width="1" /></g><g transform="rotate(136.075)"><path fill="#8b9db6" d="M 299.92,-6.81 A 300.00 300.00 0 0 1 299.92,6.81 L 287.93,6.53 A 288.00 288.00 0 0 0 287.93,-6.53 Z" /><text text-anchor="end" font-family="Proza Libre" font-size="18" fill="#bfbfbf" transform="rotate(180, 330, 0)" x="330" y="5">MetalForm Solutions</text><line stroke="#bfbfbf" stroke-width="1" stroke-dasharray="5, 5" x1="519.525390625" y1="0" x2="600" y2="0" /><circle fill="none" stroke="#48aed6" stroke-width="1" cx="620" cy="0" r="4.83010248226915" /><circle fill="#48aed6" stroke="#48aed6" stroke-width="1" cx="660" cy="0" r="4.895228891211241" /><path d="M 704.82,-15.99 A 705.00 705.00 0 0 1 704.82,15.99 L 689.82,15.65 A 690.00 690.00 0 0 0 689.82,-15.65 Z" fill="#3a3232" stroke="#929191" stroke-width="1" /></g><g transform="rotate(139.252)"><path fill="#8b9db6" d="M 299.92,-6.81 A 300.00 300.00 0 0 1 299.92,6.81 L 257.93,5.85 A 258.00 258.00 0 0 0 257.93,-5.85 Z" /><text text-anchor="end" font-family="Proza Libre" font-size="18" fill="#bfbfbf" transform="rotate(180, 330, 0)" x="330" y="5">PressEdge Manufacturing</text><line stroke="#bfbfbf" stroke-width="1" stroke-dasharray="5, 5" x1="559.796875" y1="0" x2="600" y2="0" /><path d="M 326.00,0.00 L 322.05,2.94 L 320.47,7.61 L 316.45,4.76 L 311.53,4.70 L 313.00,0.00 L 311.53,-4.70 L 316.45,-4.76 L 320.47,-7.61 L 322.05,-2.94 Z" fill="none" stroke="#48aed6" stroke-width="1" /><circle fill="none" stroke="#48aed6" stroke-width="1" cx="620" cy="0" r="3.826317553615673" /><circle fill="#48aed6" stroke="#48aed6" stroke-width="1" cx="660" cy="0" r="14.604556525781955" /><path d="M 704.82,-15.99 A 705.00 705.00 0 0 1 704.82,15.99 L 689.82,15.65 A 690.00 690.00 0 0 0 689.82,-15.65 Z" fill="#3d3232" stroke="#929191" stroke-width="1" /></g><g transform="rotate(142.43)"><path fill="#8b9db6" d="M 299.92,-6.81 A 300.00 300.00 0 0 1 299.92,6.81 L 281.93,6.40 A 282.00 282.00 0 0 0 281.93,-6.40 Z" /><text text-anchor="end" font-family="Proza Libre" font-size="18" fill="#bfbfbf" transform="rotate(180, 330, 0)" x="330" y="5">StampaPress Innovations</text><line stroke="#bfbfbf" stroke-width="1" stroke-dasharray="5, 5" x1="557.2919921875" y1="0" x2="600" y2="0" /><path d="M 326.00,0.00 L 322.05,2.94 L 320.47,7.61 L 316.45,4.76 L 311.53,4.70 L 313.00,0.00 L 311.53,-4.70 L 316.45,-4.76 L 320.47,-7.61 L 322.05,-2.94 Z" fill="#48aed6" stroke="#48aed6" stroke-width="1" /><circle fill="none" stroke="#48aed6" stroke-width="1" cx="620" cy="0" r="13.48076906090423" /><circle fill="#48aed6" stroke="#48aed6" stroke-width="1" cx="660" cy="0" r="15.489143074563492" /><path d="M 704.82,-15.99 A 705.00 705.00 0 0 1 704.82,15.99 L 689.82,15.65 A 690.00 690.00 0 0 0 689.82,-15.65 Z" fill="#373232" stroke="#929191" stroke-width="1" /></g><g transform="rotate(145.607)"><path fill="#8b9db6" d="M 299.92,-6.81 A 300.00 300.00 0 0 1 299.92,6.81 L 281.93,6.40 A 282.00 282.00 0 0 0 281.93,-6.40 Z" /><text text-anchor="end" font-family="Proza Libre" font-size="18" fill="#bfbfbf" transform="rotate(180, 330, 0)" x="330" y="5">PressForm Tech</text><line stroke="#bfbfbf" stroke-width="1" stroke-dasharray="5, 5" x1="472.3720703125" y1="0" x2="600" y2="0" /><circle fill="none" stroke="#48aed6" stroke-width="1" cx="620" cy="0" r="12.63190082922951" /><circle fill="#48aed6" stroke="#48aed6" stroke-width="1" cx="660" cy="0" r="13.046757243062848" /><path d="M 704.82,-15.99 A 705.00 705.00 0 0 1 704.82,15.99 L 689.82,15.65 A 690.00 690.00 0 0 0 689.82,-15.65 Z" fill="#893130" stroke="#929191" stroke-width="1" /></g><g transform="rotate(148.785)"><path fill="#8b9db6" d="M 299.92,-6.81 A 300.00 300.00 0 0 1 299.92,6.81 L 266.93,6.06 A 267.00 267.00 0 0 0 266.93,-6.06 Z" /><text text-anchor="end" font-family="Proza Libre" font-size="18" fill="#bfbfbf" transform="rotate(180, 330, 0)" x="330" y="5">MetroPress Engineering</text><line stroke="#bfbfbf" stroke-width="1" stroke-dasharray="5, 5" x1="543.0625" y1="0" x2="600" y2="0" /><circle fill="none" stroke="#48aed6" stroke-width="1" cx="620" cy="0" r="10.303016271708849" /><circle fill="#48aed6" stroke="#48aed6" stroke-width="1" cx="660" cy="0" r="6.101160633340635" /><path d="M 704.82,-15.99 A 705.00 705.00 0 0 1 704.82,15.99 L 689.82,15.65 A 690.00 690.00 0 0 0 689.82,-15.65 Z" fill="#3a3232" stroke="#929191" stroke-width="1" /></g><g transform="rotate(151.963)"><path fill="#8b9db6" d="M 299.92,-6.81 A 300.00 300.00 0 0 1 299.92,6.81 L 263.93,5.99 A 264.00 264.00 0 0 0 263.93,-5.99 Z" /><text text-anchor="end" font-family="Proza Libre" font-size="18" fill="#bfbfbf" transform="rotate(180, 330, 0)" x="330" y="5">OmniStamp Solutions</text><line stroke="#bfbfbf" stroke-width="1" stroke-dasharray="5, 5" x1="529.2197265625" y1="0" x2="600" y2="0" /><circle fill="none" stroke="#48aed6" stroke-width="1" cx="620" cy="0" r="7.783291113296751" /><circle fill="#48aed6" stroke="#48aed6" stroke-width="1" cx="660" cy="0" r="13.890845504055417" /><path d="M 704.82,-15.99 A 705.00 705.00 0 0 1 704.82,15.99 L 689.82,15.65 A 690.00 690.00 0 0 0 689.82,-15.65 Z" fill="#373232" stroke="#929191" stroke-width="1" /></g><g transform="rotate(155.14)"><path fill="#8b9db6" d="M 299.92,-6.81 A 300.00 300.00 0 0 1 299.92,6.81 L 233.94,5.31 A 234.00 234.00 0 0 0 233.94,-5.31 Z" /><text text-anchor="end" font-family="Proza Libre" font-size="18" fill="#bfbfbf" transform="rotate(180, 330, 0)" x="330" y="5">FormX Pressed Parts</text><line stroke="#bfbfbf" stroke-width="1" stroke-dasharray="5, 5" x1="516.0009765625" y1="0" x2="600" y2="0" /><circle fill="none" stroke="#48aed6" stroke-width="1" cx="620" cy="0" r="14.914014961907291" /><circle fill="#48aed6" stroke="#48aed6" stroke-width="1" cx="660" cy="0" r="12.914821058172203" /><path d="M 704.82,-15.99 A 705.00 705.00 0 0 1 704.82,15.99 L 689.82,15.65 A 690.00 690.00 0 0 0 689.82,-15.65 Z" fill="#3a3232" stroke="#929191" stroke-width="1" /></g><g transform="rotate(158.318)"><path fill="#8b9db6" d="M 299.92,-6.81 A 300.00 300.00 0 0 1 299.92,6.81 L 137.96,3.13 A 138.00 138.00 0 0 0 137.96,-3.13 Z" /><text text-anchor="end" font-family="Proza Libre" font-size="18" fill="#bfbfbf" transform="rotate(180, 330, 0)" x="330" y="5">PressXtra Innovations</text><line stroke="#bfbfbf" stroke-width="1" stroke-dasharray="5, 5" x1="527.857421875" y1="0" x2="600" y2="0" /><path d="M 326.00,0.00 L 322.05,2.94 L 320.47,7.61 L 316.45,4.76 L 311.53,4.70 L 313.00,0.00 L 311.53,-4.70 L 316.45,-4.76 L 320.47,-7.61 L 322.05,-2.94 Z" fill="none" stroke="#48aed6" stroke-width="1" /><circle fill="none" stroke="#48aed6" stroke-width="1" cx="620" cy="0" r="11.682746634439061" /><circle fill="#48aed6" stroke="#48aed6" stroke-width="1" cx="660" cy="0" r="13.869524508999612" /><path d="M 704.82,-15.99 A 705.00 705.00 0 0 1 704.82,15.99 L 689.82,15.65 A 690.00 690.00 0 0 0 689.82,-15.65 Z" fill="#3c3232" stroke="#929191" stroke-width="1" /></g><g transform="rotate(161.495)"><path fill="#8b9db6" d="M 299.92,-6.81 A 300.00 300.00 0 0 1 299.92,6.81 L 218.94,4.97 A 219.00 219.00 0 0 0 218.94,-4.97 Z" /><text text-anchor="end" font-family="Proza Libre" font-size="18" fill="#bfbfbf" transform="rotate(180, 330, 0)" x="330" y="5">PressMate Manufacturing</text><line stroke="#bfbfbf" stroke-width="1" stroke-dasharray="5, 5" x1="564.0859375" y1="0" x2="600" y2="0" /><path d="M 312.34,2.83 L 315.17,5.66 L 318.00,2.83 L 320.83,5.66 L 323.66,2.83 L 320.83,0.00 L 323.66,-2.83 L 320.83,-5.66 L 318.00,-2.83 L 315.17,-5.66 L 312.34,-2.83 L 315.17,0.00 Z" fill="#cd312e" stroke="#cd312e" stroke-width="1" /><circle fill="none" stroke="#48aed6" stroke-width="1" cx="620" cy="0" r="15.259868100190232" /><circle fill="#48aed6" stroke="#48aed6" stroke-width="1" cx="660" cy="0" r="14.423131759681524" /><path d="M 704.82,-15.99 A 705.00 705.00 0 0 1 704.82,15.99 L 689.82,15.65 A 690.00 690.00 0 0 0 689.82,-15.65 Z" fill="#773230" stroke="#929191" stroke-width="1" /></g><g transform="rotate(164.673)"><path fill="#8b9db6" d="M 299.92,-6.81 A 300.00 300.00 0 0 1 299.92,6.81 L 269.93,6.13 A 270.00 270.00 0 0 0 269.93,-6.13 Z" /><text text-anchor="end" font-family="Proza Libre" font-size="18" fill="#bfbfbf" transform="rotate(180, 330, 0)" x="330" y="5">TurnForge Solutions</text><line stroke="#bfbfbf" stroke-width="1" stroke-dasharray="5, 5" x1="511.28125" y1="0" x2="600" y2="0" /><circle fill="none" stroke="#48aed6" stroke-width="1" cx="620" cy="0" r="2.5179591632924105" /><circle fill="#48aed6" stroke="#48aed6" stroke-width="1" cx="660" cy="0" r="10.138043863031035" /><path d="M 704.82,-15.99 A 705.00 705.00 0 0 1 704.82,15.99 L 689.82,15.65 A 690.00 690.00 0 0 0 689.82,-15.65 Z" fill="#3a3232" stroke="#929191" stroke-width="1" /></g><g transform="rotate(167.85)"><path fill="#8b9db6" d="M 299.92,-6.81 A 300.00 300.00 0 0 1 299.92,6.81 L 254.93,5.79 A 255.00 255.00 0 0 0 254.93,-5.79 Z" /><text text-anchor="end" font-family="Proza Libre" font-size="18" fill="#bfbfbf" transform="rotate(180, 330, 0)" x="330" y="5">HeatStamp Machining</text><line stroke="#bfbfbf" stroke-width="1" stroke-dasharray="5, 5" x1="533.658203125" y1="0" x2="600" y2="0" /><path d="M 326.00,0.00 L 322.05,2.94 L 320.47,7.61 L 316.45,4.76 L 311.53,4.70 L 313.00,0.00 L 311.53,-4.70 L 316.45,-4.76 L 320.47,-7.61 L 322.05,-2.94 Z" fill="#48aed6" stroke="#48aed6" stroke-width="1" /><circle fill="none" stroke="#48aed6" stroke-width="1" cx="620" cy="0" r="14.417978837283814" /><circle fill="#48aed6" stroke="#48aed6" stroke-width="1" cx="660" cy="0" r="5.577962805966727" /><path d="M 704.82,-15.99 A 705.00 705.00 0 0 1 704.82,15.99 L 689.82,15.65 A 690.00 690.00 0 0 0 689.82,-15.65 Z" fill="#3a3232" stroke="#929191" stroke-width="1" /></g><g transform="rotate(171.028)"><path fill="#8b9db6" d="M 299.92,-6.81 A 300.00 300.00 0 0 1 299.92,6.81 L 299.92,6.81 A 300.00 300.00 0 0 0 299.92,-6.81 Z" /><text text-anchor="end" font-family="Proza Libre" font-size="18" fill="#bfbfbf" transform="rotate(180, 330, 0)" x="330" y="5">Rotex Precision</text><line stroke="#bfbfbf" stroke-width="1" stroke-dasharray="5, 5" x1="469.5595703125" y1="0" x2="600" y2="0" /><circle fill="none" stroke="#48aed6" stroke-width="1" cx="620" cy="0" r="7.140686634802476" /><circle fill="#48aed6" stroke="#48aed6" stroke-width="1" cx="660" cy="0" r="14.771651563830945" /><path d="M 704.82,-15.99 A 705.00 705.00 0 0 1 704.82,15.99 L 689.82,15.65 A 690.00 690.00 0 0 0 689.82,-15.65 Z" fill="#343333" stroke="#929191" stroke-width="1" /></g><g transform="rotate(174.206)"><path fill="#8b9db6" d="M 299.92,-6.81 A 300.00 300.00 0 0 1 299.92,6.81 L 278.93,6.33 A 279.00 279.00 0 0 0 278.93,-6.33 Z" /><text text-anchor="end" font-family="Proza Libre" font-size="18" fill="#bfbfbf" transform="rotate(180, 330, 0)" x="330" y="5">ApexTurn Industries</text><line stroke="#bfbfbf" stroke-width="1" stroke-dasharray="5, 5" x1="510.859375" y1="0" x2="600" y2="0" /><path d="M 326.00,0.00 L 322.05,2.94 L 320.47,7.61 L 316.45,4.76 L 311.53,4.70 L 313.00,0.00 L 311.53,-4.70 L 316.45,-4.76 L 320.47,-7.61 L 322.05,-2.94 Z" fill="none" stroke="#48aed6" stroke-width="1" /><circle fill="none" stroke="#48aed6" stroke-width="1" cx="620" cy="0" r="15.781199620551423" /><circle fill="#48aed6" stroke="#48aed6" stroke-width="1" cx="660" cy="0" r="6.801091120030936" /><path d="M 704.82,-15.99 A 705.00 705.00 0 0 1 704.82,15.99 L 689.82,15.65 A 690.00 690.00 0 0 0 689.82,-15.65 Z" fill="#9a312f" stroke="#929191" stroke-width="1" /></g><g transform="rotate(177.383)"><path fill="#8b9db6" d="M 299.92,-6.81 A 300.00 300.00 0 0 1 299.92,6.81 L 236.94,5.38 A 237.00 237.00 0 0 0 236.94,-5.38 Z" /><text text-anchor="end" font-family="Proza Libre" font-size="18" fill="#bfbfbf" transform="rotate(180, 330, 0)" x="330" y="5">HotForm Machining</text><line stroke="#bfbfbf" stroke-width="1" stroke-dasharray="5, 5" x1="511.826171875" y1="0" x2="600" y2="0" /><path d="M 326.00,0.00 L 322.05,2.94 L 320.47,7.61 L 316.45,4.76 L 311.53,4.70 L 313.00,0.00 L 311.53,-4.70 L 316.45,-4.76 L 320.47,-7.61 L 322.05,-2.94 Z" fill="none" stroke="#48aed6" stroke-width="1" /><circle fill="none" stroke="#48aed6" stroke-width="1" cx="620" cy="0" r="12.910992949537297" /><circle fill="#48aed6" stroke="#48aed6" stroke-width="1" cx="660" cy="0" r="8.911095282825094" /><path d="M 704.82,-15.99 A 705.00 705.00 0 0 1 704.82,15.99 L 689.82,15.65 A 690.00 690.00 0 0 0 689.82,-15.65 Z" fill="#363232" stroke="#929191" stroke-width="1" /></g><g transform="rotate(180.561)"><path fill="#8b9db6" d="M 299.92,-6.81 A 300.00 300.00 0 0 1 299.92,6.81 L 275.93,6.26 A 276.00 276.00 0 0 0 275.93,-6.26 Z" /><text text-anchor="end" font-family="Proza Libre" font-size="18" fill="#bfbfbf" transform="rotate(180, 330, 0)" x="330" y="5">ForgeCraft Turned Parts</text><line stroke="#bfbfbf" stroke-width="1" stroke-dasharray="5, 5" x1="547.4482421875" y1="0" x2="600" y2="0" /><circle fill="none" stroke="#48aed6" stroke-width="1" cx="620" cy="0" r="15.972272474907534" /><circle fill="#48aed6" stroke="#48aed6" stroke-width="1" cx="660" cy="0" r="9.296198868802977" /><path d="M 704.82,-15.99 A 705.00 705.00 0 0 1 704.82,15.99 L 689.82,15.65 A 690.00 690.00 0 0 0 689.82,-15.65 Z" fill="#3d3232" stroke="#929191" stroke-width="1" /></g><g transform="rotate(183.738)"><path fill="#8b9db6" d="M 299.92,-6.81 A 300.00 300.00 0 0 1 299.92,6.81 L 251.94,5.72 A 252.00 252.00 0 0 0 251.94,-5.72 Z" /><text text-anchor="end" font-family="Proza Libre" font-size="18" fill="#bfbfbf" transform="rotate(180, 330, 0)" x="330" y="5">HelixStamp Mechanics</text><line stroke="#bfbfbf" stroke-width="1" stroke-dasharray="5, 5" x1="534.2646484375" y1="0" x2="600" y2="0" /><circle fill="none" stroke="#48aed6" stroke-width="1" cx="620" cy="0" r="15.885305302004546" /><circle fill="#48aed6" stroke="#48aed6" stroke-width="1" cx="660" cy="0" r="3.264663403069099" /><path d="M 704.82,-15.99 A 705.00 705.00 0 0 1 704.82,15.99 L 689.82,15.65 A 690.00 690.00 0 0 0 689.82,-15.65 Z" fill="#cd312e" stroke="#929191" stroke-width="1" /></g><g transform="rotate(186.916)"><path fill="#8b9db6" d="M 299.92,-6.81 A 300.00 300.00 0 0 1 299.92,6.81 L 290.93,6.60 A 291.00 291.00 0 0 0 290.93,-6.60 Z" /><text text-anchor="end" font-family="Proza Libre" font-size="18" fill="#bfbfbf" transform="rotate(180, 330, 0)" x="330" y="5">TurnEdge Innovations</text><line stroke="#bfbfbf" stroke-width="1" stroke-dasharray="5, 5" x1="525.4228515625" y1="0" x2="600" y2="0" /><circle fill="none" stroke="#48aed6" stroke-width="1" cx="620" cy="0" r="8.632619185182469" /><circle fill="#48aed6" stroke="#48aed6" stroke-width="1" cx="660" cy="0" r="14.298650040461025" /><path d="M 704.82,-15.99 A 705.00 705.00 0 0 1 704.82,15.99 L 689.82,15.65 A 690.00 690.00 0 0 0 689.82,-15.65 Z" fill="#3b3232" stroke="#929191" stroke-width="1" /></g><g transform="rotate(190.093)"><path fill="#8b9db6" d="M 299.92,-6.81 A 300.00 300.00 0 0 1 299.92,6.81 L 299.92,6.81 A 300.00 300.00 0 0 0 299.92,-6.81 Z" /><text text-anchor="end" font-family="Proza Libre" font-size="18" fill="#bfbfbf" transform="rotate(180, 330, 0)" x="330" y="5">SolaStamp Hot Parts</text><line stroke="#bfbfbf" stroke-width="1" stroke-dasharray="5, 5" x1="520.9228515625" y1="0" x2="600" y2="0" /><path d="M 312.34,2.83 L 315.17,5.66 L 318.00,2.83 L 320.83,5.66 L 323.66,2.83 L 320.83,0.00 L 323.66,-2.83 L 320.83,-5.66 L 318.00,-2.83 L 315.17,-5.66 L 312.34,-2.83 L 315.17,0.00 Z" fill="#cd312e" stroke="#cd312e" stroke-width="1" /><circle fill="none" stroke="#48aed6" stroke-width="1" cx="620" cy="0" r="11.272142083043924" /><circle fill="#48aed6" stroke="#48aed6" stroke-width="1" cx="660" cy="0" r="2.253749712136603" /><path d="M 704.82,-15.99 A 705.00 705.00 0 0 1 704.82,15.99 L 689.82,15.65 A 690.00 690.00 0 0 0 689.82,-15.65 Z" fill="#343333" stroke="#929191" stroke-width="1" /></g><g transform="rotate(193.271)"><path fill="#8b9db6" d="M 299.92,-6.81 A 300.00 300.00 0 0 1 299.92,6.81 L 248.94,5.65 A 249.00 249.00 0 0 0 248.94,-5.65 Z" /><text text-anchor="end" font-family="Proza Libre" font-size="18" fill="#bfbfbf" transform="rotate(180, 330, 0)" x="330" y="5">MachiFlow Turned &amp; Stamped</text><line stroke="#bfbfbf" stroke-width="1" stroke-dasharray="5, 5" x1="594.8125" y1="0" x2="600" y2="0" /><circle fill="none" stroke="#48aed6" stroke-width="1" cx="620" cy="0" r="12.013574213793525" /><circle fill="#48aed6" stroke="#48aed6" stroke-width="1" cx="660" cy="0" r="10.48788683975828" /><path d="M 704.82,-15.99 A 705.00 705.00 0 0 1 704.82,15.99 L 689.82,15.65 A 690.00 690.00 0 0 0 689.82,-15.65 Z" fill="#573231" stroke="#929191" stroke-width="1" /></g><g transform="rotate(196.449)"><path fill="#8b9db6" d="M 299.92,-6.81 A 300.00 300.00 0 0 1 299.92,6.81 L 299.92,6.81 A 300.00 300.00 0 0 0 299.92,-6.81 Z" /><text text-anchor="end" font-family="Proza Libre" font-size="18" fill="#bfbfbf" transform="rotate(180, 330, 0)" x="330" y="5">VertexTurn Solutions</text><line stroke="#bfbfbf" stroke-width="1" stroke-dasharray="5, 5" x1="519.6044921875" y1="0" x2="600" y2="0" /><path d="M 326.00,0.00 L 322.05,2.94 L 320.47,7.61 L 316.45,4.76 L 311.53,4.70 L 313.00,0.00 L 311.53,-4.70 L 316.45,-4.76 L 320.47,-7.61 L 322.05,-2.94 Z" fill="#48aed6" stroke="#48aed6" stroke-width="1" /><circle fill="none" stroke="#48aed6" stroke-width="1" cx="620" cy="0" r="8.58753605314934" /><circle fill="#48aed6" stroke="#48aed6" stroke-width="1" cx="660" cy="0" r="2.0" /><path d="M 704.82,-15.99 A 705.00 705.00 0 0 1 704.82,15.99 L 689.82,15.65 A 690.00 690.00 0 0 0 689.82,-15.65 Z" fill="#343333" stroke="#929191" stroke-width="1" /></g><g transform="rotate(199.626)"><path fill="#8b9db6" d="M 299.92,-6.81 A 300.00 300.00 0 0 1 299.92,6.81 L 296.92,6.74 A 297.00 297.00 0 0 0 296.92,-6.74 Z" /><text text-anchor="end" font-family="Proza Libre" font-size="18" fill="#bfbfbf" transform="rotate(180, 330, 0)" x="330" y="5">PressaForge</text><line stroke="#bfbfbf" stroke-width="1" stroke-dasharray="5, 5" x1="443.32421875" y1="0" x2="600" y2="0" /><path d="M 326.00,0.00 L 322.05,2.94 L 320.47,7.61 L 316.45,4.76 L 311.53,4.70 L 313.00,0.00 L 311.53,-4.70 L 316.45,-4.76 L 320.47,-7.61 L 322.05,-2.94 Z" fill="#48aed6" stroke="#48aed6" stroke-width="1" /><circle fill="none" stroke="#48aed6" stroke-width="1" cx="620" cy="0" r="12.252516628639171" /><circle fill="#48aed6" stroke="#48aed6" stroke-width="1" cx="660" cy="0" r="9.694141514420338" /><path d="M 704.82,-15.99 A 705.00 705.00 0 0 1 704.82,15.99 L 689.82,15.65 A 690.00 690.00 0 0 0 689.82,-15.65 Z" fill="#373232" stroke="#929191" stroke-width="1" /></g><g transform="rotate(202.804)"><path fill="#8b9db6" d="M 299.92,-6.81 A 300.00 300.00 0 0 1 299.92,6.81 L 269.93,6.13 A 270.00 270.00 0 0 0 269.93,-6.13 Z" /><text text-anchor="end" font-family="Proza Libre" font-size="18" fill="#bfbfbf" transform="rotate(180, 330, 0)" x="330" y="5">QuadroStamp</text><line stroke="#bfbfbf" stroke-width="1" stroke-dasharray="5, 5" x1="462.37890625" y1="0" x2="600" y2="0" /><circle fill="none" stroke="#48aed6" stroke-width="1" cx="620" cy="0" r="13.226960262446172" /><circle fill="#48aed6" stroke="#48aed6" stroke-width="1" cx="660" cy="0" r="11.586412385112864" /><path d="M 704.82,-15.99 A 705.00 705.00 0 0 1 704.82,15.99 L 689.82,15.65 A 690.00 690.00 0 0 0 689.82,-15.65 Z" fill="#4b3232" stroke="#929191" stroke-width="1" /></g><g transform="rotate(205.981)"><path fill="#8b9db6" d="M 299.92,-6.81 A 300.00 300.00 0 0 1 299.92,6.81 L 287.93,6.53 A 288.00 288.00 0 0 0 287.93,-6.53 Z" /><text text-anchor="end" font-family="Proza Libre" font-size="18" fill="#bfbfbf" transform="rotate(180, 330, 0)" x="330" y="5">OmniTurn Engineering</text><line stroke="#bfbfbf" stroke-width="1" stroke-dasharray="5, 5" x1="531.970703125" y1="0" x2="600" y2="0" /><circle fill="none" stroke="#48aed6" stroke-width="1" cx="620" cy="0" r="15.911386320908418" /><circle fill="#48aed6" stroke="#48aed6" stroke-width="1" cx="660" cy="0" r="13.023649669991395" /><path d="M 704.82,-15.99 A 705.00 705.00 0 0 1 704.82,15.99 L 689.82,15.65 A 690.00 690.00 0 0 0 689.82,-15.65 Z" fill="#363232" stroke="#929191" stroke-width="1" /></g><g transform="rotate(209.159)"><path fill="#8b9db6" d="M 299.92,-6.81 A 300.00 300.00 0 0 1 299.92,6.81 L 299.92,6.81 A 300.00 300.00 0 0 0 299.92,-6.81 Z" /><text text-anchor="end" font-family="Proza Libre" font-size="18" fill="#bfbfbf" transform="rotate(180, 330, 0)" x="330" y="5">HeatForm Tech</text><line stroke="#bfbfbf" stroke-width="1" stroke-dasharray="5, 5" x1="470.21875" y1="0" x2="600" y2="0" /><path d="M 326.00,0.00 L 322.05,2.94 L 320.47,7.61 L 316.45,4.76 L 311.53,4.70 L 313.00,0.00 L 311.53,-4.70 L 316.45,-4.76 L 320.47,-7.61 L 322.05,-2.94 Z" fill="none" stroke="#48aed6" stroke-width="1" /><circle fill="none" stroke="#48aed6" stroke-width="1" cx="620" cy="0" r="13.564610496036558" /><circle fill="#48aed6" stroke="#48aed6" stroke-width="1" cx="660" cy="0" r="15.685825940487671" /><path d="M 704.82,-15.99 A 705.00 705.00 0 0 1 704.82,15.99 L 689.82,15.65 A 690.00 690.00 0 0 0 689.82,-15.65 Z" fill="#343333" stroke="#929191" stroke-width="1" /></g><g transform="rotate(212.336)"><path fill="#8b9db6" d="M 299.92,-6.81 A 300.00 300.00 0 0 1 299.92,6.81 L 266.93,6.06 A 267.00 267.00 0 0 0 266.93,-6.06 Z" /><text text-anchor="end" font-family="Proza Libre" font-size="18" fill="#bfbfbf" transform="rotate(180, 330, 0)" x="330" y="5">NeoStamp Machining</text><line stroke="#bfbfbf" stroke-width="1" stroke-dasharray="5, 5" x1="525.9326171875" y1="0" x2="600" y2="0" /><path d="M 326.00,0.00 L 322.05,2.94 L 320.47,7.61 L 316.45,4.76 L 311.53,4.70 L 313.00,0.00 L 311.53,-4.70 L 316.45,-4.76 L 320.47,-7.61 L 322.05,-2.94 Z" fill="#48aed6" stroke="#48aed6" stroke-width="1" /><circle fill="none" stroke="#48aed6" stroke-width="1" cx="620" cy="0" r="12.36374833995772" /><circle fill="#48aed6" stroke="#48aed6" stroke-width="1" cx="660" cy="0" r="8.726767857249323" /><path d="M 704.82,-15.99 A 705.00 705.00 0 0 1 704.82,15.99 L 689.82,15.65 A 690.00 690.00 0 0 0 689.82,-15.65 Z" fill="#363232" stroke="#929191" stroke-width="1" /></g><g transform="rotate(215.514)"><path fill="#8b9db6" d="M 299.92,-6.81 A 300.00 300.00 0 0 1 299.92,6.81 L 299.92,6.81 A 300.00 300.00 0 0 0 299.92,-6.81 Z" /><text text-anchor="end" font-family="Proza Libre" font-size="18" fill="#bfbfbf" transform="rotate(180, 330, 0)" x="330" y="5">AxialForge</text><line stroke="#bfbfbf" stroke-width="1" stroke-dasharray="5, 5" x1="430.7998046875" y1="0" x2="600" y2="0" /><circle fill="none" stroke="#48aed6" stroke-width="1" cx="620" cy="0" r="6.104551659945954" /><circle fill="#48aed6" stroke="#48aed6" stroke-width="1" cx="660" cy="0" r="12.94025447553313" /><path d="M 704.82,-15.99 A 705.00 705.00 0 0 1 704.82,15.99 L 689.82,15.65 A 690.00 690.00 0 0 0 689.82,-15.65 Z" fill="#343333" stroke="#929191" stroke-width="1" /></g><g transform="rotate(218.692)"><path fill="#8b9db6" d="M 299.92,-6.81 A 300.00 300.00 0 0 1 299.92,6.81 L 299.92,6.81 A 300.00 300.00 0 0 0 299.92,-6.81 Z" /><text text-anchor="end" font-family="Proza Libre" font-size="18" fill="#bfbfbf" transform="rotate(180, 330, 0)" x="330" y="5">TurnoNova Solutions</text><line stroke="#bfbfbf" stroke-width="1" stroke-dasharray="5, 5" x1="518.91015625" y1="0" x2="600" y2="0" /><circle fill="none" stroke="#48aed6" stroke-width="1" cx="620" cy="0" r="5.9203146080645315" /><circle fill="#48aed6" stroke="#48aed6" stroke-width="1" cx="660" cy="0" r="6.612331649580519" /><path d="M 704.82,-15.99 A 705.00 705.00 0 0 1 704.82,15.99 L 689.82,15.65 A 690.00 690.00 0 0 0 689.82,-15.65 Z" fill="#343333" stroke="#929191" stroke-width="1" /></g><g transform="rotate(221.869)"><path fill="#8b9db6" d="M 299.92,-6.81 A 300.00 300.00 0 0 1 299.92,6.81 L 290.93,6.60 A 291.00 291.00 0 0 0 290.93,-6.60 Z" /><text text-anchor="end" font-family="Proza Libre" font-size="18" fill="#bfbfbf" transform="rotate(180, 330, 0)" x="330" y="5">StampAxion</text><line stroke="#bfbfbf" stroke-width="1" stroke-dasharray="5, 5" x1="446.3037109375" y1="0" x2="600" y2="0" /><circle fill="none" stroke="#48aed6" stroke-width="1" cx="620" cy="0" r="2.0" /><circle fill="#48aed6" stroke="#48aed6" stroke-width="1" cx="660" cy="0" r="12.42497139052372" /><path d="M 704.82,-15.99 A 705.00 705.00 0 0 1 704.82,15.99 L 689.82,15.65 A 690.00 690.00 0 0 0 689.82,-15.65 Z" fill="#413232" stroke="#929191" stroke-width="1" /></g><g transform="rotate(225.047)"><path fill="#8b9db6" d="M 299.92,-6.81 A 300.00 300.00 0 0 1 299.92,6.81 L 299.92,6.81 A 300.00 300.00 0 0 0 299.92,-6.81 Z" /><text text-anchor="end" font-family="Proza Libre" font-size="18" fill="#bfbfbf" transform="rotate(180, 330, 0)" x="330" y="5">MetroTurn Industries</text><line stroke="#bfbfbf" stroke-width="1" stroke-dasharray="5, 5" x1="521.4326171875" y1="0" x2="600" y2="0" /><circle fill="none" stroke="#48aed6" stroke-width="1" cx="620" cy="0" r="8.711553744065656" /><circle fill="#48aed6" stroke="#48aed6" stroke-width="1" cx="660" cy="0" r="14.574115673532024" /><path d="M 704.82,-15.99 A 705.00 705.00 0 0 1 704.82,15.99 L 689.82,15.65 A 690.00 690.00 0 0 0 689.82,-15.65 Z" fill="#343333" stroke="#929191" stroke-width="1" /></g><g transform="rotate(228.224)"><path fill="#8b9db6" d="M 299.92,-6.81 A 300.00 300.00 0 0 1 299.92,6.81 L 218.94,4.97 A 219.00 219.00 0 0 0 218.94,-4.97 Z" /><text text-anchor="end" font-family="Proza Libre" font-size="18" fill="#bfbfbf" transform="rotate(180, 330, 0)" x="330" y="5">RapidForge Machining</text><line stroke="#bfbfbf" stroke-width="1" stroke-dasharray="5, 5" x1="530.3095703125" y1="0" x2="600" y2="0" /><path d="M 326.00,0.00 L 322.05,2.94 L 320.47,7.61 L 316.45,4.76 L 311.53,4.70 L 313.00,0.00 L 311.53,-4.70 L 316.45,-4.76 L 320.47,-7.61 L 322.05,-2.94 Z" fill="none" stroke="#48aed6" stroke-width="1" /><circle fill="none" stroke="#48aed6" stroke-width="1" cx="620" cy="0" r="12.16180874222186" /><circle fill="#48aed6" stroke="#48aed6" stroke-width="1" cx="660" cy="0" r="14.41463695296655" /><path d="M 704.82,-15.99 A 705.00 705.00 0 0 1 704.82,15.99 L 689.82,15.65 A 690.00 690.00 0 0 0 689.82,-15.65 Z" fill="#3a3232" stroke="#929191" stroke-width="1" /></g><g transform="rotate(231.402)"><path fill="#8b9db6" d="M 299.92,-6.81 A 300.00 300.00 0 0 1 299.92,6.81 L 245.94,5.58 A 246.00 246.00 0 0 0 245.94,-5.58 Z" /><text text-anchor="end" font-family="Proza Libre" font-size="18" fill="#bfbfbf" transform="rotate(180, 330, 0)" x="330" y="5">ThermalStamp</text><line stroke="#bfbfbf" stroke-width="1" stroke-dasharray="5, 5" x1="468.4169921875" y1="0" x2="600" y2="0" /><circle fill="none" stroke="#48aed6" stroke-width="1" cx="620" cy="0" r="12.552206290133464" /><circle fill="#48aed6" stroke="#48aed6" stroke-width="1" cx="660" cy="0" r="6.907306151984576" /><path d="M 704.82,-15.99 A 705.00 705.00 0 0 1 704.82,15.99 L 689.82,15.65 A 690.00 690.00 0 0 0 689.82,-15.65 Z" fill="#363232" stroke="#929191" stroke-width="1" /></g><g transform="rotate(234.579)"><path fill="#8b9db6" d="M 299.92,-6.81 A 300.00 300.00 0 0 1 299.92,6.81 L 299.92,6.81 A 300.00 300.00 0 0 0 299.92,-6.81 Z" /><text text-anchor="end" font-family="Proza Libre" font-size="18" fill="#bfbfbf" transform="rotate(180, 330, 0)" x="330" y="5">ProTurn Hot Parts</text><line stroke="#bfbfbf" stroke-width="1" stroke-dasharray="5, 5" x1="494.845703125" y1="0" x2="600" y2="0" /><circle fill="none" stroke="#48aed6" stroke-width="1" cx="620" cy="0" r="11.903195905200835" /><circle fill="#48aed6" stroke="#48aed6" stroke-width="1" cx="660" cy="0" r="11.259234162153646" /><path d="M 704.82,-15.99 A 705.00 705.00 0 0 1 704.82,15.99 L 689.82,15.65 A 690.00 690.00 0 0 0 689.82,-15.65 Z" fill="#343333" stroke="#929191" stroke-width="1" /></g><g transform="rotate(237.757)"><path fill="#8b9db6" d="M 299.92,-6.81 A 300.00 300.00 0 0 1 299.92,6.81 L 218.94,4.97 A 219.00 219.00 0 0 0 218.94,-4.97 Z" /><text text-anchor="end" font-family="Proza Libre" font-size="18" fill="#bfbfbf" transform="rotate(180, 330, 0)" x="330" y="5">DynamicStamp Innovations</text><line stroke="#bfbfbf" stroke-width="1" stroke-dasharray="5, 5" x1="577.2255859375" y1="0" x2="600" y2="0" /><path d="M 326.00,0.00 L 322.05,2.94 L 320.47,7.61 L 316.45,4.76 L 311.53,4.70 L 313.00,0.00 L 311.53,-4.70 L 316.45,-4.76 L 320.47,-7.61 L 322.05,-2.94 Z" fill="#48aed6" stroke="#48aed6" stroke-width="1" /><circle fill="none" stroke="#48aed6" stroke-width="1" cx="620" cy="0" r="14.109527147611228" /><circle fill="#48aed6" stroke="#48aed6" stroke-width="1" cx="660" cy="0" r="13.446421737559035" /><path d="M 704.82,-15.99 A 705.00 705.00 0 0 1 704.82,15.99 L 689.82,15.65 A 690.00 690.00 0 0 0 689.82,-15.65 Z" fill="#3d3232" stroke="#929191" stroke-width="1" /></g><g transform="rotate(240.935)"><path fill="#8b9db6" d="M 299.92,-6.81 A 300.00 300.00 0 0 1 299.92,6.81 L 296.92,6.74 A 297.00 297.00 0 0 0 296.92,-6.74 Z" /><text text-anchor="end" font-family="Proza Libre" font-size="18" fill="#bfbfbf" transform="rotate(180, 330, 0)" x="330" y="5">ForgeLine Turned Solutions</text><line stroke="#bfbfbf" stroke-width="1" stroke-dasharray="5, 5" x1="570.326171875" y1="0" x2="600" y2="0" /><circle fill="none" stroke="#48aed6" stroke-width="1" cx="620" cy="0" r="10.116727281729853" /><circle fill="#48aed6" stroke="#48aed6" stroke-width="1" cx="660" cy="0" r="10.347981464523931" /><path d="M 704.82,-15.99 A 705.00 705.00 0 0 1 704.82,15.99 L 689.82,15.65 A 690.00 690.00 0 0 0 689.82,-15.65 Z" fill="#373232" stroke="#929191" stroke-width="1" /></g><g transform="rotate(244.112)"><path fill="#8b9db6" d="M 299.92,-6.81 A 300.00 300.00 0 0 1 299.92,6.81 L 47.99,1.09 A 48.00 48.00 0 0 0 47.99,-1.09 Z" /><text text-anchor="end" font-family="Proza Libre" font-size="18" fill="#bfbfbf" transform="rotate(180, 330, 0)" x="330" y="5">RevoTurn Tech</text><line stroke="#bfbfbf" stroke-width="1" stroke-dasharray="5, 5" x1="462.7568359375" y1="0" x2="600" y2="0" /><path d="M 326.00,0.00 L 322.05,2.94 L 320.47,7.61 L 316.45,4.76 L 311.53,4.70 L 313.00,0.00 L 311.53,-4.70 L 316.45,-4.76 L 320.47,-7.61 L 322.05,-2.94 Z" fill="#48aed6" stroke="#48aed6" stroke-width="1" /><circle fill="none" stroke="#48aed6" stroke-width="1" cx="620" cy="0" r="14.922774003787472" /><circle fill="#48aed6" stroke="#48aed6" stroke-width="1" cx="660" cy="0" r="12.052004546021632" /><path d="M 704.82,-15.99 A 705.00 705.00 0 0 1 704.82,15.99 L 689.82,15.65 A 690.00 690.00 0 0 0 689.82,-15.65 Z" fill="#3c3232" stroke="#929191" stroke-width="1" /></g><g transform="rotate(247.29)"><path fill="#8b9db6" d="M 299.92,-6.81 A 300.00 300.00 0 0 1 299.92,6.81 L 299.92,6.81 A 300.00 300.00 0 0 0 299.92,-6.81 Z" /><text text-anchor="end" font-family="Proza Libre" font-size="18" fill="#bfbfbf" transform="rotate(180, 330, 0)" x="330" y="5">SummitStamp</text><line stroke="#bfbfbf" stroke-width="1" stroke-dasharray="5, 5" x1="465.2880859375" y1="0" x2="600" y2="0" /><path d="M 326.00,0.00 L 322.05,2.94 L 320.47,7.61 L 316.45,4.76 L 311.53,4.70 L 313.00,0.00 L 311.53,-4.70 L 316.45,-4.76 L 320.47,-7.61 L 322.05,-2.94 Z" fill="#48aed6" stroke="#48aed6" stroke-width="1" /><circle fill="none" stroke="#48aed6" stroke-width="1" cx="620" cy="0" r="12.997918654096582" /><circle fill="#48aed6" stroke="#48aed6" stroke-width="1" cx="660" cy="0" r="6.282924384004824" /><path d="M 704.82,-15.99 A 705.00 705.00 0 0 1 704.82,15.99 L 689.82,15.65 A 690.00 690.00 0 0 0 689.82,-15.65 Z" fill="#343333" stroke="#929191" stroke-width="1" /></g><g transform="rotate(250.467)"><path fill="#8b9db6" d="M 299.92,-6.81 A 300.00 300.00 0 0 1 299.92,6.81 L 296.92,6.74 A 297.00 297.00 0 0 0 296.92,-6.74 Z" /><text text-anchor="end" font-family="Proza Libre" font-size="18" fill="#bfbfbf" transform="rotate(180, 330, 0)" x="330" y="5">CaliberForge</text><line stroke="#bfbfbf" stroke-width="1" stroke-dasharray="5, 5" x1="448.17578125" y1="0" x2="600" y2="0" /><circle fill="none" stroke="#48aed6" stroke-width="1" cx="620" cy="0" r="4.756515347778788" /><circle fill="#48aed6" stroke="#48aed6" stroke-width="1" cx="660" cy="0" r="13.487811760998891" /><path d="M 704.82,-15.99 A 705.00 705.00 0 0 1 704.82,15.99 L 689.82,15.65 A 690.00 690.00 0 0 0 689.82,-15.65 Z" fill="#353232" stroke="#929191" stroke-width="1" /></g><g transform="rotate(253.645)"><path fill="#8b9db6" d="M 299.92,-6.81 A 300.00 300.00 0 0 1 299.92,6.81 L 251.94,5.72 A 252.00 252.00 0 0 0 251.94,-5.72 Z" /><text text-anchor="end" font-family="Proza Libre" font-size="18" fill="#bfbfbf" transform="rotate(180, 330, 0)" x="330" y="5">TurnXpress</text><line stroke="#bfbfbf" stroke-width="1" stroke-dasharray="5, 5" x1="436.1962890625" y1="0" x2="600" y2="0" /><circle fill="none" stroke="#48aed6" stroke-width="1" cx="620" cy="0" r="13.070323525344003" /><circle fill="#48aed6" stroke="#48aed6" stroke-width="1" cx="660" cy="0" r="15.046508299379072" /><path d="M 704.82,-15.99 A 705.00 705.00 0 0 1 704.82,15.99 L 689.82,15.65 A 690.00 690.00 0 0 0 689.82,-15.65 Z" fill="#383232" stroke="#929191" stroke-width="1" /></g><g transform="rotate(256.822)"><path fill="#8b9db6" d="M 299.92,-6.81 A 300.00 300.00 0 0 1 299.92,6.81 L 278.93,6.33 A 279.00 279.00 0 0 0 278.93,-6.33 Z" /><text text-anchor="end" font-family="Proza Libre" font-size="18" fill="#bfbfbf" transform="rotate(180, 330, 0)" x="330" y="5">InnoStamp</text><line stroke="#bfbfbf" stroke-width="1" stroke-dasharray="5, 5" x1="435.255859375" y1="0" x2="600" y2="0" /><circle fill="none" stroke="#48aed6" stroke-width="1" cx="620" cy="0" r="12.546421518726152" /><circle fill="#48aed6" stroke="#48aed6" stroke-width="1" cx="660" cy="0" r="6.365780518125349" /><path d="M 704.82,-15.99 A 705.00 705.00 0 0 1 704.82,15.99 L 689.82,15.65 A 690.00 690.00 0 0 0 689.82,-15.65 Z" fill="#3a3232" stroke="#929191" stroke-width="1" /></g><g transform="rotate(260)"><path fill="#8b9db6" d="M 299.92,-6.81 A 300.00 300.00 0 0 1 299.92,6.81 L 287.93,6.53 A 288.00 288.00 0 0 0 287.93,-6.53 Z" /><text text-anchor="end" font-family="Proza Libre" font-size="18" fill="#bfbfbf" transform="rotate(180, 330, 0)" x="330" y="5">ProHeatMach</text><line stroke="#bfbfbf" stroke-width="1" stroke-dasharray="5, 5" x1="459.3642578125" y1="0" x2="600" y2="0" /><circle fill="none" stroke="#48aed6" stroke-width="1" cx="620" cy="0" r="13.892121234469268" /><circle fill="#48aed6" stroke="#48aed6" stroke-width="1" cx="660" cy="0" r="15.590496146163227" /><path d="M 704.82,-15.99 A 705.00 705.00 0 0 1 704.82,15.99 L 689.82,15.65 A 690.00 690.00 0 0 0 689.82,-15.65 Z" fill="#343232" stroke="#929191" stroke-width="1" /></g></g><g transform="translate(750 750)"><path d="M 123.29,-699.21 L 125.03,-709.06 A 720.00 720.00 0 0 1 384.13,-608.97 L 378.79,-600.51 " fill="none" stroke="#bfbfbf" stroke-width="2" /><text font-family="Proza Libre" font-size="24px" font-weight="600" fill="#bfbfbf" text-anchor="middle"><textPath startOffset="50%" href="#cat_EMS/PCB">EMS/PCB</textPath></text><path d="M 411.50,-578.59 L 417.29,-586.74 A 720.00 720.00 0 0 1 99.51,713.09 L 98.12,703.19 " fill="none" stroke="#bfbfbf" stroke-width="2" /><text font-family="Proza Libre" font-size="24px" font-weight="600" fill="#bfbfbf" text-anchor="middle"><textPath startOffset="50%" href="#cat_Electromechanics">Electromechanics</textPath></text><path d="M 59.00,707.54 L 59.83,717.51 A 720.00 720.00 0 0 1 -460.10,553.81 L -453.71,546.12 " fill="none" stroke="#bfbfbf" stroke-width="2" /><text font-family="Proza Libre" font-size="24px" font-weight="600" fill="#bfbfbf" text-anchor="middle"><textPath startOffset="50%" href="#cat_Metals and Non-Iron Casting">Metals and Non-Iron Casting</textPath></text><path d="M -483.29,520.13 L -490.09,527.45 A 720.00 720.00 0 0 1 -682.77,228.52 L -673.29,225.34 " fill="none" stroke="#bfbfbf" stroke-width="2" /><text font-family="Proza Libre" font-size="24px" font-weight="600" fill="#bfbfbf" text-anchor="middle"><textPath startOffset="50%" href="#cat_Pressed Parts">Pressed Parts</textPath></text><path d="M -684.75,187.67 L -694.39,190.32 A 720.00 720.00 0 0 1 -125.03,-709.06 L -123.29,-699.21 " fill="none" stroke="#bfbfbf" stroke-width="2" /><text font-family="Proza Libre" font-size="24px" font-weight="600" fill="#bfbfbf" text-anchor="middle"><textPath startOffset="50%" href="#cat_Turned and Hot Stamped">Turned and Hot Stamped</textPath></text></g><text font-family="Proza Libre" font-size="36" font-weight="700" text-anchor="start" dominant-baseline="hanging" stroke="none" fill="#bfbfbf" x="10" y="10"><tspan x="10" y="10">Supplier</tspan><tspan x="10" dy="44">Quality</tspan><tspan x="10" dy="44">Performance</tspan></text><g transform="translate(1280 40)"><text font-family="Proza Libre" font-size="32" fill="#bfbfbf" x="0" y="0">Qty.</text><circle fill="none" stroke="#48aed6" stroke-width="1" cx="2.045181744326452" cy="40" r="2.045181744326452" /><text font-family="Proza Libre" font-size="24" fill="#bfbfbf" x="14.090363488652905" y="45">5K</text><circle fill="none" stroke="#48aed6" stroke-width="1" cx="80" cy="40" r="16.00405626034441" /><text font-family="Proza Libre" font-size="24" fill="#bfbfbf" x="106.00405626034441" y="45">300K</text><text font-family="Proza Libre" font-size="32" fill="#bfbfbf" x="0" y="90">Spend</text><circle fill="#48aed6" stroke="#48aed6" stroke-width="1" cx="3.7523758427508307" cy="130" r="3.7523758427508307" /><text font-family="Proza Libre" font-size="24" fill="#bfbfbf" x="17.50475168550166" y="135">$100K</text><circle fill="#48aed6" stroke="#48aed6" stroke-width="1" cx="120" cy="130" r="16.044602502721276" /><text font-family="Proza Libre" font-size="24" fill="#bfbfbf" x="146.04460250272126" y="135">$1M</text></g><g transform="translate(10 1380)"><text font-family="Proza Libre" font-size="32" fill="#bfbfbf" x="0" y="0">Segmentation</text><path d="M 15.61,37.53 L 12.76,41.55 L 12.70,46.47 L 8.00,45.00 L 3.30,46.47 L 3.24,41.55 L 0.39,37.53 L 5.06,35.95 L 8.00,32.00 L 10.94,35.95 Z" fill="#48aed6" stroke="#48aed6" stroke-width="1" /><text font-family="Proza Libre" font-size="24" fill="#bfbfbf" x="25" y="45">strategic</text><path d="M 15.61,67.53 L 12.76,71.55 L 12.70,76.47 L 8.00,75.00 L 3.30,76.47 L 3.24,71.55 L 0.39,67.53 L 5.06,65.95 L 8.00,62.00 L 10.94,65.95 Z" fill="none" stroke="#48aed6" stroke-width="1" /><text font-family="Proza Libre" font-size="24" fill="#bfbfbf" x="25" y="75">preffered</text><path d="M 2.34,102.83 L 5.17,105.66 L 8.00,102.83 L 10.83,105.66 L 13.66,102.83 L 10.83,100.00 L 13.66,97.17 L 10.83,94.34 L 8.00,97.17 L 5.17,94.34 L 2.34,97.17 L 5.17,100.00 Z" fill="#cd312e" stroke="#cd312e" stroke-width="1" /><text font-family="Proza Libre" font-size="24" fill="#bfbfbf" x="25" y="105">phase-out</text></g><g transform="translate(1150 1440)"><text font-family="Proza Libre" font-size="32" fill="#bfbfbf" x="0" y="0">PPM</text><text font-family="Proza Libre" font-size="24" fill="#bfbfbf" x="0" y="35">0</text><rect fill="url(#grad)" stroke="#929191" stroke-width="1" x="30" y="20" width="200" height="20" /><text font-family="Proza Libre" font-size="24" fill="#bfbfbf" x="245" y="35">10,000</text></g><defs><linearGradient id="grad"><stop offset="0%" style="stop-color:#343333;stop-opacity:1" /><stop offset="100%" style="stop-color:#cd312e;stop-opacity:1" /></linearGradient></defs></svg>