<svg xmlns="http://www.w3.org/2000/svg" viewBox="0 0 540 360" width="540px" height="360px"><g transform="translate(270,180)"><circle cx="0" cy="0" r="6" fill="#14b8a6" /><line x1="-120" y1="0" x2="120" y2="0" stroke="currentColor" stroke-width="3" opacity="0.45" /><line x1="0" y1="-120" x2="0" y2="120" stroke="currentColor" stroke-width="3" opacity="0.28" /><g transform="rotate(-45)"><rect x="-12" y="-118" width="24" height="110" rx="12" fill="#38bdf8" stroke="currentColor" stroke-width="4" /></g><g transform="scale(1.15,1.15)"><g transform="rotate(0)"><circle cx="0" cy="-140" r="8" fill="#f83898" stroke="currentColor" stroke-width="3" /></g><g transform="rotate(45)"><circle cx="0" cy="-140" r="8" fill="#f83898" stroke="currentColor" stroke-width="3" /></g><g transform="rotate(90)"><circle cx="0" cy="-140" r="8" fill="#f83898" stroke="currentColor" stroke-width="3" /></g><g transform="rotate(135)"><circle cx="0" cy="-140" r="8" fill="#f83898" stroke="currentColor" stroke-width="3" /></g><g transform="rotate(180)"><circle cx="0" cy="-140" r="8" fill="#f83898" stroke="currentColor" stroke-width="3" /></g><g transform="rotate(225)"><circle cx="0" cy="-140" r="8" fill="#f83898" stroke="currentColor" stroke-width="3" /></g><g transform="rotate(270)"><circle cx="0" cy="-140" r="8" fill="#f83898" stroke="currentColor" stroke-width="3" /></g><g transform="rotate(315)"><circle cx="0" cy="-140" r="8" fill="#f83898" stroke="currentColor" stroke-width="3" /></g></g></g><g transform="translate(270,180) rotate(-45) scale(1.2,1.2)"><rect x="-42" y="-24" width="84" height="48" rx="10" fill="#95cf20" /><text x="0" y="0" fill="currentColor" font-size="18" text-anchor="middle" alignment-baseline="middle">trs</text></g></svg>
