<svg xmlns="http://www.w3.org/2000/svg" viewBox="0 0 600 600" width="300px" height="300px"><defs><linearGradient gradientTransform="rotate(90)" id="art-gradient"><stop offset="0%" stop-color="#92a1c2"/><stop offset="100%" stop-color="#e2cbc5"/></linearGradient></defs><g><circle fill="url(#art-gradient)" stroke="gray" stroke-width="5" stroke-dasharray="20,15" stroke-dashoffset="20" r="250" cx="300.0" cy="300.0"><animate dur="2s" attributeType="XML" attributeName="stroke-dashoffset" repeatCount="indefinite" values="0;100"/><animate dur="2s" attributeType="XML" attributeName="r" repeatCount="indefinite" values="250;200;250"/></circle></g><g><path fill="#e2cbc5" d="M 100.00,300.00 A 200.00 200.00 0 0 1 500.00,300.00 L 300.00,300.00 A 0.00 0.00 0 0 0 300.00,300.00 Z"/><path fill="#ceaca8" d="M 100.00,300.00 A 166.67 166.67 0 0 1 433.33,300.00 L 266.67,300.00 A 0.00 0.00 0 0 0 266.67,300.00 Z"/><path fill="#ba8d8b" d="M 100.00,300.00 A 133.33 133.33 0 0 1 366.67,300.00 L 233.33,300.00 A 0.00 0.00 0 0 0 233.33,300.00 Z"/><path fill="#a66e6e" d="M 100.00,300.00 A 100.00 100.00 0 0 1 300.00,300.00 L 200.00,300.00 A 0.00 0.00 0 0 0 200.00,300.00 Z"/><path fill="#914e50" d="M 100.00,300.00 A 66.67 66.67 0 0 1 233.33,300.00 L 166.67,300.00 A 0.00 0.00 0 0 0 166.67,300.00 Z"/><path fill="#7d2f33" d="M 100.00,300.00 A 33.33 33.33 0 0 1 166.67,300.00 L 133.33,300.00 A 0.00 0.00 0 0 0 133.33,300.00 Z"/><path fill="#92a1c2" d="M 500.00,300.00 A 200.00 200.00 0 0 1 100.00,300.00 L 300.00,300.00 A 0.00 0.00 0 0 0 300.00,300.00 Z"/><path fill="#7b8cab" d="M 500.00,300.00 A 166.67 166.67 0 0 1 166.67,300.00 L 333.33,300.00 A 0.00 0.00 0 0 0 333.33,300.00 Z"/><path fill="#647694" d="M 500.00,300.00 A 133.33 133.33 0 0 1 233.33,300.00 L 366.67,300.00 A 0.00 0.00 0 0 0 366.67,300.00 Z"/><path fill="#4d617d" d="M 500.00,300.00 A 100.00 100.00 0 0 1 300.00,300.00 L 400.00,300.00 A 0.00 0.00 0 0 0 400.00,300.00 Z"/><path fill="#364c65" d="M 500.00,300.00 A 66.67 66.67 0 0 1 366.67,300.00 L 433.33,300.00 A 0.00 0.00 0 0 0 433.33,300.00 Z"/><path fill="#1f364e" d="M 500.00,300.00 A 33.33 33.33 0 0 1 433.33,300.00 L 466.67,300.00 A 0.00 0.00 0 0 0 466.67,300.00 Z"/></g></svg>
