<svg xmlns="http://www.w3.org/2000/svg" viewBox="0 0 300 300" width="300px" height="300px">
  <path fill="#14b8a6" d="M 5 5 h 24.5 v 24.5 h -24.5 Z M 34.5 5 h 24.5 v 24.5 h -24.5 Z M 64 5 h 24.5 v 24.5 h -24.5 Z M 93.5 5 h 24.5 v 24.5 h -24.5 Z M 123 5 h 24.5 v 24.5 h -24.5 Z M 152.5 5 h 24.5 v 24.5 h -24.5 Z M 182 5 h 24.5 v 24.5 h -24.5 Z M 211.5 5 h 24.5 v 24.5 h -24.5 Z M 241 5 h 24.5 v 24.5 h -24.5 Z M 270.5 5 h 24.5 v 24.5 h -24.5 Z M 5 34.5 h 24.5 v 24.5 h -24.5 Z M 34.5 34.5 h 24.5 v 24.5 h -24.5 Z M 64 34.5 h 24.5 v 24.5 h -24.5 Z M 93.5 34.5 h 24.5 v 24.5 h -24.5 Z M 123 34.5 h 24.5 v 24.5 h -24.5 Z M 152.5 34.5 h 24.5 v 24.5 h -24.5 Z M 182 34.5 h 24.5 v 24.5 h -24.5 Z M 211.5 34.5 h 24.5 v 24.5 h -24.5 Z M 241 34.5 h 24.5 v 24.5 h -24.5 Z M 270.5 34.5 h 24.5 v 24.5 h -24.5 Z M 5 64 h 24.5 v 24.5 h -24.5 Z M 34.5 64 h 24.5 v 24.5 h -24.5 Z M 64 64 h 24.5 v 24.5 h -24.5 Z M 93.5 64 h 24.5 v 24.5 h -24.5 Z M 123 64 h 24.5 v 24.5 h -24.5 Z M 152.5 64 h 24.5 v 24.5 h -24.5 Z M 182 64 h 24.5 v 24.5 h -24.5 Z M 211.5 64 h 24.5 v 24.5 h -24.5 Z M 241 64 h 24.5 v 24.5 h -24.5 Z M 270.5 64 h 24.5 v 24.5 h -24.5 Z M 5 93.5 h 24.5 v 24.5 h -24.5 Z M 34.5 93.5 h 24.5 v 24.5 h -24.5 Z M 64 93.5 h 24.5 v 24.5 h -24.5 Z M 93.5 93.5 h 24.5 v 24.5 h -24.5 Z M 123 93.5 h 24.5 v 24.5 h -24.5 Z M 152.5 93.5 h 24.5 v 24.5 h -24.5 Z M 182 93.5 h 24.5 v 24.5 h -24.5 Z M 211.5 93.5 h 24.5 v 24.5 h -24.5 Z M 241 93.5 h 24.5 v 24.5 h -24.5 Z M 270.5 93.5 h 24.5 v 24.5 h -24.5 Z M 5 123 h 24.5 v 24.5 h -24.5 Z M 34.5 123 h 24.5 v 24.5 h -24.5 Z M 64 123 h 24.5 v 24.5 h -24.5 Z"/>
  <path fill="#f59e0b" d="M 93.5 123 h 24.5 v 24.5 h -24.5 Z M 123 123 h 24.5 v 24.5 h -24.5 Z M 152.5 123 h 24.5 v 24.5 h -24.5 Z M 182 123 h 24.5 v 24.5 h -24.5 Z M 211.5 123 h 24.5 v 24.5 h -24.5 Z M 241 123 h 24.5 v 24.5 h -24.5 Z M 270.5 123 h 24.5 v 24.5 h -24.5 Z M 5 152.5 h 24.5 v 24.5 h -24.5 Z M 34.5 152.5 h 24.5 v 24.5 h -24.5 Z M 64 152.5 h 24.5 v 24.5 h -24.5 Z M 93.5 152.5 h 24.5 v 24.5 h -24.5 Z M 123 152.5 h 24.5 v 24.5 h -24.5 Z M 152.5 152.5 h 24.5 v 24.5 h -24.5 Z M 182 152.5 h 24.5 v 24.5 h -24.5 Z M 211.5 152.5 h 24.5 v 24.5 h -24.5 Z M 241 152.5 h 24.5 v 24.5 h -24.5 Z M 270.5 152.5 h 24.5 v 24.5 h -24.5 Z M 5 182 h 24.5 v 24.5 h -24.5 Z M 34.5 182 h 24.5 v 24.5 h -24.5 Z M 64 182 h 24.5 v 24.5 h -24.5 Z M 93.5 182 h 24.5 v 24.5 h -24.5 Z M 123 182 h 24.5 v 24.5 h -24.5 Z"/>
  <path fill="#6366f1" d="M 152.5 182 h 24.5 v 24.5 h -24.5 Z M 182 182 h 24.5 v 24.5 h -24.5 Z M 211.5 182 h 24.5 v 24.5 h -24.5 Z M 241 182 h 24.5 v 24.5 h -24.5 Z M 270.5 182 h 24.5 v 24.5 h -24.5 Z M 5 211.5 h 24.5 v 24.5 h -24.5 Z M 34.5 211.5 h 24.5 v 24.5 h -24.5 Z M 64 211.5 h 24.5 v 24.5 h -24.5 Z M 93.5 211.5 h 24.5 v 24.5 h -24.5 Z M 123 211.5 h 24.5 v 24.5 h -24.5 Z M 152.5 211.5 h 24.5 v 24.5 h -24.5 Z M 182 211.5 h 24.5 v 24.5 h -24.5 Z M 211.5 211.5 h 24.5 v 24.5 h -24.5 Z M 241 211.5 h 24.5 v 24.5 h -24.5 Z M 270.5 211.5 h 24.5 v 24.5 h -24.5 Z M 5 241 h 24.5 v 24.5 h -24.5 Z M 34.5 241 h 24.5 v 24.5 h -24.5 Z M 64 241 h 24.5 v 24.5 h -24.5 Z M 93.5 241 h 24.5 v 24.5 h -24.5 Z M 123 241 h 24.5 v 24.5 h -24.5 Z M 152.5 241 h 24.5 v 24.5 h -24.5 Z M 182 241 h 24.5 v 24.5 h -24.5 Z M 211.5 241 h 24.5 v 24.5 h -24.5 Z M 241 241 h 24.5 v 24.5 h -24.5 Z M 270.5 241 h 24.5 v 24.5 h -24.5 Z M 5 270.5 h 24.5 v 24.5 h -24.5 Z M 34.5 270.5 h 24.5 v 24.5 h -24.5 Z M 64 270.5 h 24.5 v 24.5 h -24.5 Z M 93.5 270.5 h 24.5 v 24.5 h -24.5 Z M 123 270.5 h 24.5 v 24.5 h -24.5 Z M 152.5 270.5 h 24.5 v 24.5 h -24.5 Z M 182 270.5 h 24.5 v 24.5 h -24.5 Z M 211.5 270.5 h 24.5 v 24.5 h -24.5 Z M 241 270.5 h 24.5 v 24.5 h -24.5 Z M 270.5 270.5 h 24.5 v 24.5 h -24.5 Z"/>
</svg>
