<?xml version="1.0" encoding="UTF-8" standalone="no"?>
<!DOCTYPE svg PUBLIC "-//W3C//DTD SVG 1.1//EN" "http://www.w3.org/Graphics/SVG/1.1/DTD/svg11.dtd">
<svg width="100%" height="100%" viewBox="0 0 64 64" version="1.1" xmlns="http://www.w3.org/2000/svg" xmlns:xlink="http://www.w3.org/1999/xlink" xml:space="preserve" xmlns:serif="http://www.serif.com/" style="fill-rule:evenodd;clip-rule:evenodd;stroke-linejoin:round;stroke-miterlimit:2;">
    <g transform="matrix(0.0275446,0,0,0.0275446,-0.112549,4.33971)">
        <path d="M1548.44,1547.65C1548.27,1547.53 1548.11,1547.4 1547.95,1547.28C1196.14,1340.26 942.787,1082.56 826.967,924.751C728.467,790.544 625.682,760.876 597.144,755.003C594.29,754.697 591.701,754.256 589.404,753.674C551.257,746.024 508.902,745.963 456.652,752.324C351.904,765.076 111.743,835.515 71.666,844.624C31.589,853.732 4.086,854.604 4.086,854.604C4.086,854.604 89.792,795.925 477.443,686.857C549.945,666.457 596.911,594.823 608.771,577.744C620.631,560.666 675.187,453.926 784.299,446.335C890.217,438.967 950.985,455.739 1050.79,519.649C1052.09,519.409 1054.04,518.823 1056.6,517.923C1153.01,459.915 1537.51,232.493 1855.84,100.073C2015.6,33.614 2159.17,-8.429 2242.7,4.642C2266.89,8.426 2288.84,17.326 2304,29.579C2315.51,38.88 2323.27,50.169 2326.23,62.636C2329.92,78.193 2326.47,96.1 2311.22,115.023C2299.22,129.915 2279.28,145.922 2248.98,162.073C2238.72,201.585 2215.02,226.764 2186.16,239.159C2184.7,248.001 2180.36,269.787 2170.55,289.015C2160.8,308.118 2145.65,324.178 2124.66,327.666C2120.34,349.533 2104.39,403.125 2050.67,415.168C2049.72,425.843 2047.19,441.368 2040.48,454.868C2033.23,469.451 2021.66,481.819 2003.49,485.864C2003.83,489.882 2003.93,494.343 2003.56,498.98C2002.58,511.068 1998.4,524.123 1988.11,534.449C1980.32,542.269 1968.72,548.856 1951.29,551.384C1951.65,556.36 1951.7,562.063 1951.03,568.024C1949.57,581.175 1944.68,595.368 1933.32,606.523C1922.74,616.914 1906.16,625.13 1879.87,625.84C1877.78,641.039 1871.12,663.493 1850.52,676.57C1840.2,683.126 1826.2,687.628 1807.09,687.071C1806.56,693.213 1805.56,700.586 1803.72,708.357C1799.06,727.973 1788.92,749.629 1769.13,762.341C1761.6,767.177 1752.65,770.825 1741.95,772.503C1741.16,778.402 1739.73,785.549 1737.17,792.557C1730.26,811.477 1716.06,828.94 1688.47,826.958C1685.63,835.757 1681.06,847.284 1674.31,857.295C1666.6,868.723 1656.13,878.046 1643.07,881.578C1632.74,884.371 1620.4,883.861 1606.05,876.732C1599.82,888.377 1589.91,904.096 1577.31,914.752C1568.36,922.321 1558.12,927.448 1547.1,928.479C1543.37,928.828 1539.51,928.736 1535.56,928.086C1532.37,932.376 1528.1,937.411 1522.85,941.953C1513.91,949.705 1502.34,955.848 1488.94,956.209C1488.94,956.209 1628.42,1169.46 1648.33,1337.76C1668.24,1506.06 1737,1712.37 1751.48,1761.23C1765.96,1810.09 1807.99,1929.74 1810.83,1950.14C1813.19,1967.03 1801.89,2003.75 1776.39,1980.36C1765.33,1994.84 1752.2,2003.07 1738.38,2005.42C1716.99,2009.07 1690.84,1999.01 1664.05,1968.46C1650.53,1953.04 1633.27,1906.71 1617.08,1848.87C1586.51,1739.58 1556.33,1588.12 1548.44,1547.65ZM1516.92,439.552C1657.87,440.966 1949.05,457.677 1989.61,458.282C2006.63,458.536 2014.03,445.674 2017.88,433.6C2019.68,427.98 2020.74,422.35 2021.37,417.487C1943.9,415.644 1695.12,400.685 1516.92,439.552ZM1328.91,684.095C1330.98,690.091 1330.4,694.779 1328.31,698.444C1351.34,712.769 1374.46,732.113 1396.61,753.487C1451.45,806.402 1500.63,871.49 1528.45,893.568C1534.17,898.11 1539.41,900.098 1544.4,899.631C1553.03,898.823 1560.1,892.121 1566.16,884.968C1573.01,876.884 1578.35,867.608 1581.84,860.74C1535.54,826.84 1446.1,755.419 1373.96,709.999C1357.71,699.765 1342.45,690.816 1328.91,684.095ZM918.363,997.38C963.309,1049.19 1015.43,1100.98 1070.15,1150.74L1070.15,787.624C1024.84,747.743 957.114,686.111 918.363,649.302L918.363,997.38ZM1260.44,737.29C1271.21,748.106 1282.92,762.507 1294.82,779.116C1339.86,841.974 1390.42,936.813 1409.66,962.685C1411.61,965.303 1413.42,967.09 1415.57,967.629C1419.09,968.514 1422.5,966.368 1425.92,964.08C1435.49,957.692 1443.97,946.895 1449.02,939.648C1445.66,936.666 1442.25,933.205 1438.8,929.206C1410.88,896.859 1364.77,833.134 1317.54,783.512C1300.58,765.695 1283.64,749.603 1267.42,737.904C1264.85,737.767 1262.47,737.536 1260.44,737.29ZM1106.45,1183.14C1320.32,1370.65 1557.59,1521.63 1557.59,1521.63C1557.59,1521.63 1537.67,1305.44 1520.48,1239.62C1503.73,1175.5 1481.5,1050.05 1400.79,992.774C1398.58,991.606 1396.38,990.147 1394.22,988.351C1388.34,991.171 1381.95,994.219 1375.34,996.278C1366.53,999.022 1357.38,1000.14 1348.29,998.307C1333.92,995.414 1318.58,985.284 1306.1,957.883C1291.74,926.354 1273.72,880.448 1251.52,842.197C1240.57,823.327 1228.74,806.297 1215.65,794.454C1212.66,795 1210.54,795.036 1210.54,795.036C1225.36,822.483 1176.29,810.339 1176.29,810.339C1181.88,835.599 1150.04,849.577 1114.26,824.908C1112.58,823.746 1109.92,821.678 1106.45,818.841L1106.45,1183.14ZM2094.64,330.502C2033.91,335.127 1897.96,343.348 1767.38,359.653C1677.02,370.936 1589.23,385.93 1531.83,406.602C1531.72,406.757 1531.61,406.911 1531.5,407.066C1713.78,372.492 1955.3,387.272 2025.99,388.606C2072.99,389.492 2089.22,351.991 2094.64,330.502ZM882.055,653.532C838.055,694.661 745.806,730.432 674.229,746.503C728.354,772.733 792.429,824.046 843.017,899.819C854.874,917.579 867.951,935.491 882.055,953.47L882.055,653.532ZM2154.9,247.607C2094.95,257.44 1776.63,304.784 1594.03,359.206C1644.36,347.758 1703.5,338.43 1763.79,330.902C1925.2,310.747 2094.85,303.023 2119.72,299.115C2131.73,297.228 2139.18,286.73 2144.74,275.843C2149.64,266.256 2152.86,255.89 2154.9,247.607ZM1420.05,581.473C1412.6,603.855 1388.83,602.666 1388.83,602.666C1390.64,606.36 1391.77,609.72 1392.33,612.774C1435.83,619.829 1494.2,646.608 1552.03,674.902C1615.18,705.798 1677.7,738.371 1717.81,743.791C1733.28,745.882 1744.88,743.481 1753.47,737.964C1766.58,729.542 1772.44,714.662 1775.52,701.668C1777.16,694.774 1777.96,688.281 1778.35,683.133C1714.97,669.534 1572.72,621.266 1474.95,594.914C1453.97,589.26 1435.22,584.503 1420.05,581.473ZM1898.35,199.369C1982.97,174.091 2099.28,157.295 2159.01,151.985C2195.32,148.756 2219.87,147.722 2230.44,142.346C2260.19,127.222 2279.7,112.603 2290.93,98.671C2299.78,87.689 2303.01,77.676 2300.87,68.648C2299.17,61.449 2294.27,55.218 2287.62,49.847C2275.55,40.094 2257.93,33.401 2238.68,30.389C2158.08,17.777 2019.99,60.015 1865.85,124.133C1657.29,210.891 1420.21,338.621 1255.1,432.291C1293.71,416.188 1333.47,400.44 1370.21,387.627C1539.93,322.233 1766.89,238.642 1898.35,199.369ZM816.91,589.289C801.318,562.91 767.358,554.085 741.12,569.593C714.882,585.102 706.239,619.109 721.831,645.488C737.423,671.867 771.383,680.692 797.621,665.184C823.859,649.675 832.502,615.668 816.91,589.289ZM765.739,568.069C789.716,568.069 809.182,588.106 809.182,612.786C809.182,637.466 789.716,657.503 765.739,657.503C741.762,657.503 722.295,637.466 722.295,612.786C722.295,588.106 741.762,568.069 765.739,568.069ZM2214.65,172.406C2200.8,174.396 2182.91,176.021 2161.32,177.942C2071.73,185.907 1913.9,202.658 1715.01,298.185C1714.28,298.536 1713.55,298.885 1712.82,299.23C1903.75,255.919 2133.47,222.312 2157.39,217.787C2181.4,213.245 2202.59,198.349 2214.65,172.406ZM1388.26,684.76C1388.64,684.999 1389.02,685.239 1389.4,685.48C1469.5,735.916 1570.88,818.222 1611.45,846.305C1620.87,852.83 1628.44,855.23 1634.89,853.76C1644.93,851.474 1650.89,841.367 1655.31,832.271C1657.57,827.607 1659.33,822.975 1660.64,818.996C1646.06,813.089 1627.37,804.151 1606.16,793.283C1542.76,760.781 1454.58,711.163 1388.26,684.76ZM1465.8,512.488C1465.62,515.281 1465.1,517.939 1464.28,520.461C1496.91,525.157 1538.17,533.056 1582.25,542.169C1694.22,565.319 1825.09,596.015 1874.02,596.896C1893.37,597.245 1905.66,593.072 1913.02,585.847C1919.18,579.801 1921.44,571.937 1922.24,564.809C1922.75,560.191 1922.65,555.802 1922.32,552.13C1842.03,548.402 1578.42,517.092 1465.8,512.488ZM1740.54,1910.87C1733,1873.46 1699.72,1772.43 1687.01,1745.2C1677.07,1723.88 1639.61,1649.64 1594.78,1594.12C1608.02,1658.62 1629.92,1760 1652.05,1839.09C1666.22,1889.74 1679.51,1931.02 1691.35,1944.52C1700.16,1954.57 1708.54,1961.81 1716.6,1966.07C1722.19,1969.03 1727.39,1970.46 1732.28,1969.63C1741.26,1968.1 1742.52,1920.66 1740.54,1910.87ZM1441.99,546.52C1436.96,549.829 1432.05,552.325 1428.31,554.024C1443.95,557.094 1462.34,561.508 1482.49,566.938C1584.48,594.427 1735.19,646.085 1792.57,656.423C1812.37,659.992 1825.89,657.89 1834.99,652.112C1846.13,645.036 1850.05,633.178 1851.36,624.227C1790.99,617.442 1676.27,591.194 1576.38,570.544C1523.72,559.656 1475.33,550.247 1441.99,546.52ZM1373.42,639.963C1369.71,641.295 1366.96,641.771 1366.96,641.771C1367.57,643.565 1368.04,645.27 1368.38,646.89C1426.97,665.573 1512.92,711.638 1583.02,748.549C1632,774.339 1672.55,795.893 1688.73,797.88C1701.24,799.417 1706.93,790.886 1709.95,782.62C1711.23,779.121 1712.1,775.572 1712.7,772.332C1670.48,766.16 1605.04,733.094 1539.3,700.928C1477.21,670.551 1414.93,640.728 1373.42,639.963ZM1248.98,767.028C1241.97,769.971 1234.1,770.019 1234.1,770.019C1234.28,770.893 1234.42,771.737 1234.52,772.551C1249.8,786.378 1263.9,805.8 1276.58,827.656C1299.27,866.759 1317.79,913.645 1332.47,945.875C1337.93,957.877 1343.42,965.013 1349.64,968.324C1355.52,971.456 1361.61,970.283 1367.36,968.412C1370.41,967.419 1373.4,966.191 1376.3,964.883C1352.72,927.483 1309.95,849.977 1271.27,795.991C1263.51,785.155 1256.03,775.264 1248.98,767.028ZM1491.42,468.225C1489.6,474.785 1485.58,480.329 1481.13,484.758C1610.18,491.947 1873.81,522.91 1933.94,523.511C1950.79,523.679 1961.39,520.214 1967.59,513.993C1972.58,508.991 1974.2,502.498 1974.67,496.642C1974.96,493.098 1974.82,489.716 1974.5,486.796C1896.71,483.763 1605.62,467.232 1491.42,468.225ZM1298.93,714.797C1300.02,719.388 1299.9,723.108 1298.88,726.113C1312,736.943 1325.34,749.678 1338.53,763.536C1386.11,813.527 1432.61,877.688 1460.73,910.275C1470.92,922.079 1479.61,927.216 1487.61,927.251C1494.15,927.28 1499.56,923.8 1503.88,920.054C1505.75,918.433 1507.44,916.717 1508.92,915.039C1480.45,891.549 1431.14,827.074 1376.49,774.337C1351.21,749.943 1324.87,727.96 1298.93,714.797Z" style="fill:white;"/>
    </g>
</svg>
